Ayanna-sinhala-1-opt.ufo
<glyph name="si_A" format="1">
  <advance width="559"/>
  <unicode hex="0D85"/>
  <outline>
    <contour>
      <point x="290.479" y="-205" type="line"/>
      <point x="288.104" y="416" type="line"/>
      <point x="288.104" y="416"/>
      <point x="300.479" y="489"/>
      <point x="346.174" y="533.185" type="curve"/>
      <point x="348.64" y="535.824"/>
      <point x="418.721" y="613.931"/>
      <point x="493.274" y="613.931" type="curve"/>
      <point x="535.479" y="552" type="line"/>
      <point x="523.824" y="545.444"/>
      <point x="519.996" y="532.886"/>
      <point x="519.996" y="516.645" type="curve" smooth="yes"/>
      <point x="519.996" y="485.538"/>
      <point x="534.04" y="440.919"/>
      <point x="534.04" y="399.081" type="curve" smooth="yes"/>
      <point x="534.04" y="349.941"/>
      <point x="503.11" y="294.292"/>
      <point x="426.016" y="294.292" type="curve" smooth="yes"/>
      <point x="414.825" y="294.292"/>
      <point x="402.662" y="295.465"/>
      <point x="389.479" y="298" type="curve"/>
      <point x="390.479" y="378" type="line"/>
      <point x="394.766" y="377.61"/>
      <point x="398.796" y="377.419"/>
      <point x="402.577" y="377.419" type="curve" smooth="yes"/>
      <point x="436.08" y="377.419"/>
      <point x="450.071" y="392.473"/>
      <point x="450.071" y="418.328" type="curve" smooth="yes"/>
      <point x="450.071" y="438.103"/>
      <point x="443.368" y="460.722"/>
      <point x="438.473" y="478" type="curve" smooth="yes"/>
      <point x="437.344" y="481.984"/>
      <point x="436.312" y="485.684"/>
      <point x="435.479" y="489" type="curve"/>
      <point x="391.997" y="459"/>
      <point x="395.078" y="403.256"/>
      <point x="394.479" y="327.227" type="curve"/>
      <point x="394.479" y="-205" type="line"/>
    </contour>
    <contour>
      <point x="22.2197" y="217" type="curve" smooth="yes"/>
      <point x="22.2197" y="330.947"/>
      <point x="118.9" y="421.352"/>
      <point x="239.22" y="421.352" type="curve" smooth="yes"/>
      <point x="258.05" y="421.352"/>
      <point x="270.22" y="420"/>
      <point x="288.026" y="418.437" type="curve"/>
      <point x="289.088" y="424.679"/>
      <point x="289.591" y="430.648"/>
      <point x="289.591" y="436.312" type="curve" smooth="yes"/>
      <point x="289.591" y="473.944"/>
      <point x="267.361" y="498"/>
      <point x="238.835" y="498" type="curve" smooth="yes"/>
      <point x="209.479" y="498"/>
      <point x="193.651" y="477"/>
      <point x="193.651" y="453.164" type="curve" smooth="yes"/>
      <point x="193.651" y="440.756"/>
      <point x="197.168" y="427.391"/>
      <point x="205" y="418" type="curve"/>
      <point x="127.22" y="379" type="line"/>
      <point x="107.91" y="404.207"/>
      <point x="100.176" y="430.604"/>
      <point x="100.176" y="458.407" type="curve" smooth="yes"/>
      <point x="100.176" y="534.137"/>
      <point x="152.275" y="596"/>
      <point x="238.835" y="596" type="curve" smooth="yes"/>
      <point x="315.825" y="596"/>
      <point x="387.22" y="539.336"/>
      <point x="387.22" y="430" type="curve" smooth="yes"/>
      <point x="387.22" y="398.735"/>
      <point x="380.22" y="357"/>
      <point x="368.22" y="318" type="curve"/>
      <point x="368.22" y="318"/>
      <point x="287.751" y="318"/>
      <point x="239.22" y="318" type="curve" smooth="yes"/>
      <point x="183.22" y="318"/>
      <point x="134.22" y="273"/>
      <point x="134.22" y="217" type="curve" smooth="yes"/>
      <point x="134.22" y="161"/>
      <point x="172.817" y="112"/>
      <point x="270.479" y="112" type="curve" smooth="yes"/>
      <point x="389.161" y="112"/>
      <point x="444.109" y="174.814"/>
      <point x="464.479" y="194" type="curve"/>
      <point x="533.479" y="111" type="line"/>
      <point x="494.07" y="70.833"/>
      <point x="396.763" y="0"/>
      <point x="270.479" y="0" type="curve" smooth="yes"/>
      <point x="102.928" y="0"/>
      <point x="22.2197" y="96.6641"/>
    </contour>
  </outline>
</glyph>
<glyph name="si_vocalicRr" format="1">
  <advance width="1190"/>
  <unicode hex="0D8E"/>
  <outline>
    <contour>
      <point x="883" y="143" type="curve" smooth="yes"/>
      <point x="883" y="256.62"/>
      <point x="944.615" y="292.603"/>
      <point x="997.138" y="292.603" type="curve" smooth="yes"/>
      <point x="1024.63" y="292.603"/>
      <point x="1049.63" y="282.743"/>
      <point x="1062" y="269" type="curve"/>
      <point x="1047" y="185" type="line"/>
      <point x="1039.66" y="190.536"/>
      <point x="1026.79" y="196"/>
      <point x="1013.95" y="196" type="curve" smooth="yes"/>
      <point x="995.94" y="196"/>
      <point x="978" y="185.986"/>
      <point x="978" y="151" type="curve" smooth="yes"/>
      <point x="978" y="105.761"/>
      <point x="997.494" y="94.7637"/>
      <point x="1016.71" y="94.7637" type="curve" smooth="yes"/>
      <point x="1024.55" y="94.7637"/>
      <point x="1032.35" y="96.4043"/>
      <point x="1039" y="98.4004" type="curve" smooth="yes"/>
      <point x="1045.38" y="100.315"/>
      <point x="1050.71" y="102.56"/>
      <point x="1054" y="104" type="curve"/>
      <point x="1095" y="0" type="line"/>
      <point x="1085.3" y="13.0381"/>
      <point x="1075.4" y="17.2598"/>
      <point x="1064.89" y="17.2598" type="curve" smooth="yes"/>
      <point x="1041.72" y="17.2598"/>
      <point x="1016.09" y="3"/>
      <point x="985" y="3" type="curve" smooth="yes"/>
      <point x="909" y="3"/>
      <point x="883" y="90"/>
    </contour>
    <contour>
      <point x="891" y="367" type="line" smooth="yes"/>
      <point x="890.001" y="379.28"/>
      <point x="889.504" y="390.916"/>
      <point x="889.504" y="401.917" type="curve" smooth="yes"/>
      <point x="889.504" y="505.582"/>
      <point x="933.639" y="552.93"/>
      <point x="1018" y="552.93" type="curve" smooth="yes"/>
      <point x="1103.81" y="552.93"/>
      <point x="1145.96" y="509.858"/>
      <point x="1145.96" y="397.941" type="curve" smooth="yes"/>
      <point x="1145.96" y="322.785"/>
      <point x="1131.71" y="247.06"/>
      <point x="1131.71" y="183.678" type="curve" smooth="yes"/>
      <point x="1131.71" y="133.736"/>
      <point x="1140.27" y="88.4795"/>
      <point x="1170" y="48" type="curve"/>
      <point x="1095" y="0" type="line"/>
      <point x="1043.35" y="61.3271"/>
      <point x="1028.17" y="109.83"/>
      <point x="1028.17" y="172" type="curve" smooth="yes"/>
      <point x="1028.17" y="227.095"/>
      <point x="1049" y="316.854"/>
      <point x="1049" y="400.967" type="curve" smooth="yes"/>
      <point x="1049" y="435.521"/>
      <point x="1041.3" y="455"/>
      <point x="1018" y="455" type="curve" smooth="yes"/>
      <point x="990.976" y="455"/>
      <point x="981.837" y="435.611"/>
      <point x="981.837" y="401.237" type="curve" smooth="yes"/>
      <point x="981.837" y="391.093"/>
      <point x="982.633" y="379.643"/>
      <point x="984" y="367" type="curve" smooth="yes"/>
    </contour>
    <contour>
      <point x="589" y="143" type="curve" smooth="yes"/>
      <point x="589" y="256.62"/>
      <point x="650.615" y="292.603"/>
      <point x="703.138" y="292.603" type="curve" smooth="yes"/>
      <point x="730.63" y="292.603"/>
      <point x="755.631" y="282.743"/>
      <point x="768" y="269" type="curve"/>
      <point x="753" y="185" type="line"/>
      <point x="745.661" y="190.536"/>
      <point x="732.789" y="196"/>
      <point x="719.95" y="196" type="curve" smooth="yes"/>
      <point x="701.94" y="196"/>
      <point x="684" y="185.986"/>
      <point x="684" y="151" type="curve" smooth="yes"/>
      <point x="684" y="105.761"/>
      <point x="703.494" y="94.7637"/>
      <point x="722.705" y="94.7637" type="curve" smooth="yes"/>
      <point x="730.548" y="94.7637"/>
      <point x="738.348" y="96.4043"/>
      <point x="745" y="98.4004" type="curve" smooth="yes"/>
      <point x="751.382" y="100.315"/>
      <point x="756.707" y="102.56"/>
      <point x="760" y="104" type="curve"/>
      <point x="801" y="0" type="line"/>
      <point x="791.303" y="13.0381"/>
      <point x="781.399" y="17.2598"/>
      <point x="770.888" y="17.2598" type="curve" smooth="yes"/>
      <point x="747.719" y="17.2598"/>
      <point x="722.086" y="3"/>
      <point x="691" y="3" type="curve" smooth="yes"/>
      <point x="615" y="3"/>
      <point x="589" y="90"/>
    </contour>
    <contour>
      <point x="597" y="367" type="line" smooth="yes"/>
      <point x="596.001" y="379.28"/>
      <point x="595.504" y="390.916"/>
      <point x="595.504" y="401.917" type="curve" smooth="yes"/>
      <point x="595.504" y="505.582"/>
      <point x="639.639" y="552.93"/>
      <point x="724" y="552.93" type="curve" smooth="yes"/>
      <point x="809.813" y="552.93"/>
      <point x="851.965" y="509.858"/>
      <point x="851.965" y="397.941" type="curve" smooth="yes"/>
      <point x="851.965" y="322.785"/>
      <point x="837.709" y="247.06"/>
      <point x="837.709" y="183.678" type="curve" smooth="yes"/>
      <point x="837.709" y="133.736"/>
      <point x="846.274" y="88.4795"/>
      <point x="876" y="48" type="curve"/>
      <point x="801" y="0" type="line"/>
      <point x="749.346" y="61.3271"/>
      <point x="734.165" y="109.83"/>
      <point x="734.165" y="172" type="curve" smooth="yes"/>
      <point x="734.165" y="227.095"/>
      <point x="755" y="316.854"/>
      <point x="755" y="400.967" type="curve" smooth="yes"/>
      <point x="755" y="435.521"/>
      <point x="747.296" y="455"/>
      <point x="724" y="455" type="curve" smooth="yes"/>
      <point x="696.976" y="455"/>
      <point x="687.837" y="435.611"/>
      <point x="687.837" y="401.237" type="curve" smooth="yes"/>
      <point x="687.837" y="391.093"/>
      <point x="688.633" y="379.643"/>
      <point x="690" y="367" type="curve" smooth="yes"/>
    </contour>
    <contour>
      <point x="254.374" y="467.354" type="curve" smooth="yes"/>
      <point x="254.374" y="473.071"/>
      <point x="254.938" y="478.329"/>
      <point x="256.189" y="483" type="curve" smooth="yes"/>
      <point x="275.815" y="556.277"/>
      <point x="334.908" y="594"/>
      <point x="397.727" y="594" type="curve" smooth="yes"/>
      <point x="484.286" y="594"/>
      <point x="536.386" y="532.137"/>
      <point x="536.386" y="456.407" type="curve" smooth="yes"/>
      <point x="536.386" y="428.149"/>
      <point x="525.138" y="394.649"/>
      <point x="505" y="369.03" type="curve"/>
      <point x="428.291" y="410.437" type="line"/>
      <point x="436.274" y="419.561"/>
      <point x="442.91" y="439.108"/>
      <point x="442.91" y="451.164" type="curve" smooth="yes"/>
      <point x="442.91" y="475"/>
      <point x="428.697" y="496"/>
      <point x="393.554" y="496" type="curve" smooth="yes"/>
      <point x="370.815" y="496"/>
      <point x="341.989" y="481.03"/>
      <point x="341.989" y="434.342" type="curve" smooth="yes"/>
      <point x="341.989" y="428.679"/>
      <point x="342.492" y="422.242"/>
      <point x="343.554" y="416" type="curve"/>
      <point x="297.054" y="318.437" type="line"/>
      <point x="284.442" y="359.423"/>
      <point x="254.374" y="425.625"/>
    </contour>
    <contour>
      <point x="139.334" y="207" type="curve" smooth="yes"/>
      <point x="139.334" y="157.265"/>
      <point x="153.522" y="115"/>
      <point x="188.816" y="115" type="curve" smooth="yes"/>
      <point x="235.517" y="115"/>
      <point x="251.447" y="176.75"/>
      <point x="251.447" y="249.5" type="curve"/>
      <point x="342.66" y="249.5" type="line"/>
      <point x="342.66" y="176.75"/>
      <point x="358.591" y="115"/>
      <point x="405.291" y="115" type="curve" smooth="yes"/>
      <point x="440.585" y="115"/>
      <point x="454.773" y="157.265"/>
      <point x="454.773" y="207" type="curve" smooth="yes"/>
      <point x="454.773" y="258.726"/>
      <point x="435" y="318"/>
      <point x="394.535" y="318" type="curve" smooth="yes"/>
      <point x="199.572" y="318" type="line" smooth="yes"/>
      <point x="159" y="318"/>
      <point x="139.334" y="258.726"/>
    </contour>
    <contour>
      <point x="32.335" y="207" type="curve" smooth="yes"/>
      <point x="32.335" y="287.785"/>
      <point x="51.6738" y="344.021"/>
      <point x="94.1084" y="380.399" type="curve" smooth="yes"/>
      <point x="117.332" y="400.31"/>
      <point x="148.001" y="416"/>
      <point x="182.292" y="416" type="curve" smooth="yes"/>
      <point x="411.817" y="416" type="line" smooth="yes"/>
      <point x="446.001" y="416"/>
      <point x="476.776" y="400.309"/>
      <point x="500.001" y="380.399" type="curve" smooth="yes"/>
      <point x="542.436" y="344.021"/>
      <point x="561.774" y="287.784"/>
      <point x="561.774" y="206.999" type="curve" smooth="yes"/>
      <point x="561.774" y="95.0957"/>
      <point x="516.905" y="-0.000976562"/>
      <point x="405.292" y="-0.000976562" type="curve" smooth="yes"/>
      <point x="352.612" y="-0.000976562"/>
      <point x="313.2" y="31.6016"/>
      <point x="297.055" y="79.0303" type="curve"/>
      <point x="297.054" y="79.0303" type="line"/>
      <point x="280.908" y="31.6025"/>
      <point x="241.496" y="0"/>
      <point x="188.817" y="0" type="curve" smooth="yes"/>
      <point x="77.2041" y="0"/>
      <point x="32.335" y="95.0957"/>
    </contour>
    <contour>
      <point x="57.7217" y="456.407" type="curve" smooth="yes"/>
      <point x="57.7217" y="532.137"/>
      <point x="109.821" y="594"/>
      <point x="196.381" y="594" type="curve" smooth="yes"/>
      <point x="259.199" y="594"/>
      <point x="318.292" y="556.277"/>
      <point x="337.918" y="483" type="curve" smooth="yes"/>
      <point x="339.169" y="478.329"/>
      <point x="339.733" y="473.071"/>
      <point x="339.733" y="467.354" type="curve" smooth="yes"/>
      <point x="339.733" y="425.625"/>
      <point x="309.665" y="359.423"/>
      <point x="297.054" y="318.437" type="curve"/>
      <point x="250.554" y="416" type="line"/>
      <point x="251.615" y="422.242"/>
      <point x="252.118" y="428.679"/>
      <point x="252.118" y="434.342" type="curve" smooth="yes"/>
      <point x="252.118" y="481.787"/>
      <point x="223.292" y="497"/>
      <point x="200.554" y="497" type="curve" smooth="yes"/>
      <point x="165.41" y="497"/>
      <point x="151.197" y="476"/>
      <point x="151.197" y="452.164" type="curve" smooth="yes"/>
      <point x="151.197" y="439.812"/>
      <point x="157.833" y="419.784"/>
      <point x="165.816" y="410.437" type="curve"/>
      <point x="89.1074" y="369.03" type="line"/>
      <point x="68.9697" y="394.649"/>
      <point x="57.7217" y="428.149"/>
    </contour>
  </outline>
</glyph>
<glyph name="si_Os" format="1">
  <advance width="578"/>
  <unicode hex="0D94"/>
  <outline>
    <contour>
      <point x="22" y="253" type="curve" smooth="yes"/>
      <point x="22" y="389"/>
      <point x="55" y="527"/>
      <point x="170.287" y="527" type="curve" smooth="yes"/>
      <point x="234.287" y="527"/>
      <point x="274" y="481"/>
      <point x="275" y="438" type="curve"/>
      <point x="193" y="413" type="line"/>
      <point x="193" y="423.39"/>
      <point x="183" y="429"/>
      <point x="176" y="429" type="curve" smooth="yes"/>
      <point x="140.287" y="429"/>
      <point x="128.673" y="348"/>
      <point x="128.673" y="265.912" type="curve" smooth="yes"/>
      <point x="128.673" y="203"/>
      <point x="133.934" y="114.652"/>
      <point x="174.449" y="114.652" type="curve" smooth="yes"/>
      <point x="216.625" y="114.652"/>
      <point x="231.631" y="179.678"/>
      <point x="231.631" y="249.5" type="curve"/>
      <point x="327.542" y="249.5" type="line"/>
      <point x="327.542" y="176.75"/>
      <point x="343.01" y="115"/>
      <point x="386" y="115" type="curve" smooth="yes"/>
      <point x="442.756" y="115"/>
      <point x="442.756" y="239.958"/>
      <point x="442.756" y="293" type="curve" smooth="yes"/>
      <point x="442.756" y="522.797"/>
      <point x="399.756" y="639.885"/>
      <point x="261.756" y="639.885" type="curve" smooth="yes"/>
      <point x="220.652" y="639.885"/>
      <point x="172.993" y="618.96"/>
      <point x="155.938" y="576.855" type="curve"/>
      <point x="46.9053" y="613.029" type="line"/>
      <point x="82.8896" y="707.868"/>
      <point x="175.035" y="755"/>
      <point x="261.756" y="755" type="curve" smooth="yes"/>
      <point x="478.756" y="755"/>
      <point x="557.756" y="599.056"/>
      <point x="557.756" y="293" type="curve" smooth="yes"/>
      <point x="557.756" y="181.996"/>
      <point x="556.756" y="0"/>
      <point x="386" y="0" type="curve" smooth="yes"/>
      <point x="330.08" y="0"/>
      <point x="292.058" y="33.1445"/>
      <point x="277.237" y="79.0303" type="curve"/>
      <point x="261.092" y="31.6025"/>
      <point x="221.68" y="0"/>
      <point x="169" y="0" type="curve" smooth="yes"/>
      <point x="56" y="0"/>
      <point x="22" y="115"/>
    </contour>
    <contour>
      <point x="190.059" y="374.956" type="curve" smooth="yes"/>
      <point x="190.059" y="387.013"/>
      <point x="193" y="399"/>
      <point x="193" y="413" type="curve"/>
      <point x="275" y="438" type="line"/>
      <point x="275" y="424"/>
      <point x="273.013" y="412.297"/>
      <point x="273.013" y="402.627" type="curve" smooth="yes"/>
      <point x="273.013" y="376.409"/>
      <point x="278.664" y="366"/>
      <point x="292" y="366" type="curve" smooth="yes"/>
      <point x="302.2" y="366"/>
      <point x="308.021" y="375.745"/>
      <point x="308.021" y="405" type="curve" smooth="yes"/>
      <point x="308.021" y="425.894"/>
      <point x="305.534" y="446"/>
      <point x="288" y="446" type="curve" smooth="yes"/>
      <point x="283" y="446"/>
      <point x="275.474" y="444.318"/>
      <point x="271" y="438" type="curve"/>
      <point x="230" y="498" type="line"/>
      <point x="242" y="513.536"/>
      <point x="260.226" y="527"/>
      <point x="293.226" y="527" type="curve" smooth="yes"/>
      <point x="356.53" y="527"/>
      <point x="389" y="480.527"/>
      <point x="389" y="404" type="curve" smooth="yes"/>
      <point x="389" y="323.917"/>
      <point x="372.175" y="270"/>
      <point x="287" y="270" type="curve" smooth="yes"/>
      <point x="214.473" y="270"/>
      <point x="190.059" y="313.932"/>
    </contour>
  </outline>
</glyph>
<glyph name="si_Ka" format="1">
  <advance width="697"/>
  <unicode hex="0D9A"/>
  <outline>
    <contour>
      <point x="25.9121" y="232" type="line"/>
      <point x="245.372" y="489" type="line" smooth="yes"/>
      <point x="293.725" y="545.624"/>
      <point x="357.372" y="585"/>
      <point x="447.372" y="585" type="curve" smooth="yes"/>
      <point x="565" y="585"/>
      <point x="675" y="486"/>
      <point x="675" y="263" type="curve" smooth="yes"/>
      <point x="675" y="58"/>
      <point x="601.884" y="0"/>
      <point x="498.284" y="0" type="curve" smooth="yes"/>
      <point x="422.37" y="0"/>
      <point x="393.569" y="58.0215"/>
      <point x="384.284" y="94" type="curve"/>
      <point x="452.284" y="158" type="line"/>
      <point x="453.284" y="134"/>
      <point x="456.656" y="103"/>
      <point x="498.284" y="103" type="curve" smooth="yes"/>
      <point x="541.387" y="103"/>
      <point x="564" y="137"/>
      <point x="564" y="263" type="curve" smooth="yes"/>
      <point x="564" y="399.94"/>
      <point x="512.225" y="473.229"/>
      <point x="437.644" y="473.229" type="curve" smooth="yes"/>
      <point x="384.644" y="473.229"/>
      <point x="356.06" y="457.742"/>
      <point x="317.284" y="416" type="curve" smooth="yes"/>
      <point x="317.284" y="416"/>
      <point x="205.812" y="290.156"/>
      <point x="121.284" y="205" type="curve"/>
      <point x="29.9121" y="126" type="line"/>
    </contour>
    <contour>
      <point x="61.2734" y="83" type="curve" smooth="yes"/>
      <point x="61.2734" y="91.8301"/>
      <point x="62" y="99"/>
      <point x="62" y="106" type="curve" smooth="yes"/>
      <point x="62" y="120.562"/>
      <point x="51.9561" y="128.335"/>
      <point x="40.4463" y="128.335" type="curve" smooth="yes"/>
      <point x="37.3291" y="128.335"/>
      <point x="33.8252" y="127.574"/>
      <point x="29.9121" y="126" type="curve"/>
      <point x="44.2842" y="192" type="line"/>
      <point x="108" y="221" type="line"/>
      <point x="112.224" y="216.17"/>
      <point x="116.124" y="211.757"/>
      <point x="121" y="207" type="curve" smooth="yes"/>
      <point x="128.43" y="199.927"/>
      <point x="137.468" y="191.219"/>
      <point x="137.468" y="167" type="curve" smooth="yes"/>
      <point x="137.468" y="162"/>
      <point x="137.284" y="159.963"/>
      <point x="137.284" y="156" type="curve" smooth="yes"/>
      <point x="137.284" y="138.592"/>
      <point x="139.16" y="109"/>
      <point x="163.284" y="109" type="curve" smooth="yes"/>
      <point x="178.313" y="109"/>
      <point x="194.656" y="119"/>
      <point x="194.656" y="160" type="curve" smooth="yes"/>
      <point x="194.656" y="227" type="line"/>
      <point x="284.656" y="227" type="line"/>
      <point x="284.656" y="160" type="line" smooth="yes"/>
      <point x="284.656" y="122"/>
      <point x="297.284" y="109"/>
      <point x="316.284" y="109" type="curve" smooth="yes"/>
      <point x="351.284" y="109"/>
      <point x="356.372" y="165.987"/>
      <point x="356.372" y="210" type="curve" smooth="yes"/>
      <point x="356.372" y="307.753"/>
      <point x="321.284" y="343"/>
      <point x="282.284" y="343" type="curve" smooth="yes"/>
      <point x="255.23" y="343"/>
      <point x="242.284" y="330.903"/>
      <point x="232.284" y="322" type="curve"/>
      <point x="183.284" y="358" type="line"/>
      <point x="218.913" y="415.504"/>
      <point x="256.153" y="429.167"/>
      <point x="318.028" y="429.167" type="curve" smooth="yes"/>
      <point x="384.284" y="429.167"/>
      <point x="463.372" y="400"/>
      <point x="463.372" y="210" type="curve" smooth="yes"/>
      <point x="463.372" y="111.981"/>
      <point x="423.327" y="0"/>
      <point x="326.284" y="0" type="curve" smooth="yes"/>
      <point x="278.327" y="0"/>
      <point x="250.794" y="29"/>
      <point x="240.284" y="52" type="curve"/>
      <point x="231.247" y="31"/>
      <point x="204.298" y="0"/>
      <point x="160.284" y="0" type="curve" smooth="yes"/>
      <point x="83.2061" y="0"/>
      <point x="61.2734" y="46"/>
    </contour>
    <contour>
      <point x="22.2842" y="461.536" type="curve" smooth="yes"/>
      <point x="22.2842" y="532.132"/>
      <point x="70.2842" y="594"/>
      <point x="157.899" y="594" type="curve" smooth="yes"/>
      <point x="234.89" y="594"/>
      <point x="306.284" y="537.336"/>
      <point x="306.284" y="428" type="curve"/>
      <point x="208.655" y="375" type="line"/>
      <point x="208.655" y="386"/>
      <point x="208.655" y="428.648"/>
      <point x="208.655" y="434.312" type="curve" smooth="yes"/>
      <point x="208.655" y="471.944"/>
      <point x="184.811" y="496"/>
      <point x="156.284" y="496" type="curve" smooth="yes"/>
      <point x="128.45" y="496"/>
      <point x="114.859" y="475.013"/>
      <point x="114.859" y="451.903" type="curve" smooth="yes"/>
      <point x="114.859" y="411.899"/>
      <point x="142.083" y="394.899"/>
      <point x="172.083" y="387.899" type="curve"/>
      <point x="112.372" y="327.899" type="line"/>
      <point x="67.083" y="344.899"/>
      <point x="22.2842" y="391.899"/>
    </contour>
  </outline>
</glyph>
<glyph name="si_Kha" format="1">
  <advance width="576"/>
  <unicode hex="0D9B"/>
  <outline>
    <contour>
      <point x="271.76" y="152" type="curve"/>
      <point x="331.76" y="226" type="line"/>
      <point x="331.76" y="199.778"/>
      <point x="335.031" y="179.732"/>
      <point x="340.604" y="165" type="curve" smooth="yes"/>
      <point x="349.482" y="141.527"/>
      <point x="364.203" y="131.539"/>
      <point x="380.841" y="131.539" type="curve" smooth="yes"/>
      <point x="408.115" y="131.539"/>
      <point x="439" y="171.641"/>
      <point x="439" y="293" type="curve" smooth="yes"/>
      <point x="439" y="522.797"/>
      <point x="396" y="639.885"/>
      <point x="258" y="639.885" type="curve" smooth="yes"/>
      <point x="216.896" y="639.885"/>
      <point x="169.237" y="618.96"/>
      <point x="152.182" y="576.855" type="curve"/>
      <point x="43.1494" y="613.029" type="line"/>
      <point x="79.1338" y="707.868"/>
      <point x="171.279" y="755"/>
      <point x="258" y="755" type="curve" smooth="yes"/>
      <point x="475" y="755"/>
      <point x="554" y="599.056"/>
      <point x="554" y="293" type="curve" smooth="yes"/>
      <point x="553.516" y="181.996"/>
      <point x="536.885" y="0"/>
      <point x="395.885" y="0" type="curve" smooth="yes"/>
      <point x="333.76" y="0"/>
      <point x="310.76" y="30"/>
      <point x="293.76" y="74" type="curve" smooth="yes"/>
      <point x="282.501" y="103.142"/>
      <point x="271.76" y="152"/>
    </contour>
    <contour>
      <point x="21.7598" y="220" type="curve" smooth="yes"/>
      <point x="21.7598" y="425.89"/>
      <point x="97.7598" y="488.874"/>
      <point x="201.945" y="488.874" type="curve" smooth="yes"/>
      <point x="309.451" y="488.874"/>
      <point x="370.885" y="430"/>
      <point x="370.885" y="324" type="curve" smooth="yes"/>
      <point x="370.885" y="271.699"/>
      <point x="354.406" y="232.284"/>
      <point x="330.76" y="191" type="curve" smooth="yes"/>
      <point x="305.662" y="147.18"/>
      <point x="299.032" y="102.914"/>
      <point x="299.032" y="34.4395" type="curve" smooth="yes"/>
      <point x="299.032" y="-4.38965"/>
      <point x="301.238" y="-43.3105"/>
      <point x="304.76" y="-75" type="curve"/>
      <point x="197.76" y="-75" type="line"/>
      <point x="194.047" y="-50.4004"/>
      <point x="191.343" y="-14.6318"/>
      <point x="191.343" y="25.6523" type="curve" smooth="yes"/>
      <point x="191.343" y="72.1602"/>
      <point x="194.946" y="124.688"/>
      <point x="204.76" y="173" type="curve" smooth="yes"/>
      <point x="217.76" y="237"/>
      <point x="258.885" y="264"/>
      <point x="258.885" y="324" type="curve" smooth="yes"/>
      <point x="258.885" y="354"/>
      <point x="243.451" y="376.433"/>
      <point x="200.76" y="376.433" type="curve" smooth="yes"/>
      <point x="160.933" y="376.433"/>
      <point x="128.76" y="339.788"/>
      <point x="128.76" y="220" type="curve" smooth="yes"/>
      <point x="128.76" y="128"/>
      <point x="149.76" y="106"/>
      <point x="170.76" y="106" type="curve" smooth="yes"/>
      <point x="190.76" y="106"/>
      <point x="207.76" y="120"/>
      <point x="223.76" y="156" type="curve"/>
      <point x="279.76" y="73" type="line"/>
      <point x="237.649" y="36.5586"/>
      <point x="194.228" y="3.06152"/>
      <point x="148.484" y="3.06152" type="curve" smooth="yes"/>
      <point x="53.3311" y="3.06152"/>
      <point x="21.7598" y="101.451"/>
    </contour>
  </outline>
</glyph>
<glyph name="si_Nga" format="1">
  <advance width="574"/>
  <unicode hex="0D9E"/>
  <outline>
    <contour>
      <point x="27.5176" y="193.437" type="curve" smooth="yes"/>
      <point x="27.5176" y="272.337"/>
      <point x="64.0674" y="331.214"/>
      <point x="120.525" y="358" type="curve"/>
      <point x="126.252" y="352.438"/>
      <point x="135.425" y="349.898"/>
      <point x="144.957" y="349.898" type="curve" smooth="yes"/>
      <point x="162.847" y="349.898"/>
      <point x="182" y="358.849"/>
      <point x="182" y="373.58" type="curve"/>
      <point x="186.099" y="373.847"/>
      <point x="190.25" y="373.981"/>
      <point x="194.451" y="373.981" type="curve" smooth="yes"/>
      <point x="236.845" y="373.981"/>
      <point x="237.953" y="368.651"/>
      <point x="263.813" y="368.651" type="curve" smooth="yes"/>
      <point x="285" y="368.651"/>
      <point x="295" y="380"/>
      <point x="295" y="400" type="curve" smooth="yes"/>
      <point x="295" y="431.162"/>
      <point x="278.095" y="444.884"/>
      <point x="250.956" y="444.884" type="curve" smooth="yes"/>
      <point x="226.278" y="444.884"/>
      <point x="199.013" y="435.564"/>
      <point x="178.803" y="425.293" type="curve"/>
      <point x="166.968" y="439.258"/>
      <point x="152.894" y="445.191"/>
      <point x="139.738" y="445.191" type="curve" smooth="yes"/>
      <point x="116.429" y="445.191"/>
      <point x="96" y="426.568"/>
      <point x="96" y="401" type="curve"/>
      <point x="32" y="452" type="line"/>
      <point x="63" y="510"/>
      <point x="115.257" y="527"/>
      <point x="209" y="527" type="curve" smooth="yes"/>
      <point x="286.813" y="527"/>
      <point x="386.654" y="501.325"/>
      <point x="386.654" y="401" type="curve" smooth="yes"/>
      <point x="386.654" y="322"/>
      <point x="344.487" y="290"/>
      <point x="281" y="290" type="curve" smooth="yes"/>
      <point x="257.594" y="290"/>
      <point x="236.643" y="295"/>
      <point x="213" y="295" type="curve" smooth="yes"/>
      <point x="166.279" y="295"/>
      <point x="134.518" y="261.418"/>
      <point x="134.518" y="193.437" type="curve" smooth="yes"/>
      <point x="134.518" y="156.328"/>
      <point x="140.191" y="114.652"/>
      <point x="177.449" y="114.652" type="curve" smooth="yes"/>
      <point x="219.625" y="114.652"/>
      <point x="234.631" y="179.678"/>
      <point x="234.631" y="249.5" type="curve"/>
      <point x="330.542" y="249.5" type="line"/>
      <point x="330.542" y="176.75"/>
      <point x="346.01" y="115"/>
      <point x="389" y="115" type="curve" smooth="yes"/>
      <point x="445.756" y="115"/>
      <point x="445.756" y="239.958"/>
      <point x="445.756" y="293" type="curve" smooth="yes"/>
      <point x="445.756" y="522.797"/>
      <point x="402.756" y="639.885"/>
      <point x="264.756" y="639.885" type="curve" smooth="yes"/>
      <point x="223.652" y="639.885"/>
      <point x="175.993" y="618.96"/>
      <point x="158.938" y="576.855" type="curve"/>
      <point x="49.9053" y="613.029" type="line"/>
      <point x="85.8896" y="707.868"/>
      <point x="178.035" y="755"/>
      <point x="264.756" y="755" type="curve" smooth="yes"/>
      <point x="481.756" y="755"/>
      <point x="560.756" y="599.056"/>
      <point x="560.756" y="293" type="curve" smooth="yes"/>
      <point x="560.756" y="181.996"/>
      <point x="559.756" y="0"/>
      <point x="389" y="0" type="curve" smooth="yes"/>
      <point x="333.08" y="0"/>
      <point x="295.058" y="33.1445"/>
      <point x="280.237" y="79.0303" type="curve"/>
      <point x="264.092" y="31.6025"/>
      <point x="224.68" y="0"/>
      <point x="172" y="0" type="curve" smooth="yes"/>
      <point x="56.2002" y="0"/>
      <point x="27.5176" y="105.454"/>
    </contour>
    <contour>
      <point x="97.335" y="397.302" type="curve" smooth="yes"/>
      <point x="97.335" y="375.051"/>
      <point x="114.968" y="357.127"/>
      <point x="136.856" y="357.127" type="curve" smooth="yes"/>
      <point x="158.745" y="357.127"/>
      <point x="176.378" y="375.051"/>
      <point x="176.378" y="397.302" type="curve" smooth="yes"/>
      <point x="176.378" y="419.552"/>
      <point x="158.745" y="437.477"/>
      <point x="136.856" y="437.477" type="curve" smooth="yes"/>
      <point x="114.968" y="437.477"/>
      <point x="97.335" y="419.552"/>
    </contour>
    <contour>
      <point x="18.3496" y="397.65" type="curve" smooth="yes"/>
      <point x="18.3496" y="462.81"/>
      <point x="70.8398" y="515.3"/>
      <point x="136" y="515.3" type="curve" smooth="yes"/>
      <point x="201.159" y="515.3"/>
      <point x="253.649" y="462.81"/>
      <point x="253.649" y="397.65" type="curve" smooth="yes"/>
      <point x="253.649" y="332.49"/>
      <point x="201.159" y="280"/>
      <point x="136" y="280" type="curve" smooth="yes"/>
      <point x="70.8398" y="280"/>
      <point x="18.3496" y="332.49"/>
    </contour>
  </outline>
</glyph>
<glyph name="si_Dda" format="1">
  <advance width="583"/>
  <unicode hex="0DA9"/>
  <outline>
    <contour>
      <point x="27.7617" y="193.437" type="curve" smooth="yes"/>
      <point x="27.7617" y="234.737"/>
      <point x="39.2441" y="280.437"/>
      <point x="53.2441" y="306" type="curve"/>
      <point x="22" y="306" type="line"/>
      <point x="22" y="391" type="line"/>
      <point x="311.243" y="389.5" type="line"/>
      <point x="344.745" y="306" type="line"/>
      <point x="195" y="306" type="line" smooth="yes"/>
      <point x="154.244" y="306"/>
      <point x="134.762" y="245.162"/>
      <point x="134.762" y="193.437" type="curve" smooth="yes"/>
      <point x="134.762" y="156.328"/>
      <point x="140.436" y="114.652"/>
      <point x="177.693" y="114.652" type="curve" smooth="yes"/>
      <point x="219.869" y="114.652"/>
      <point x="234.875" y="179.678"/>
      <point x="234.875" y="249.5" type="curve"/>
      <point x="330.786" y="249.5" type="line"/>
      <point x="330.786" y="176.75"/>
      <point x="346.254" y="115"/>
      <point x="389.244" y="115" type="curve" smooth="yes"/>
      <point x="446" y="115"/>
      <point x="446" y="239.958"/>
      <point x="446" y="293" type="curve" smooth="yes"/>
      <point x="446" y="522.797"/>
      <point x="403" y="639.885"/>
      <point x="265" y="639.885" type="curve" smooth="yes"/>
      <point x="223.896" y="639.885"/>
      <point x="176.237" y="618.96"/>
      <point x="159.182" y="576.855" type="curve"/>
      <point x="50.1494" y="613.029" type="line"/>
      <point x="86.1338" y="707.868"/>
      <point x="178.279" y="755"/>
      <point x="265" y="755" type="curve" smooth="yes"/>
      <point x="482" y="755"/>
      <point x="561" y="599.056"/>
      <point x="561" y="293" type="curve" smooth="yes"/>
      <point x="561" y="181.996"/>
      <point x="560" y="0"/>
      <point x="389.244" y="0" type="curve" smooth="yes"/>
      <point x="333.324" y="0"/>
      <point x="295.302" y="33.1445"/>
      <point x="280.481" y="79.0303" type="curve"/>
      <point x="264.336" y="31.6025"/>
      <point x="224.924" y="0"/>
      <point x="172.244" y="0" type="curve" smooth="yes"/>
      <point x="56.4443" y="0"/>
      <point x="27.7617" y="105.454"/>
    </contour>
    <contour>
      <point x="80.3369" y="409.272" type="curve" smooth="yes"/>
      <point x="80.3369" y="481.535"/>
      <point x="129.308" y="531.563"/>
      <point x="203.609" y="531.563" type="curve" smooth="yes"/>
      <point x="280.596" y="531.563"/>
      <point x="351.994" y="474.899"/>
      <point x="351.994" y="365.563" type="curve" smooth="yes"/>
      <point x="351.994" y="351"/>
      <point x="348.801" y="325"/>
      <point x="344.745" y="306" type="curve"/>
      <point x="254.365" y="371.875" type="line"/>
      <point x="255.307" y="376.782"/>
      <point x="255.78" y="381.771"/>
      <point x="255.78" y="386.714" type="curve" smooth="yes"/>
      <point x="255.78" y="416.144"/>
      <point x="238.967" y="444"/>
      <point x="203.609" y="444" type="curve" smooth="yes"/>
      <point x="178.81" y="444"/>
      <point x="169.817" y="426.134"/>
      <point x="169.817" y="404.787" type="curve" smooth="yes"/>
      <point x="169.817" y="386.793"/>
      <point x="182.103" y="370.325"/>
      <point x="190.801" y="356" type="curve"/>
      <point x="110.801" y="318.563" type="line"/>
      <point x="90.8008" y="351"/>
      <point x="80.3369" y="380.62"/>
    </contour>
  </outline>
</glyph>
<glyph name="si_Nna" format="1">
  <advance width="878"/>
  <unicode hex="0DAB"/>
  <outline>
    <contour>
      <point x="427.032" y="235" type="line"/>
      <point x="427.032" y="235"/>
      <point x="427.032" y="304.436"/>
      <point x="427.032" y="321.523" type="curve" smooth="yes"/>
      <point x="427.032" y="439.831"/>
      <point x="473.475" y="520"/>
      <point x="546" y="520" type="curve" smooth="yes"/>
      <point x="592" y="520"/>
      <point x="618.971" y="491.13"/>
      <point x="628.457" y="468" type="curve"/>
      <point x="637.943" y="491.13"/>
      <point x="676" y="520"/>
      <point x="724" y="520" type="curve" smooth="yes"/>
      <point x="850.843" y="520"/>
      <point x="856.841" y="386"/>
      <point x="856.841" y="277" type="curve" smooth="yes"/>
      <point x="856.841" y="166"/>
      <point x="848.578" y="0"/>
      <point x="671" y="0" type="curve" smooth="yes"/>
      <point x="522.876" y="0"/>
      <point x="537.224" y="122.19"/>
      <point x="483.061" y="122.19" type="curve" smooth="yes"/>
      <point x="475.794" y="122.19"/>
      <point x="467.293" y="119.99"/>
      <point x="457" y="115" type="curve"/>
      <point x="488.48" y="208" type="line"/>
      <point x="495.544" y="209.563"/>
      <point x="504.186" y="210.283"/>
      <point x="510" y="210.283" type="curve" smooth="yes"/>
      <point x="587.872" y="210.283"/>
      <point x="575.328" y="110"/>
      <point x="669" y="110" type="curve" smooth="yes"/>
      <point x="738.263" y="110"/>
      <point x="741.841" y="208.104"/>
      <point x="741.841" y="277" type="curve" smooth="yes"/>
      <point x="741.841" y="338.391"/>
      <point x="741" y="406"/>
      <point x="707.159" y="406" type="curve" smooth="yes"/>
      <point x="680.159" y="406"/>
      <point x="674.957" y="372"/>
      <point x="674.957" y="333" type="curve" smooth="yes"/>
      <point x="674.957" y="238" type="line"/>
      <point x="581.957" y="238" type="line"/>
      <point x="581.957" y="333" type="line" smooth="yes"/>
      <point x="581.957" y="372"/>
      <point x="576.755" y="406"/>
      <point x="549.755" y="406" type="curve" smooth="yes"/>
      <point x="521.068" y="406"/>
      <point x="518.529" y="366.862"/>
      <point x="518.529" y="322.985" type="curve" smooth="yes"/>
      <point x="518.529" y="313.549"/>
      <point x="518.647" y="303.894"/>
      <point x="518.647" y="294.362" type="curve" smooth="yes"/>
      <point x="518.647" y="272.57"/>
      <point x="518.033" y="251.42"/>
      <point x="514" y="235" type="curve"/>
    </contour>
    <contour>
      <point x="283.693" y="573" type="line"/>
      <point x="387.802" y="680.666"/>
      <point x="394" y="715.748"/>
      <point x="394" y="770" type="curve"/>
      <point x="504" y="770" type="line"/>
      <point x="504" y="672.148"/>
      <point x="453.723" y="608"/>
      <point x="376" y="528" type="curve"/>
    </contour>
    <contour>
      <point x="22" y="20" type="line"/>
      <point x="42" y="174"/>
      <point x="64" y="171"/>
      <point x="144" y="244" type="curve"/>
      <point x="230" y="176" type="line"/>
      <point x="170" y="134"/>
      <point x="135" y="148"/>
      <point x="124" y="0" type="curve"/>
    </contour>
    <contour>
      <point x="38.3994" y="345.123" type="curve" smooth="yes"/>
      <point x="38.3994" y="466.953"/>
      <point x="120.966" y="585"/>
      <point x="262" y="585" type="curve" smooth="yes"/>
      <point x="402.382" y="585"/>
      <point x="517.901" y="487"/>
      <point x="517.901" y="288.078" type="curve" smooth="yes"/>
      <point x="517.901" y="99.5609"/>
      <point x="398" y="0"/>
      <point x="280" y="0" type="curve" smooth="yes"/>
      <point x="216" y="0"/>
      <point x="193" y="20"/>
      <point x="159.302" y="20" type="curve" smooth="yes"/>
      <point x="145.925" y="20"/>
      <point x="133.989" y="14.9979"/>
      <point x="124" y="0" type="curve"/>
      <point x="62" y="49" type="line"/>
      <point x="143" y="106" type="line" smooth="yes"/>
      <point x="151.411" y="111.911"/>
      <point x="161.971" y="112.527"/>
      <point x="172.707" y="112.527" type="curve" smooth="yes"/>
      <point x="197.466" y="112.527"/>
      <point x="226.684" y="103.551"/>
      <point x="260.547" y="103.551" type="curve" smooth="yes"/>
      <point x="357.487" y="103.551"/>
      <point x="402.901" y="176.545"/>
      <point x="402.901" y="288.078" type="curve" smooth="yes"/>
      <point x="402.901" y="407"/>
      <point x="339.281" y="471"/>
      <point x="262" y="471" type="curve" smooth="yes"/>
      <point x="188.803" y="471"/>
      <point x="150.998" y="433.006"/>
      <point x="140.846" y="388" type="curve" smooth="yes"/>
      <point x="138.931" y="379.513"/>
      <point x="138" y="370.777"/>
      <point x="138" y="362" type="curve"/>
      <point x="113" y="276" type="line"/>
      <point x="68" y="224" type="line"/>
      <point x="47.9502" y="261.815"/>
      <point x="38.3994" y="303.688"/>
    </contour>
    <contour>
      <point x="149.235" y="298.488" type="curve" smooth="yes"/>
      <point x="149.235" y="271.148"/>
      <point x="171.106" y="249.277"/>
      <point x="198.446" y="249.277" type="curve" smooth="yes"/>
      <point x="225.786" y="249.277"/>
      <point x="247.659" y="271.148"/>
      <point x="247.659" y="298.488" type="curve" smooth="yes"/>
      <point x="247.659" y="325.829"/>
      <point x="225.786" y="347.702"/>
      <point x="198.446" y="347.702" type="curve" smooth="yes"/>
      <point x="171.106" y="347.702"/>
      <point x="149.235" y="325.829"/>
    </contour>
    <contour>
      <point x="53.0146" y="289.488" type="curve" smooth="yes"/>
      <point x="53.0146" y="326.546"/>
      <point x="86.4238" y="361.979"/>
      <point x="130" y="389" type="curve"/>
      <point x="147.732" y="411.948"/>
      <point x="182.886" y="428"/>
      <point x="219.228" y="428" type="curve" smooth="yes"/>
      <point x="252.567" y="428"/>
      <point x="286.909" y="414.047"/>
      <point x="309.718" y="389" type="curve" smooth="yes"/>
      <point x="333.541" y="362.839"/>
      <point x="348" y="327.971"/>
      <point x="348" y="289.488" type="curve" smooth="yes"/>
      <point x="348" y="207.55"/>
      <point x="282.444" y="142"/>
      <point x="200.503" y="142" type="curve" smooth="yes"/>
      <point x="128.321" y="142"/>
      <point x="68.8577" y="192.87"/>
      <point x="55.7197" y="261" type="curve" smooth="yes"/>
      <point x="53.944" y="270.208"/>
      <point x="53.0146" y="279.732"/>
    </contour>
  </outline>
</glyph>
<glyph name="si_Tha" format="1">
  <advance width="548"/>
  <unicode hex="0DAE"/>
  <outline>
    <contour>
      <point x="237.159" y="611.134" type="curve" smooth="yes"/>
      <point x="237.159" y="667.849"/>
      <point x="278.367" y="688.157"/>
      <point x="278.367" y="709.823" type="curve" smooth="yes"/>
      <point x="278.367" y="716.953"/>
      <point x="273.905" y="724.23"/>
      <point x="262.043" y="733" type="curve"/>
      <point x="368.369" y="755" type="line"/>
      <point x="349.147" y="647" type="line"/>
      <point x="332.769" y="639.98"/>
      <point x="323.147" y="621.142"/>
      <point x="323.147" y="605" type="curve" smooth="yes"/>
      <point x="323.147" y="585.998"/>
      <point x="341.159" y="559.628"/>
      <point x="382.369" y="548.854" type="curve" smooth="yes"/>
      <point x="386.703" y="547.722"/>
      <point x="391.294" y="546.762"/>
      <point x="396.147" y="546" type="curve"/>
      <point x="480.369" y="524" type="line"/>
      <point x="413.043" y="461" type="line"/>
      <point x="399.248" y="461.4"/>
      <point x="384.801" y="463.68"/>
      <point x="370.369" y="467.641" type="curve" smooth="yes"/>
      <point x="303.599" y="485.97"/>
      <point x="237.159" y="540.309"/>
    </contour>
    <contour>
      <point x="21.8545" y="252.396" type="curve" smooth="yes"/>
      <point x="21.8545" y="381.537"/>
      <point x="88.8545" y="472"/>
      <point x="186.548" y="472" type="curve" smooth="yes"/>
      <point x="214.314" y="472"/>
      <point x="243.346" y="465.063"/>
      <point x="271.72" y="445.258" type="curve"/>
      <point x="233.854" y="345" type="line"/>
      <point x="220.007" y="352.989"/>
      <point x="207.337" y="356.607"/>
      <point x="195.991" y="356.607" type="curve" smooth="yes"/>
      <point x="155.475" y="356.607"/>
      <point x="131.854" y="310.459"/>
      <point x="131.854" y="252.396" type="curve" smooth="yes"/>
      <point x="131.854" y="189.243"/>
      <point x="159.08" y="115"/>
      <point x="252" y="115" type="curve" smooth="yes"/>
      <point x="356.452" y="115"/>
      <point x="411" y="181.018"/>
      <point x="411" y="340" type="curve" smooth="yes"/>
      <point x="411" y="415.912"/>
      <point x="409.614" y="484.646"/>
      <point x="393.697" y="545" type="curve"/>
      <point x="387.947" y="578.997"/>
      <point x="369.944" y="627.989"/>
      <point x="347.876" y="648" type="curve"/>
      <point x="326.377" y="682.766"/>
      <point x="296.31" y="712.203"/>
      <point x="261.854" y="733" type="curve"/>
      <point x="333.854" y="817" type="line"/>
      <point x="471.854" y="726"/>
      <point x="526" y="555.741"/>
      <point x="526" y="340" type="curve" smooth="yes"/>
      <point x="526" y="104"/>
      <point x="432" y="0"/>
      <point x="252" y="0" type="curve" smooth="yes"/>
      <point x="74" y="0"/>
      <point x="21.8545" y="136.287"/>
    </contour>
  </outline>
</glyph>
<glyph name="si_Sa" format="1">
  <advance width="588"/>
  <unicode hex="0DC3"/>
  <outline>
    <contour>
      <point x="259.374" y="467.354" type="curve" smooth="yes"/>
      <point x="259.374" y="473.071"/>
      <point x="259.938" y="478.329"/>
      <point x="261.189" y="483" type="curve" smooth="yes"/>
      <point x="280.818" y="556.276"/>
      <point x="339.908" y="594"/>
      <point x="402.727" y="594" type="curve" smooth="yes"/>
      <point x="489.286" y="594"/>
      <point x="541.386" y="532.137"/>
      <point x="541.386" y="456.407" type="curve" smooth="yes"/>
      <point x="541.386" y="428.149"/>
      <point x="530.138" y="394.649"/>
      <point x="510" y="369.03" type="curve"/>
      <point x="433.291" y="410.437" type="line"/>
      <point x="441.274" y="419.561"/>
      <point x="447.91" y="439.108"/>
      <point x="447.91" y="451.164" type="curve" smooth="yes"/>
      <point x="447.91" y="475"/>
      <point x="433.697" y="496"/>
      <point x="398.554" y="496" type="curve" smooth="yes"/>
      <point x="375.815" y="496"/>
      <point x="346.989" y="481.03"/>
      <point x="346.989" y="434.342" type="curve" smooth="yes"/>
      <point x="346.989" y="428.679"/>
      <point x="347.492" y="422.242"/>
      <point x="348.554" y="416" type="curve" smooth="yes"/>
      <point x="302.054" y="318.437" type="line"/>
      <point x="289.442" y="359.423"/>
      <point x="259.374" y="425.625"/>
    </contour>
    <contour>
      <point x="144.334" y="207" type="curve" smooth="yes"/>
      <point x="144.334" y="157.265"/>
      <point x="158.522" y="115"/>
      <point x="193.816" y="115" type="curve" smooth="yes"/>
      <point x="240.517" y="115"/>
      <point x="256.447" y="176.75"/>
      <point x="256.447" y="249.5" type="curve"/>
      <point x="347.66" y="249.5" type="line"/>
      <point x="347.66" y="176.75"/>
      <point x="363.591" y="115"/>
      <point x="410.291" y="115" type="curve" smooth="yes"/>
      <point x="445.585" y="115"/>
      <point x="459.773" y="157.265"/>
      <point x="459.773" y="207" type="curve" smooth="yes"/>
      <point x="459.773" y="258.726"/>
      <point x="439.816" y="318"/>
      <point x="399.535" y="318" type="curve" smooth="yes"/>
      <point x="204.572" y="318" type="line" smooth="yes"/>
      <point x="163.816" y="318"/>
      <point x="144.334" y="258.09"/>
    </contour>
    <contour>
      <point x="37.334" y="207" type="curve" smooth="yes"/>
      <point x="37.334" y="248.301"/>
      <point x="48.8164" y="294"/>
      <point x="62.8164" y="319.563" type="curve"/>
      <point x="22" y="319.667" type="line"/>
      <point x="22" y="416" type="line"/>
      <point x="416.816" y="416" type="line" smooth="yes"/>
      <point x="457.816" y="416"/>
      <point x="493.728" y="393.523"/>
      <point x="517.816" y="368.238" type="curve" smooth="yes"/>
      <point x="551.644" y="332.731"/>
      <point x="566.773" y="278.353"/>
      <point x="566.773" y="207" type="curve" smooth="yes"/>
      <point x="566.773" y="95.0957"/>
      <point x="521.904" y="0"/>
      <point x="410.291" y="0" type="curve" smooth="yes"/>
      <point x="357.611" y="0"/>
      <point x="318.199" y="31.6025"/>
      <point x="302.054" y="79.0303" type="curve"/>
      <point x="285.908" y="31.6025"/>
      <point x="246.496" y="0"/>
      <point x="193.816" y="0" type="curve" smooth="yes"/>
      <point x="82.2031" y="0"/>
      <point x="37.334" y="95.0957"/>
    </contour>
    <contour>
      <point x="65.7656" y="461.536" type="curve" smooth="yes"/>
      <point x="65.7656" y="532.132"/>
      <point x="113.766" y="594"/>
      <point x="201.381" y="594" type="curve" smooth="yes"/>
      <point x="264.199" y="594"/>
      <point x="323.292" y="556.277"/>
      <point x="342.918" y="483" type="curve" smooth="yes"/>
      <point x="344.169" y="478.329"/>
      <point x="344.733" y="473.071"/>
      <point x="344.733" y="467.354" type="curve" smooth="yes"/>
      <point x="344.733" y="425.625"/>
      <point x="314.665" y="359.423"/>
      <point x="302.054" y="318.437" type="curve"/>
      <point x="255.554" y="416" type="line" smooth="yes"/>
      <point x="256.615" y="422.253"/>
      <point x="257.118" y="428.669"/>
      <point x="257.118" y="434.342" type="curve" smooth="yes"/>
      <point x="257.118" y="481.03"/>
      <point x="228.292" y="496"/>
      <point x="205.554" y="496" type="curve" smooth="yes"/>
      <point x="173.512" y="496"/>
      <point x="158.611" y="474.293"/>
      <point x="158.611" y="450.723" type="curve" smooth="yes"/>
      <point x="158.611" y="437.757"/>
      <point x="163.12" y="424.227"/>
      <point x="171.766" y="413.437" type="curve"/>
      <point x="96.0547" y="375.437" type="line"/>
      <point x="75.0283" y="403.236"/>
      <point x="65.7656" y="433.095"/>
    </contour>
  </outline>
</glyph>
<glyph name="si_MatraAa" format="1">
  <advance width="266"/>
  <unicode hex="0DCF"/>
  <outline>
    <contour>
      <point x="-16" y="507" type="line"/>
      <point x="10.9131" y="539.675"/>
      <point x="42.6309" y="555.859"/>
      <point x="83" y="555.859" type="curve" smooth="yes"/>
      <point x="165.546" y="555.859"/>
      <point x="255" y="490.185"/>
      <point x="255" y="280.93" type="curve" smooth="yes"/>
      <point x="255" y="71.6748"/>
      <point x="165.546" y="6"/>
      <point x="83" y="6" type="curve" smooth="yes"/>
      <point x="42.6309" y="6"/>
      <point x="10.9131" y="22.1846"/>
      <point x="-16" y="54.8594" type="curve"/>
      <point x="40" y="125.859" type="line"/>
      <point x="48" y="117.859"/>
      <point x="60" y="109.501"/>
      <point x="76" y="109.501" type="curve" smooth="yes"/>
      <point x="106.94" y="109.501"/>
      <point x="140" y="147.975"/>
      <point x="140" y="280.93" type="curve" smooth="yes"/>
      <point x="140" y="413.885"/>
      <point x="106.94" y="452.358"/>
      <point x="76" y="452.358" type="curve" smooth="yes"/>
      <point x="60" y="452.358"/>
      <point x="48" y="444"/>
      <point x="40" y="436" type="curve"/>
    </contour>
  </outline>
</glyph>
<glyph name="si_MatraI" format="1">
  <advance width="0"/>
  <unicode hex="0DD2"/>
  <outline>
    <contour>
      <point x="-520" y="661" type="curve" smooth="yes"/>
      <point x="-520" y="806"/>
      <point x="-398" y="866"/>
      <point x="-260" y="866" type="curve" smooth="yes"/>
      <point x="-122" y="866"/>
      <point x="0" y="806"/>
      <point x="0" y="661" type="curve" smooth="yes"/>
      <point x="0" y="598"/>
      <point x="-39" y="527"/>
      <point x="-102" y="503" type="curve"/>
      <point x="-182.929" y="503" type="line"/>
      <point x="-183" y="559" type="line"/>
      <point x="-126.882" y="581"/>
      <point x="-111" y="619"/>
      <point x="-111" y="661" type="curve" smooth="yes"/>
      <point x="-111" y="717.766"/>
      <point x="-168.777" y="753"/>
      <point x="-260" y="753" type="curve" smooth="yes"/>
      <point x="-351.222" y="753"/>
      <point x="-409" y="716.787"/>
      <point x="-409" y="661" type="curve" smooth="yes"/>
      <point x="-409" y="619"/>
      <point x="-393.117" y="581"/>
      <point x="-337" y="559" type="curve"/>
      <point x="-336.929" y="503" type="line"/>
      <point x="-418" y="503" type="line"/>
      <point x="-481" y="527"/>
      <point x="-520" y="598"/>
    </contour>
  </outline>
</glyph>
<glyph name="si_MatraLs" format="1">
  <advance width="345"/>
  <unicode hex="0DDF"/>
  <outline>
    <contour>
      <point x="12" y="349.004" type="curve" smooth="yes"/>
      <point x="12" y="459.004"/>
      <point x="55.8154" y="512.004"/>
      <point x="149.815" y="512.004" type="curve"/>
      <point x="149.815" y="435.004" type="line"/>
      <point x="119.815" y="435.004"/>
      <point x="94" y="408.004"/>
      <point x="94" y="365" type="curve" smooth="yes"/>
      <point x="94" y="340"/>
      <point x="96.7031" y="325"/>
      <point x="112" y="325" type="curve" smooth="yes"/>
      <point x="140.815" y="325"/>
      <point x="94.8154" y="416"/>
      <point x="197.815" y="416" type="curve" smooth="yes"/>
      <point x="292.815" y="416"/>
      <point x="316" y="293.564"/>
      <point x="316" y="221.996" type="curve" smooth="yes"/>
      <point x="316" y="78.3555"/>
      <point x="265.146" y="0"/>
      <point x="179.815" y="0" type="curve" smooth="yes"/>
      <point x="106.815" y="0"/>
      <point x="78.8154" y="40"/>
      <point x="67.8154" y="54" type="curve"/>
      <point x="129.815" y="112" type="line"/>
      <point x="138.815" y="103"/>
      <point x="142.815" y="93.5107"/>
      <point x="163.815" y="93.5107" type="curve" smooth="yes"/>
      <point x="194.815" y="93.5107"/>
      <point x="213.841" y="146.382"/>
      <point x="213.841" y="221.996" type="curve" smooth="yes"/>
      <point x="213.841" y="270.996"/>
      <point x="212.815" y="309.996"/>
      <point x="191.815" y="309.996" type="curve" smooth="yes"/>
      <point x="156.631" y="309.996"/>
      <point x="195.815" y="233"/>
      <point x="102.815" y="233" type="curve" smooth="yes"/>
      <point x="27.8154" y="233"/>
      <point x="12" y="295.004"/>
    </contour>
  </outline>
</glyph>
<glyph name="si_MatraRr" format="1">
  <advance width="650"/>
  <unicode hex="0DF2"/>
  <outline>
    <contour>
      <point x="0" y="143" type="curve" smooth="yes"/>
      <point x="0" y="256.62"/>
      <point x="61.6152" y="292.603"/>
      <point x="114.138" y="292.603" type="curve" smooth="yes"/>
      <point x="141.63" y="292.603"/>
      <point x="166.631" y="282.743"/>
      <point x="179" y="269" type="curve"/>
      <point x="165" y="192" type="line"/>
      <point x="157.439" y="197.021"/>
      <point x="144.178" y="201.976"/>
      <point x="130.95" y="201.976" type="curve" smooth="yes"/>
      <point x="110.937" y="201.976"/>
      <point x="91" y="190.632"/>
      <point x="91" y="151" type="curve" smooth="yes"/>
      <point x="91" y="101.738"/>
      <point x="112.509" y="89.7637"/>
      <point x="133.705" y="89.7637" type="curve" smooth="yes"/>
      <point x="141.548" y="89.7637"/>
      <point x="149.348" y="91.4033"/>
      <point x="156" y="93.4004" type="curve" smooth="yes"/>
      <point x="162.382" y="95.3154"/>
      <point x="167.707" y="97.5596"/>
      <point x="171" y="99" type="curve"/>
      <point x="218" y="0" type="line"/>
      <point x="206.371" y="13.0381"/>
      <point x="194.494" y="17.2598"/>
      <point x="181.888" y="17.2598" type="curve" smooth="yes"/>
      <point x="158.719" y="17.2598"/>
      <point x="133.086" y="3"/>
      <point x="102" y="3" type="curve" smooth="yes"/>
      <point x="26" y="3"/>
      <point x="0" y="90"/>
    </contour>
    <contour>
      <point x="8" y="367" type="line" smooth="yes"/>
      <point x="7.00098" y="379.28"/>
      <point x="6.50391" y="390.916"/>
      <point x="6.50391" y="401.917" type="curve" smooth="yes"/>
      <point x="6.50391" y="505.582"/>
      <point x="50.6387" y="552.93"/>
      <point x="135" y="552.93" type="curve" smooth="yes"/>
      <point x="220.813" y="552.93"/>
      <point x="262.965" y="509.858"/>
      <point x="262.965" y="397.941" type="curve" smooth="yes"/>
      <point x="262.965" y="322.785"/>
      <point x="248.709" y="247.06"/>
      <point x="248.709" y="183.678" type="curve" smooth="yes"/>
      <point x="248.709" y="131.896"/>
      <point x="256.827" y="84.9717"/>
      <point x="285" y="43" type="curve"/>
      <point x="218" y="0" type="line"/>
      <point x="166.742" y="63.6494"/>
      <point x="151.678" y="113.988"/>
      <point x="151.678" y="178.513" type="curve" smooth="yes"/>
      <point x="151.678" y="232.04"/>
      <point x="171.059" y="319.246"/>
      <point x="171.059" y="400.967" type="curve" smooth="yes"/>
      <point x="171.059" y="435.521"/>
      <point x="162.098" y="455"/>
      <point x="135" y="455" type="curve" smooth="yes"/>
      <point x="107.976" y="455"/>
      <point x="98.8369" y="435.611"/>
      <point x="98.8369" y="401.237" type="curve" smooth="yes"/>
      <point x="98.8369" y="391.093"/>
      <point x="99.6328" y="379.643"/>
      <point x="101" y="367" type="curve" smooth="yes"/>
    </contour>
    <contour>
      <point x="294" y="143" type="curve" smooth="yes"/>
      <point x="294" y="256.62"/>
      <point x="355.615" y="292.603"/>
      <point x="408.138" y="292.603" type="curve" smooth="yes"/>
      <point x="435.63" y="292.603"/>
      <point x="460.631" y="282.743"/>
      <point x="473" y="269" type="curve"/>
      <point x="459" y="192" type="line"/>
      <point x="451.439" y="197.021"/>
      <point x="438.178" y="201.976"/>
      <point x="424.95" y="201.976" type="curve" smooth="yes"/>
      <point x="404.937" y="201.976"/>
      <point x="385" y="190.632"/>
      <point x="385" y="151" type="curve" smooth="yes"/>
      <point x="385" y="101.738"/>
      <point x="406.509" y="89.7637"/>
      <point x="427.705" y="89.7637" type="curve" smooth="yes"/>
      <point x="435.548" y="89.7637"/>
      <point x="443.348" y="91.4033"/>
      <point x="450" y="93.4004" type="curve" smooth="yes"/>
      <point x="456.382" y="95.3154"/>
      <point x="461.707" y="97.5596"/>
      <point x="465" y="99" type="curve"/>
      <point x="512" y="0" type="line"/>
      <point x="500.371" y="13.0381"/>
      <point x="488.494" y="17.2598"/>
      <point x="475.888" y="17.2598" type="curve" smooth="yes"/>
      <point x="452.719" y="17.2598"/>
      <point x="427.086" y="3"/>
      <point x="396" y="3" type="curve" smooth="yes"/>
      <point x="320" y="3"/>
      <point x="294" y="90"/>
    </contour>
    <contour>
      <point x="302" y="367" type="line" smooth="yes"/>
      <point x="301.001" y="379.28"/>
      <point x="300.504" y="390.916"/>
      <point x="300.504" y="401.917" type="curve" smooth="yes"/>
      <point x="300.504" y="505.582"/>
      <point x="344.639" y="552.93"/>
      <point x="429" y="552.93" type="curve" smooth="yes"/>
      <point x="514.813" y="552.93"/>
      <point x="556.965" y="509.858"/>
      <point x="556.965" y="397.941" type="curve" smooth="yes"/>
      <point x="556.965" y="322.785"/>
      <point x="542.709" y="247.06"/>
      <point x="542.709" y="183.678" type="curve" smooth="yes"/>
      <point x="542.709" y="131.896"/>
      <point x="550.827" y="84.9717"/>
      <point x="579" y="43" type="curve"/>
      <point x="512" y="0" type="line"/>
      <point x="460.742" y="63.6494"/>
      <point x="445.678" y="113.988"/>
      <point x="445.678" y="178.513" type="curve" smooth="yes"/>
      <point x="445.678" y="232.04"/>
      <point x="465.059" y="319.246"/>
      <point x="465.059" y="400.967" type="curve" smooth="yes"/>
      <point x="465.059" y="435.521"/>
      <point x="456.098" y="455"/>
      <point x="429" y="455" type="curve" smooth="yes"/>
      <point x="401.976" y="455"/>
      <point x="392.837" y="435.611"/>
      <point x="392.837" y="401.237" type="curve" smooth="yes"/>
      <point x="392.837" y="391.093"/>
      <point x="393.633" y="379.643"/>
      <point x="395" y="367" type="curve" smooth="yes"/>
    </contour>
  </outline>
</glyph>
<glyph name="si_kundaliya" format="1">
  <advance width="2041"/>
  <unicode hex="0DF4"/>
  <outline>
    <contour>
      <point x="1505.51" y="128.264" type="curve" smooth="yes"/>
      <point x="1505.51" y="136.311"/>
      <point x="1506.32" y="144.573"/>
      <point x="1508.06" y="153" type="curve" smooth="yes"/>
      <point x="1542.06" y="318" type="line"/>
      <point x="1657" y="318" type="line"/>
      <point x="1631" y="172" type="line" smooth="yes"/>
      <point x="1629.83" y="165.455"/>
      <point x="1629.14" y="158.915"/>
      <point x="1629.14" y="152.613" type="curve" smooth="yes"/>
      <point x="1629.14" y="125.629"/>
      <point x="1641.88" y="103"/>
      <point x="1685" y="103" type="curve" smooth="yes"/>
      <point x="1864" y="103" type="line" smooth="yes"/>
      <point x="1886.02" y="103"/>
      <point x="1895.73" y="113.896"/>
      <point x="1895.73" y="137.642" type="curve" smooth="yes"/>
      <point x="1895.73" y="141.992"/>
      <point x="1895.41" y="146.774"/>
      <point x="1894.77" y="152" type="curve"/>
      <point x="2000.92" y="164" type="line"/>
      <point x="2005.68" y="140.081"/>
      <point x="2007.94" y="119.31"/>
      <point x="2007.94" y="101.358" type="curve" smooth="yes"/>
      <point x="2007.94" y="25.5215"/>
      <point x="1967.57" y="-7.66204e-15"/>
      <point x="1905" y="0" type="curve" smooth="yes"/>
      <point x="1627.06" y="0" type="line" smooth="yes"/>
      <point x="1572.6" y="0"/>
      <point x="1505.51" y="55.2544"/>
    </contour>
    <contour>
      <point x="1371.06" y="192" type="line"/>
      <point x="1445.06" y="242" type="line"/>
      <point x="1460.26" y="269.739"/>
      <point x="1529.61" y="255.392"/>
      <point x="1540.06" y="308" type="curve"/>
      <point x="1589.06" y="264" type="line"/>
      <point x="1515.06" y="184" type="line"/>
      <point x="1498.15" y="175"/>
      <point x="1435.85" y="177"/>
      <point x="1426.06" y="115" type="curve"/>
    </contour>
    <contour>
      <point x="1310.06" y="110" type="line"/>
      <point x="1388.06" y="461" type="line"/>
      <point x="1503.06" y="461" type="line"/>
      <point x="1425.06" y="110" type="line"/>
    </contour>
    <contour>
      <point x="1209.06" y="340" type="line"/>
      <point x="1283.06" y="390" type="line"/>
      <point x="1299.7" y="417.739"/>
      <point x="1375.62" y="403.392"/>
      <point x="1387.06" y="456" type="curve"/>
      <point x="1436.06" y="412" type="line"/>
      <point x="1360.06" y="332" type="line"/>
      <point x="1341.82" y="323"/>
      <point x="1274.62" y="325"/>
      <point x="1264.06" y="263" type="curve"/>
    </contour>
    <contour>
      <point x="1137.06" y="204" type="line"/>
      <point x="1231.06" y="635" type="line"/>
      <point x="1346.06" y="635" type="line"/>
      <point x="1252.06" y="204" type="line"/>
    </contour>
    <contour>
      <point x="1042.06" y="486" type="line"/>
      <point x="1116.06" y="536" type="line"/>
      <point x="1133.34" y="563.739"/>
      <point x="1212.18" y="549.392"/>
      <point x="1224.06" y="602" type="curve"/>
      <point x="1273.06" y="558" type="line"/>
      <point x="1197.06" y="478" type="line"/>
      <point x="1178.06" y="469"/>
      <point x="1108.06" y="471"/>
      <point x="1097.06" y="409" type="curve"/>
    </contour>
    <contour>
      <point x="954.057" y="274" type="line"/>
      <point x="1052.06" y="720" type="line"/>
      <point x="1167.06" y="720" type="line"/>
      <point x="1069.06" y="274" type="line"/>
    </contour>
    <contour>
      <point x="841.057" y="593" type="line"/>
      <point x="949.057" y="593" type="line"/>
      <point x="944.907" y="577.962"/>
      <point x="943.057" y="564.73"/>
      <point x="943.057" y="553" type="curve" smooth="yes"/>
      <point x="943.057" y="520.496"/>
      <point x="980.622" y="511.633"/>
      <point x="1004.06" y="499" type="curve"/>
      <point x="1035.06" y="421" type="line"/>
      <point x="977.057" y="378" type="line"/>
      <point x="977.742" y="382.183"/>
      <point x="978.063" y="385.989"/>
      <point x="978.063" y="389.466" type="curve" smooth="yes"/>
      <point x="978.063" y="436.713"/>
      <point x="918.7" y="422.826"/>
      <point x="907.057" y="459" type="curve"/>
    </contour>
    <contour>
      <point x="746.057" y="185" type="line"/>
      <point x="839.057" y="615" type="line"/>
      <point x="954.057" y="615" type="line"/>
      <point x="861.057" y="185" type="line"/>
    </contour>
    <contour>
      <point x="622.057" y="454" type="line"/>
      <point x="730.057" y="454" type="line"/>
      <point x="725.907" y="438.962"/>
      <point x="724.057" y="425.73"/>
      <point x="724.057" y="414" type="curve" smooth="yes"/>
      <point x="724.057" y="381.496"/>
      <point x="761.622" y="372.633"/>
      <point x="785.057" y="360" type="curve"/>
      <point x="816.057" y="282" type="line"/>
      <point x="758.057" y="239" type="line"/>
      <point x="758.742" y="243.183"/>
      <point x="759.063" y="246.989"/>
      <point x="759.063" y="250.466" type="curve" smooth="yes"/>
      <point x="759.063" y="297.713"/>
      <point x="699.7" y="283.826"/>
      <point x="688.057" y="320" type="curve"/>
    </contour>
    <contour>
      <point x="530.057" y="53" type="line"/>
      <point x="621.057" y="470" type="line"/>
      <point x="736.057" y="470" type="line"/>
      <point x="645.057" y="53" type="line"/>
    </contour>
    <contour>
      <point x="402.057" y="303" type="line"/>
      <point x="510.057" y="303" type="line"/>
      <point x="505.907" y="287.962"/>
      <point x="504.057" y="274.73"/>
      <point x="504.057" y="263" type="curve" smooth="yes"/>
      <point x="504.057" y="230.496"/>
      <point x="541.622" y="221.633"/>
      <point x="565.057" y="209" type="curve"/>
      <point x="596.057" y="131" type="line"/>
      <point x="538.057" y="88" type="line"/>
      <point x="538.742" y="92.1826"/>
      <point x="539.063" y="95.9893"/>
      <point x="539.063" y="99.4658" type="curve" smooth="yes"/>
      <point x="539.063" y="146.713"/>
      <point x="479.7" y="132.826"/>
      <point x="468.057" y="169" type="curve"/>
    </contour>
    <contour>
      <point x="22.1133" y="101.358" type="curve" smooth="yes"/>
      <point x="22.1133" y="119.31"/>
      <point x="24.376" y="140.081"/>
      <point x="29.1416" y="164" type="curve"/>
      <point x="135.286" y="152" type="line"/>
      <point x="134.65" y="146.774"/>
      <point x="134.324" y="141.992"/>
      <point x="134.324" y="137.642" type="curve" smooth="yes"/>
      <point x="134.324" y="113.896"/>
      <point x="144.032" y="103"/>
      <point x="166.057" y="103" type="curve" smooth="yes"/>
      <point x="264.057" y="103" type="line" smooth="yes"/>
      <point x="340.913" y="103"/>
      <point x="365" y="153"/>
      <point x="382.887" y="234" type="curve" smooth="yes"/>
      <point x="401.057" y="318" type="line"/>
      <point x="515.057" y="318" type="line"/>
      <point x="494.712" y="222" type="line" smooth="yes"/>
      <point x="461.047" y="76.3113"/>
      <point x="422.915" y="0"/>
      <point x="303.057" y="0" type="curve" smooth="yes"/>
      <point x="125.057" y="0" type="line" smooth="yes"/>
      <point x="62.4893" y="0"/>
      <point x="22.1133" y="25.5215"/>
    </contour>
  </outline>
</glyph>
<glyph name="dottedcircle" format="1">
  <advance width="689"/>
  <unicode hex="25CC"/>
  <outline>
    <contour>
      <point x="56.7881" y="165.87" type="curve" smooth="yes"/>
      <point x="56.7881" y="199.121"/>
      <point x="84.0371" y="226.37"/>
      <point x="117.288" y="226.37" type="curve" smooth="yes"/>
      <point x="150.539" y="226.37"/>
      <point x="177.788" y="199.121"/>
      <point x="177.788" y="165.87" type="curve" smooth="yes"/>
      <point x="177.788" y="132.619"/>
      <point x="150.539" y="105.37"/>
      <point x="117.288" y="105.37" type="curve" smooth="yes"/>
      <point x="84.0371" y="105.37"/>
      <point x="56.7881" y="132.619"/>
    </contour>
    <contour>
      <point x="153.313" y="69.9717" type="curve" smooth="yes"/>
      <point x="153.313" y="103.223"/>
      <point x="180.562" y="130.472"/>
      <point x="213.813" y="130.472" type="curve" smooth="yes"/>
      <point x="247.064" y="130.472"/>
      <point x="274.313" y="103.223"/>
      <point x="274.313" y="69.9717" type="curve" smooth="yes"/>
      <point x="274.313" y="36.7207"/>
      <point x="247.064" y="9.47168"/>
      <point x="213.813" y="9.47168" type="curve" smooth="yes"/>
      <point x="180.562" y="9.47168"/>
      <point x="153.313" y="36.7207"/>
    </contour>
    <contour>
      <point x="511.212" y="165.87" type="curve" smooth="yes"/>
      <point x="511.212" y="199.121"/>
      <point x="538.461" y="226.37"/>
      <point x="571.712" y="226.37" type="curve" smooth="yes"/>
      <point x="604.963" y="226.37"/>
      <point x="632.212" y="199.121"/>
      <point x="632.212" y="165.87" type="curve" smooth="yes"/>
      <point x="632.212" y="132.619"/>
      <point x="604.963" y="105.37"/>
      <point x="571.712" y="105.37" type="curve" smooth="yes"/>
      <point x="538.461" y="105.37"/>
      <point x="511.212" y="132.619"/>
    </contour>
    <contour>
      <point x="414.687" y="69.9717" type="curve" smooth="yes"/>
      <point x="414.687" y="103.223"/>
      <point x="441.936" y="130.472"/>
      <point x="475.187" y="130.472" type="curve" smooth="yes"/>
      <point x="508.438" y="130.472"/>
      <point x="535.687" y="103.223"/>
      <point x="535.687" y="69.9717" type="curve" smooth="yes"/>
      <point x="535.687" y="36.7207"/>
      <point x="508.438" y="9.47168"/>
      <point x="475.187" y="9.47168" type="curve" smooth="yes"/>
      <point x="441.936" y="9.47168"/>
      <point x="414.687" y="36.7207"/>
    </contour>
    <contour>
      <point x="56.7881" y="428.13" type="curve" smooth="yes"/>
      <point x="56.7881" y="461.381"/>
      <point x="84.0371" y="488.63"/>
      <point x="117.288" y="488.63" type="curve" smooth="yes"/>
      <point x="150.539" y="488.63"/>
      <point x="177.788" y="461.381"/>
      <point x="177.788" y="428.13" type="curve" smooth="yes"/>
      <point x="177.788" y="394.879"/>
      <point x="150.539" y="367.63"/>
      <point x="117.288" y="367.63" type="curve" smooth="yes"/>
      <point x="84.0371" y="367.63"/>
      <point x="56.7881" y="394.879"/>
    </contour>
    <contour>
      <point x="153.313" y="524.028" type="curve" smooth="yes"/>
      <point x="153.313" y="557.279"/>
      <point x="180.562" y="584.528"/>
      <point x="213.813" y="584.528" type="curve" smooth="yes"/>
      <point x="247.064" y="584.528"/>
      <point x="274.313" y="557.279"/>
      <point x="274.313" y="524.028" type="curve" smooth="yes"/>
      <point x="274.313" y="490.777"/>
      <point x="247.064" y="463.528"/>
      <point x="213.813" y="463.528" type="curve" smooth="yes"/>
      <point x="180.562" y="463.528"/>
      <point x="153.313" y="490.777"/>
    </contour>
    <contour>
      <point x="511.212" y="428.13" type="curve" smooth="yes"/>
      <point x="511.212" y="461.381"/>
      <point x="538.461" y="488.63"/>
      <point x="571.712" y="488.63" type="curve" smooth="yes"/>
      <point x="604.963" y="488.63"/>
      <point x="632.212" y="461.381"/>
      <point x="632.212" y="428.13" type="curve" smooth="yes"/>
      <point x="632.212" y="394.879"/>
      <point x="604.963" y="367.63"/>
      <point x="571.712" y="367.63" type="curve" smooth="yes"/>
      <point x="538.461" y="367.63"/>
      <point x="511.212" y="394.879"/>
    </contour>
    <contour>
      <point x="414.687" y="524.028" type="curve" smooth="yes"/>
      <point x="414.687" y="557.279"/>
      <point x="441.936" y="584.528"/>
      <point x="475.187" y="584.528" type="curve" smooth="yes"/>
      <point x="508.438" y="584.528"/>
      <point x="535.687" y="557.279"/>
      <point x="535.687" y="524.028" type="curve" smooth="yes"/>
      <point x="535.687" y="490.777"/>
      <point x="508.438" y="463.528"/>
      <point x="475.187" y="463.528" type="curve" smooth="yes"/>
      <point x="441.936" y="463.528"/>
      <point x="414.687" y="490.777"/>
    </contour>
    <contour>
      <point x="22" y="297" type="curve" smooth="yes"/>
      <point x="22" y="330.251"/>
      <point x="49.249" y="357.5"/>
      <point x="82.5" y="357.5" type="curve" smooth="yes"/>
      <point x="115.751" y="357.5"/>
      <point x="143" y="330.251"/>
      <point x="143" y="297" type="curve" smooth="yes"/>
      <point x="143" y="263.749"/>
      <point x="115.751" y="236.5"/>
      <point x="82.5" y="236.5" type="curve" smooth="yes"/>
      <point x="49.249" y="236.5"/>
      <point x="22" y="263.749"/>
    </contour>
    <contour>
      <point x="546" y="297" type="curve" smooth="yes"/>
      <point x="546" y="330.251"/>
      <point x="573.249" y="357.5"/>
      <point x="606.5" y="357.5" type="curve" smooth="yes"/>
      <point x="639.751" y="357.5"/>
      <point x="667" y="330.251"/>
      <point x="667" y="297" type="curve" smooth="yes"/>
      <point x="667" y="263.749"/>
      <point x="639.751" y="236.5"/>
      <point x="606.5" y="236.5" type="curve" smooth="yes"/>
      <point x="573.249" y="236.5"/>
      <point x="546" y="263.749"/>
    </contour>
    <contour>
      <point x="284" y="559" type="curve" smooth="yes"/>
      <point x="284" y="592.251"/>
      <point x="311.249" y="619.5"/>
      <point x="344.5" y="619.5" type="curve" smooth="yes"/>
      <point x="377.751" y="619.5"/>
      <point x="405" y="592.251"/>
      <point x="405" y="559" type="curve" smooth="yes"/>
      <point x="405" y="525.749"/>
      <point x="377.751" y="498.5"/>
      <point x="344.5" y="498.5" type="curve" smooth="yes"/>
      <point x="311.249" y="498.5"/>
      <point x="284" y="525.749"/>
    </contour>
    <contour>
      <point x="284" y="35" type="curve" smooth="yes"/>
      <point x="284" y="68.251"/>
      <point x="311.249" y="95.5"/>
      <point x="344.5" y="95.5" type="curve" smooth="yes"/>
      <point x="377.751" y="95.5"/>
      <point x="405" y="68.251"/>
      <point x="405" y="35" type="curve" smooth="yes"/>
      <point x="405" y="1.74902"/>
      <point x="377.751" y="-25.5"/>
      <point x="344.5" y="-25.5" type="curve" smooth="yes"/>
      <point x="311.249" y="-25.5"/>
      <point x="284" y="1.74902"/>
    </contour>
  </outline>
</glyph>
<glyph name="si_BU" format="1">
  <advance width="575"/>
  <outline>
    <contour>
      <point x="37.9717" y="-103.642" type="curve" smooth="yes"/>
      <point x="37.9717" y="-85.6904"/>
      <point x="40.2344" y="-64.9189"/>
      <point x="45" y="-41" type="curve"/>
      <point x="149.915" y="-53" type="line"/>
      <point x="148.593" y="-61.0067"/>
      <point x="147.915" y="-68.334"/>
      <point x="147.915" y="-75" type="curve" smooth="yes"/>
      <point x="147.915" y="-90.766"/>
      <point x="156.175" y="-98"/>
      <point x="174.915" y="-98" type="curve" smooth="yes"/>
      <point x="426" y="-98" type="line"/>
      <point x="426" y="-205" type="line"/>
      <point x="140.915" y="-205" type="line" smooth="yes"/>
      <point x="78.3477" y="-205"/>
      <point x="37.9717" y="-179.479"/>
    </contour>
    <contour>
      <point x="418" y="64" type="line"/>
      <point x="447" y="172" type="line"/>
      <point x="525" y="225" type="line"/>
      <point x="525" y="-205" type="line"/>
      <point x="418" y="-205" type="line"/>
    </contour>
    <contour>
      <point x="22" y="220" type="curve" smooth="yes"/>
      <point x="22" y="425.89"/>
      <point x="98" y="488.874"/>
      <point x="202.186" y="488.874" type="curve" smooth="yes"/>
      <point x="309.691" y="488.874"/>
      <point x="371.125" y="430"/>
      <point x="371.125" y="324" type="curve" smooth="yes"/>
      <point x="371.125" y="251"/>
      <point x="320.483" y="228"/>
      <point x="320.483" y="177" type="curve" smooth="yes"/>
      <point x="320.483" y="142.758"/>
      <point x="333.728" y="115"/>
      <point x="360" y="115" type="curve" smooth="yes"/>
      <point x="412.212" y="115"/>
      <point x="439.24" y="190"/>
      <point x="439.24" y="293" type="curve" smooth="yes"/>
      <point x="439.24" y="522.797"/>
      <point x="396.24" y="639.885"/>
      <point x="258.24" y="639.885" type="curve" smooth="yes"/>
      <point x="217.137" y="639.885"/>
      <point x="169.478" y="618.96"/>
      <point x="152.422" y="576.855" type="curve"/>
      <point x="43.3896" y="613.029" type="line"/>
      <point x="79.374" y="707.868"/>
      <point x="171.52" y="755"/>
      <point x="258.24" y="755" type="curve" smooth="yes"/>
      <point x="475.24" y="755"/>
      <point x="555.576" y="599.053"/>
      <point x="554.24" y="293" type="curve" smooth="yes"/>
      <point x="553.756" y="181.996"/>
      <point x="521.881" y="0"/>
      <point x="364.125" y="0" type="curve" smooth="yes"/>
      <point x="239.822" y="0"/>
      <point x="211.587" y="87.4053"/>
      <point x="211.587" y="177" type="curve" smooth="yes"/>
      <point x="211.587" y="237"/>
      <point x="259.125" y="264"/>
      <point x="259.125" y="324" type="curve" smooth="yes"/>
      <point x="259.125" y="354"/>
      <point x="243.691" y="376.433"/>
      <point x="201" y="376.433" type="curve" smooth="yes"/>
      <point x="161.173" y="376.433"/>
      <point x="132" y="339.788"/>
      <point x="132" y="220" type="curve" smooth="yes"/>
      <point x="132" y="128"/>
      <point x="150" y="110"/>
      <point x="171" y="110" type="curve" smooth="yes"/>
      <point x="191" y="110"/>
      <point x="208" y="120"/>
      <point x="224" y="156" type="curve"/>
      <point x="280" y="73" type="line"/>
      <point x="251" y="28"/>
      <point x="223.479" y="0"/>
      <point x="171" y="0" type="curve" smooth="yes"/>
      <point x="66" y="0"/>
      <point x="22" y="79"/>
    </contour>
  </outline>
</glyph>
<glyph name="si_BUu" format="1">
  <advance width="575"/>
  <outline>
    <contour>
      <point x="56.0566" y="-103.642" type="curve" smooth="yes"/>
      <point x="56.0566" y="-85.9404"/>
      <point x="58.2568" y="-65.499"/>
      <point x="62.8867" y="-42" type="curve"/>
      <point x="166.549" y="-57" type="line"/>
      <point x="165.524" y="-63.2686"/>
      <point x="165.053" y="-68.7656"/>
      <point x="165.053" y="-73.5605" type="curve" smooth="yes"/>
      <point x="165.053" y="-89.9072"/>
      <point x="173.976" y="-95.8369"/>
      <point x="185" y="-95.8369" type="curve" smooth="yes"/>
      <point x="226.025" y="-95.8369"/>
      <point x="272" y="-53"/>
      <point x="357.426" y="-53" type="curve" smooth="yes"/>
      <point x="377.608" y="-53"/>
      <point x="402.171" y="-61.2615"/>
      <point x="418" y="-74" type="curve"/>
      <point x="418" y="-205" type="line"/>
      <point x="399.278" y="-169.666"/>
      <point x="372.603" y="-157.889"/>
      <point x="341.889" y="-157.889" type="curve" smooth="yes"/>
      <point x="286.111" y="-157.889"/>
      <point x="215.667" y="-205"/>
      <point x="159" y="-205" type="curve" smooth="yes"/>
      <point x="96.4326" y="-205"/>
      <point x="56.0566" y="-179.479"/>
    </contour>
    <contour>
      <point x="418" y="64" type="line"/>
      <point x="481" y="173" type="line"/>
      <point x="525" y="225" type="line"/>
      <point x="525" y="-205" type="line"/>
      <point x="418" y="-205" type="line"/>
    </contour>
    <contour>
      <point x="22" y="220" type="curve" smooth="yes"/>
      <point x="22" y="425.89"/>
      <point x="98" y="488.874"/>
      <point x="202.186" y="488.874" type="curve" smooth="yes"/>
      <point x="309.691" y="488.874"/>
      <point x="371.125" y="430"/>
      <point x="371.125" y="324" type="curve" smooth="yes"/>
      <point x="371.125" y="251"/>
      <point x="320.483" y="228"/>
      <point x="320.483" y="177" type="curve" smooth="yes"/>
      <point x="320.483" y="142.758"/>
      <point x="333.728" y="115"/>
      <point x="360" y="115" type="curve" smooth="yes"/>
      <point x="412.212" y="115"/>
      <point x="439.24" y="190"/>
      <point x="439.24" y="293" type="curve" smooth="yes"/>
      <point x="439.24" y="522.797"/>
      <point x="396.24" y="639.885"/>
      <point x="258.24" y="639.885" type="curve" smooth="yes"/>
      <point x="217.137" y="639.885"/>
      <point x="169.478" y="618.96"/>
      <point x="152.422" y="576.855" type="curve"/>
      <point x="43.3896" y="613.029" type="line"/>
      <point x="79.374" y="707.868"/>
      <point x="171.52" y="755"/>
      <point x="258.24" y="755" type="curve" smooth="yes"/>
      <point x="475.24" y="755"/>
      <point x="555.576" y="599.053"/>
      <point x="554.24" y="293" type="curve" smooth="yes"/>
      <point x="553.756" y="181.996"/>
      <point x="521.881" y="0"/>
      <point x="364.125" y="0" type="curve" smooth="yes"/>
      <point x="239.822" y="0"/>
      <point x="211.587" y="87.4053"/>
      <point x="211.587" y="177" type="curve" smooth="yes"/>
      <point x="211.587" y="237"/>
      <point x="259.125" y="264"/>
      <point x="259.125" y="324" type="curve" smooth="yes"/>
      <point x="259.125" y="354"/>
      <point x="243.691" y="376.433"/>
      <point x="201" y="376.433" type="curve" smooth="yes"/>
      <point x="161.173" y="376.433"/>
      <point x="132" y="339.788"/>
      <point x="132" y="220" type="curve" smooth="yes"/>
      <point x="132" y="128"/>
      <point x="150" y="110"/>
      <point x="171" y="110" type="curve" smooth="yes"/>
      <point x="191" y="110"/>
      <point x="208" y="120"/>
      <point x="224" y="156" type="curve"/>
      <point x="280" y="73" type="line"/>
      <point x="251" y="28"/>
      <point x="223.479" y="0"/>
      <point x="171" y="0" type="curve" smooth="yes"/>
      <point x="66" y="0"/>
      <point x="22" y="79"/>
    </contour>
  </outline>
</glyph>
<glyph name="si_Ba.reph" format="1">
  <advance width="575"/>
  <outline>
    <contour>
      <point x="110.295" y="706.572" type="curve" smooth="yes"/>
      <point x="110.295" y="776.741"/>
      <point x="161.818" y="848.83"/>
      <point x="273.002" y="848.83" type="curve" smooth="yes"/>
      <point x="375.321" y="848.83"/>
      <point x="453.002" y="782.337"/>
      <point x="453.002" y="673" type="curve" smooth="yes"/>
      <point x="453.002" y="630.604"/>
      <point x="423.021" y="557.011"/>
      <point x="367.002" y="530" type="curve"/>
      <point x="317.002" y="594" type="line"/>
      <point x="352.002" y="615.392"/>
      <point x="360.002" y="652"/>
      <point x="360.002" y="676" type="curve" smooth="yes"/>
      <point x="360.002" y="733.027"/>
      <point x="325.738" y="772"/>
      <point x="267.002" y="772" type="curve" smooth="yes"/>
      <point x="220.713" y="772"/>
      <point x="184.002" y="747.116"/>
      <point x="184.002" y="706.83" type="curve" smooth="yes"/>
      <point x="184.002" y="687.128"/>
      <point x="191.864" y="667.244"/>
      <point x="207.002" y="656.83" type="curve"/>
      <point x="281.337" y="618.53" type="line"/>
      <point x="181.24" y="587" type="line"/>
      <point x="128.24" y="607"/>
      <point x="110.295" y="652.682"/>
    </contour>
    <contour>
      <point x="192.053" y="685.258" type="curve" smooth="yes"/>
      <point x="192.053" y="668.959"/>
      <point x="204.969" y="655.83"/>
      <point x="221.002" y="655.83" type="curve" smooth="yes"/>
      <point x="237.035" y="655.83"/>
      <point x="249.951" y="668.959"/>
      <point x="249.951" y="685.258" type="curve" smooth="yes"/>
      <point x="249.951" y="701.557"/>
      <point x="237.035" y="714.687"/>
      <point x="221.002" y="714.687" type="curve" smooth="yes"/>
      <point x="204.969" y="714.687"/>
      <point x="192.053" y="701.557"/>
    </contour>
    <contour>
      <point x="114.002" y="685" type="curve" smooth="yes"/>
      <point x="114.002" y="741"/>
      <point x="181.313" y="768.567"/>
      <point x="237.884" y="768.567" type="curve" smooth="yes"/>
      <point x="289.045" y="768.567"/>
      <point x="330.484" y="731.924"/>
      <point x="330.484" y="685" type="curve" smooth="yes"/>
      <point x="330.484" y="626.291"/>
      <point x="281.638" y="579"/>
      <point x="221.002" y="579" type="curve" smooth="yes"/>
      <point x="161.74" y="579"/>
      <point x="114.002" y="626.291"/>
    </contour>
    <contour>
      <point x="44.002" y="662" type="line"/>
      <point x="71.002" y="688"/>
      <point x="102.437" y="715.017"/>
      <point x="151.002" y="729.287" type="curve"/>
      <point x="215.002" y="630" type="line"/>
      <point x="143.581" y="628.73"/>
      <point x="135.002" y="614"/>
      <point x="103.002" y="588" type="curve"/>
    </contour>
    <contour>
      <point x="22" y="220" type="curve" smooth="yes"/>
      <point x="22" y="425.89"/>
      <point x="98" y="488.874"/>
      <point x="202.186" y="488.874" type="curve" smooth="yes"/>
      <point x="309.691" y="488.874"/>
      <point x="371.125" y="430"/>
      <point x="371.125" y="324" type="curve" smooth="yes"/>
      <point x="371.125" y="251"/>
      <point x="320.483" y="228"/>
      <point x="320.483" y="177" type="curve" smooth="yes"/>
      <point x="320.483" y="142.758"/>
      <point x="333.728" y="115"/>
      <point x="360" y="115" type="curve" smooth="yes"/>
      <point x="412.212" y="115"/>
      <point x="439.24" y="190"/>
      <point x="439.24" y="293" type="curve" smooth="yes"/>
      <point x="439.24" y="445.199"/>
      <point x="420.378" y="547.957"/>
      <point x="367.544" y="600" type="curve"/>
      <point x="415.48" y="702" type="line"/>
      <point x="517.599" y="645.847"/>
      <point x="554.24" y="514.057"/>
      <point x="554.24" y="293" type="curve" smooth="yes"/>
      <point x="553.756" y="181.996"/>
      <point x="521.881" y="0"/>
      <point x="364.125" y="0" type="curve" smooth="yes"/>
      <point x="239.822" y="0"/>
      <point x="211.587" y="87.4053"/>
      <point x="211.587" y="177" type="curve" smooth="yes"/>
      <point x="211.587" y="237"/>
      <point x="259.125" y="264"/>
      <point x="259.125" y="324" type="curve" smooth="yes"/>
      <point x="259.125" y="354"/>
      <point x="243.691" y="376.433"/>
      <point x="201" y="376.433" type="curve" smooth="yes"/>
      <point x="161.173" y="376.433"/>
      <point x="132" y="339.788"/>
      <point x="132" y="220" type="curve" smooth="yes"/>
      <point x="132" y="128"/>
      <point x="150" y="110"/>
      <point x="171" y="110" type="curve" smooth="yes"/>
      <point x="191" y="110"/>
      <point x="208" y="120"/>
      <point x="224" y="156" type="curve"/>
      <point x="280" y="73" type="line"/>
      <point x="251" y="28"/>
      <point x="223.479" y="0"/>
      <point x="171" y="0" type="curve" smooth="yes"/>
      <point x="66" y="0"/>
      <point x="22" y="79"/>
    </contour>
  </outline>
</glyph>
<glyph name="si_CIi" format="1">
  <advance width="529"/>
  <outline>
    <contour>
      <point x="323.109" y="716.615" type="curve" smooth="yes"/>
      <point x="323.109" y="694.364"/>
      <point x="340.742" y="676.44"/>
      <point x="362.631" y="676.44" type="curve" smooth="yes"/>
      <point x="384.52" y="676.44"/>
      <point x="402.152" y="694.364"/>
      <point x="402.152" y="716.615" type="curve" smooth="yes"/>
      <point x="402.152" y="738.865"/>
      <point x="384.52" y="756.79"/>
      <point x="362.631" y="756.79" type="curve" smooth="yes"/>
      <point x="340.742" y="756.79"/>
      <point x="323.109" y="738.865"/>
    </contour>
    <contour>
      <point x="231.634" y="717" type="curve" smooth="yes"/>
      <point x="231.634" y="789"/>
      <point x="289.634" y="847"/>
      <point x="361.634" y="847" type="curve" smooth="yes"/>
      <point x="433.634" y="847"/>
      <point x="491.634" y="789"/>
      <point x="491.634" y="717" type="curve" smooth="yes"/>
      <point x="491.634" y="645"/>
      <point x="433.634" y="587"/>
      <point x="361.634" y="587" type="curve" smooth="yes"/>
      <point x="289.634" y="587"/>
      <point x="231.634" y="645"/>
    </contour>
    <contour>
      <point x="23.0195" y="710" type="curve" smooth="yes"/>
      <point x="23.0195" y="797.305"/>
      <point x="106.548" y="871"/>
      <point x="257.762" y="871" type="curve" smooth="yes"/>
      <point x="431.616" y="871"/>
      <point x="491.634" y="804.305"/>
      <point x="491.634" y="717" type="curve" smooth="yes"/>
      <point x="491.634" y="681.067"/>
      <point x="477.299" y="654.048"/>
      <point x="456.762" y="634.379" type="curve" smooth="yes"/>
      <point x="423.572" y="602.593"/>
      <point x="374.18" y="590"/>
      <point x="342.89" y="590" type="curve"/>
      <point x="309.89" y="632" type="line"/>
      <point x="350.762" y="673" type="line"/>
      <point x="373.479" y="673"/>
      <point x="402.152" y="679"/>
      <point x="402.152" y="716.615" type="curve" smooth="yes"/>
      <point x="402.152" y="761"/>
      <point x="376.382" y="763"/>
      <point x="257.762" y="763" type="curve" smooth="yes"/>
      <point x="169.762" y="763"/>
      <point x="138.02" y="736.934"/>
      <point x="138.02" y="707" type="curve" smooth="yes"/>
      <point x="138.02" y="685.732"/>
      <point x="155.892" y="672.87"/>
      <point x="177.892" y="672.87" type="curve" smooth="yes"/>
      <point x="185.619" y="672.87"/>
      <point x="234.279" y="675"/>
      <point x="242.762" y="675" type="curve"/>
      <point x="300.762" y="630.332" type="line"/>
      <point x="242.762" y="560" type="line"/>
      <point x="223.762" y="560"/>
      <point x="197.892" y="558"/>
      <point x="163.762" y="558" type="curve" smooth="yes"/>
      <point x="113.109" y="558"/>
      <point x="23.0195" y="598.971"/>
    </contour>
    <contour>
      <point x="28.1201" y="200.596" type="curve" smooth="yes"/>
      <point x="28.1201" y="243.271"/>
      <point x="40.498" y="281.649"/>
      <point x="58.7617" y="306" type="curve"/>
      <point x="22" y="306" type="line"/>
      <point x="22" y="393" type="line"/>
      <point x="286.866" y="390" type="line"/>
      <point x="320.706" y="306" type="line"/>
      <point x="213.762" y="306" type="line" smooth="yes"/>
      <point x="156.977" y="306"/>
      <point x="136.743" y="261.911"/>
      <point x="136.743" y="214.068" type="curve" smooth="yes"/>
      <point x="136.743" y="166.573"/>
      <point x="166.077" y="115"/>
      <point x="246.762" y="115" type="curve" smooth="yes"/>
      <point x="351.214" y="115"/>
      <point x="392.762" y="195.018"/>
      <point x="392.762" y="354" type="curve" smooth="yes"/>
      <point x="392.762" y="480"/>
      <point x="352.762" y="560"/>
      <point x="242.762" y="560" type="curve"/>
      <point x="242.762" y="675" type="line"/>
      <point x="437.095" y="675"/>
      <point x="507.762" y="551.029"/>
      <point x="507.762" y="354" type="curve" smooth="yes"/>
      <point x="507.762" y="118"/>
      <point x="426.762" y="0"/>
      <point x="246.762" y="0" type="curve" smooth="yes"/>
      <point x="83.1152" y="0"/>
      <point x="28.1201" y="112.89"/>
    </contour>
    <contour>
      <point x="56.2979" y="409.272" type="curve" smooth="yes"/>
      <point x="56.2979" y="481.535"/>
      <point x="105.269" y="531.563"/>
      <point x="179.57" y="531.563" type="curve" smooth="yes"/>
      <point x="256.557" y="531.563"/>
      <point x="327.955" y="474.899"/>
      <point x="327.955" y="365.563" type="curve" smooth="yes"/>
      <point x="327.955" y="351"/>
      <point x="324.762" y="325"/>
      <point x="320.706" y="306" type="curve"/>
      <point x="230.326" y="371.875" type="line"/>
      <point x="231.267" y="376.782"/>
      <point x="231.741" y="381.771"/>
      <point x="231.741" y="386.714" type="curve" smooth="yes"/>
      <point x="231.741" y="416.144"/>
      <point x="214.928" y="444"/>
      <point x="179.57" y="444" type="curve" smooth="yes"/>
      <point x="154.771" y="444"/>
      <point x="145.778" y="426.134"/>
      <point x="145.778" y="404.787" type="curve" smooth="yes"/>
      <point x="145.778" y="386.793"/>
      <point x="158.063" y="370.325"/>
      <point x="166.762" y="356" type="curve"/>
      <point x="86.7617" y="318.563" type="line"/>
      <point x="66.7617" y="351"/>
      <point x="56.2979" y="380.62"/>
    </contour>
  </outline>
</glyph>
<glyph name="si_DR.halant" format="1">
  <advance width="470"/>
  <outline>
    <contour>
      <point x="302" y="634.806" type="curve"/>
      <point x="318" y="712" type="line"/>
      <point x="323.819" y="710.738"/>
      <point x="329.098" y="710.159"/>
      <point x="333.872" y="710.159" type="curve" smooth="yes"/>
      <point x="356.665" y="710.159"/>
      <point x="365" y="728.211"/>
      <point x="365" y="749" type="curve" smooth="yes"/>
      <point x="365" y="786.602"/>
      <point x="338.267" y="787.933"/>
      <point x="326.808" y="787.933" type="curve" smooth="yes"/>
      <point x="323.788" y="787.933"/>
      <point x="321.108" y="787.603"/>
      <point x="319" y="787" type="curve"/>
      <point x="298" y="824" type="line"/>
      <point x="328" y="866" type="line"/>
      <point x="364" y="866"/>
      <point x="448" y="862"/>
      <point x="448" y="749" type="curve" smooth="yes"/>
      <point x="448" y="673.727"/>
      <point x="398.227" y="629"/>
      <point x="340.676" y="629" type="curve" smooth="yes"/>
      <point x="328.011" y="629"/>
      <point x="314.97" y="630.915"/>
    </contour>
    <contour>
      <point x="235" y="866" type="line"/>
      <point x="328" y="866" type="line"/>
      <point x="328" y="812" type="line"/>
      <point x="321" y="796" type="line"/>
      <point x="321" y="767"/>
      <point x="321" y="735"/>
      <point x="321" y="704" type="curve"/>
      <point x="328" y="684" type="line"/>
      <point x="328" y="527" type="line"/>
      <point x="235" y="527" type="line"/>
    </contour>
    <contour>
      <point x="21.6621" y="-71" type="curve" smooth="yes"/>
      <point x="136.662" y="-71" type="line" smooth="yes"/>
      <point x="136.662" y="-128"/>
      <point x="171.174" y="-165"/>
      <point x="225.662" y="-165" type="curve" smooth="yes"/>
      <point x="299.01" y="-165"/>
      <point x="325.662" y="-116.83"/>
      <point x="325.662" y="-11" type="curve" smooth="yes"/>
      <point x="325.662" y="46.0777"/>
      <point x="325.662" y="101.985"/>
      <point x="325.662" y="155.437" type="curve"/>
      <point x="428.662" y="155.437" type="line"/>
      <point x="428.662" y="128"/>
      <point x="428.662" y="58"/>
      <point x="428.662" y="-11" type="curve" smooth="yes"/>
      <point x="428.662" y="-205"/>
      <point x="354.229" y="-276"/>
      <point x="225.662" y="-276" type="curve" smooth="yes"/>
      <point x="117.385" y="-276"/>
      <point x="21.6621" y="-216"/>
    </contour>
    <contour>
      <point x="22" y="217" type="curve" smooth="yes"/>
      <point x="22" y="330.947"/>
      <point x="118.68" y="421.352"/>
      <point x="239" y="421.352" type="curve" smooth="yes"/>
      <point x="257.83" y="421.352"/>
      <point x="270" y="420"/>
      <point x="287.807" y="418.437" type="curve"/>
      <point x="288.868" y="424.679"/>
      <point x="289.371" y="430.648"/>
      <point x="289.371" y="436.312" type="curve" smooth="yes"/>
      <point x="289.371" y="473.944"/>
      <point x="267.142" y="498"/>
      <point x="238.615" y="498" type="curve" smooth="yes"/>
      <point x="209.26" y="498"/>
      <point x="193.432" y="477"/>
      <point x="193.432" y="453.164" type="curve" smooth="yes"/>
      <point x="193.432" y="440.756"/>
      <point x="196.948" y="427.391"/>
      <point x="204.78" y="418" type="curve"/>
      <point x="127" y="379" type="line"/>
      <point x="107.69" y="404.207"/>
      <point x="99.9561" y="430.604"/>
      <point x="99.9561" y="458.407" type="curve" smooth="yes"/>
      <point x="99.9561" y="534.137"/>
      <point x="152.056" y="596"/>
      <point x="238.615" y="596" type="curve" smooth="yes"/>
      <point x="315.605" y="596"/>
      <point x="387" y="539.336"/>
      <point x="387" y="430" type="curve" smooth="yes"/>
      <point x="387" y="398.735"/>
      <point x="380" y="357"/>
      <point x="368" y="318" type="curve"/>
      <point x="368" y="318"/>
      <point x="287.531" y="318"/>
      <point x="239" y="318" type="curve" smooth="yes"/>
      <point x="183" y="318"/>
      <point x="134" y="274"/>
      <point x="134" y="217" type="curve" smooth="yes"/>
      <point x="134" y="160"/>
      <point x="180.782" y="116"/>
      <point x="239" y="116" type="curve" smooth="yes"/>
      <point x="274.293" y="116"/>
      <point x="305.569" y="131.386"/>
      <point x="325.662" y="155.437" type="curve"/>
      <point x="412" y="93.042" type="line"/>
      <point x="371.89" y="36.2998"/>
      <point x="309.454" y="0"/>
      <point x="239" y="0" type="curve" smooth="yes"/>
      <point x="118.664" y="0"/>
      <point x="22" y="96.6641"/>
    </contour>
  </outline>
</glyph>
<glyph name="si_DVa" format="1">
  <advance width="709"/>
  <outline>
    <contour>
      <point x="194.812" y="218.826" type="curve" smooth="yes"/>
      <point x="194.812" y="279.354"/>
      <point x="214.71" y="335.661"/>
      <point x="245.189" y="362" type="curve" smooth="yes"/>
      <point x="266.209" y="380.164"/>
      <point x="294.286" y="391"/>
      <point x="330.888" y="391" type="curve" smooth="yes"/>
      <point x="337.888" y="391"/>
      <point x="411.53" y="391"/>
      <point x="425" y="391" type="curve"/>
      <point x="454" y="363"/>
      <point x="498.944" y="306"/>
      <point x="498.944" y="306" type="curve"/>
      <point x="498.944" y="306"/>
      <point x="373.888" y="306"/>
      <point x="373.888" y="306" type="curve" smooth="yes"/>
      <point x="317.888" y="306"/>
      <point x="305.487" y="270.602"/>
      <point x="305.487" y="226.602" type="curve" smooth="yes"/>
      <point x="305.487" y="174"/>
      <point x="332.08" y="115"/>
      <point x="425" y="115" type="curve" smooth="yes"/>
      <point x="529.452" y="115"/>
      <point x="571" y="195.018"/>
      <point x="571" y="354" type="curve" smooth="yes"/>
      <point x="571" y="583"/>
      <point x="499.68" y="640"/>
      <point x="416.854" y="640" type="curve" smooth="yes"/>
      <point x="375.751" y="640"/>
      <point x="335.666" y="618.96"/>
      <point x="318.61" y="576.855" type="curve"/>
      <point x="209.578" y="613.029" type="line"/>
      <point x="245.562" y="707.868"/>
      <point x="330.134" y="755"/>
      <point x="416.854" y="755" type="curve" smooth="yes"/>
      <point x="556.326" y="755"/>
      <point x="687" y="675.859"/>
      <point x="687" y="354" type="curve" smooth="yes"/>
      <point x="686" y="118"/>
      <point x="605" y="0"/>
      <point x="425" y="0" type="curve" smooth="yes"/>
      <point x="247" y="0"/>
      <point x="194.812" y="137"/>
    </contour>
    <contour>
      <point x="234.536" y="409.272" type="curve" smooth="yes"/>
      <point x="234.536" y="481.535"/>
      <point x="283.507" y="531.563"/>
      <point x="357.809" y="531.563" type="curve" smooth="yes"/>
      <point x="434.795" y="531.563"/>
      <point x="506.193" y="474.899"/>
      <point x="506.193" y="365.563" type="curve" smooth="yes"/>
      <point x="506.193" y="351"/>
      <point x="503" y="325"/>
      <point x="498.944" y="306" type="curve"/>
      <point x="408.564" y="371.875" type="line"/>
      <point x="409.505" y="376.782"/>
      <point x="409.979" y="381.771"/>
      <point x="409.979" y="386.714" type="curve" smooth="yes"/>
      <point x="409.979" y="416.144"/>
      <point x="393.166" y="444"/>
      <point x="357.809" y="444" type="curve" smooth="yes"/>
      <point x="333.009" y="444"/>
      <point x="324.017" y="426.134"/>
      <point x="324.017" y="404.787" type="curve" smooth="yes"/>
      <point x="324.017" y="386.793"/>
      <point x="336.302" y="370.325"/>
      <point x="345" y="356" type="curve"/>
      <point x="265" y="318.563" type="line"/>
      <point x="245" y="351"/>
      <point x="234.536" y="380.62"/>
    </contour>
    <contour>
      <point x="22" y="255" type="curve" smooth="yes"/>
      <point x="22" y="456.801"/>
      <point x="96.8721" y="527"/>
      <point x="188.372" y="527" type="curve" smooth="yes"/>
      <point x="257.691" y="527"/>
      <point x="295.521" y="470.58"/>
      <point x="304" y="430" type="curve"/>
      <point x="250" y="369" type="line"/>
      <point x="245.212" y="385.586"/>
      <point x="231.502" y="423"/>
      <point x="193" y="423" type="curve" smooth="yes"/>
      <point x="158.987" y="423"/>
      <point x="128" y="376.422"/>
      <point x="128" y="255" type="curve" smooth="yes"/>
      <point x="128" y="126.8"/>
      <point x="151.779" y="101.844"/>
      <point x="185" y="101.844" type="curve" smooth="yes"/>
      <point x="185" y="-0.15625" type="line" smooth="yes"/>
      <point x="90" y="-0.15625"/>
      <point x="22" y="41.4199"/>
    </contour>
  </outline>
</glyph>
<glyph name="si_DdI" format="1">
  <advance width="583"/>
  <outline>
    <contour>
      <point x="47.3975" y="710" type="curve" smooth="yes"/>
      <point x="47.3975" y="797.305"/>
      <point x="130.926" y="871"/>
      <point x="282.14" y="871" type="curve" smooth="yes"/>
      <point x="433.354" y="871"/>
      <point x="516.012" y="792.305"/>
      <point x="516.012" y="705" type="curve" smooth="yes"/>
      <point x="516.012" y="611"/>
      <point x="426.792" y="569"/>
      <point x="376.14" y="569" type="curve"/>
      <point x="343.14" y="611" type="line"/>
      <point x="359.76" y="657" type="line"/>
      <point x="388.124" y="662.811"/>
      <point x="401.012" y="679"/>
      <point x="401.012" y="701" type="curve" smooth="yes"/>
      <point x="401.012" y="728.955"/>
      <point x="370.14" y="756"/>
      <point x="282.14" y="756" type="curve" smooth="yes"/>
      <point x="194.14" y="756"/>
      <point x="162.397" y="737"/>
      <point x="162.397" y="707" type="curve" smooth="yes"/>
      <point x="162.397" y="685.732"/>
      <point x="180.27" y="672.87"/>
      <point x="202.27" y="672.87" type="curve" smooth="yes"/>
      <point x="209.997" y="672.87"/>
      <point x="258.657" y="675"/>
      <point x="267.14" y="675" type="curve"/>
      <point x="338.14" y="630.332" type="line"/>
      <point x="267.14" y="560" type="line"/>
      <point x="248.14" y="560"/>
      <point x="222.27" y="558"/>
      <point x="188.14" y="558" type="curve" smooth="yes"/>
      <point x="137.487" y="558"/>
      <point x="47.3975" y="598.971"/>
    </contour>
    <contour>
      <point x="27.7617" y="193.437" type="curve" smooth="yes"/>
      <point x="27.7617" y="234.737"/>
      <point x="39.2441" y="280.437"/>
      <point x="53.2441" y="306" type="curve"/>
      <point x="22" y="306" type="line"/>
      <point x="22" y="391" type="line"/>
      <point x="311.243" y="389.5" type="line"/>
      <point x="344.745" y="306" type="line"/>
      <point x="195" y="306" type="line" smooth="yes"/>
      <point x="154.244" y="306"/>
      <point x="134.762" y="245.162"/>
      <point x="134.762" y="193.437" type="curve" smooth="yes"/>
      <point x="134.762" y="156.328"/>
      <point x="140.436" y="114.652"/>
      <point x="177.693" y="114.652" type="curve" smooth="yes"/>
      <point x="219.869" y="114.652"/>
      <point x="234.875" y="179.678"/>
      <point x="234.875" y="249.5" type="curve"/>
      <point x="330.786" y="249.5" type="line"/>
      <point x="330.786" y="176.75"/>
      <point x="346.254" y="115"/>
      <point x="389.244" y="115" type="curve" smooth="yes"/>
      <point x="446" y="115"/>
      <point x="446" y="239.958"/>
      <point x="446" y="293" type="curve" smooth="yes"/>
      <point x="446" y="467"/>
      <point x="405.14" y="560"/>
      <point x="267.14" y="560" type="curve"/>
      <point x="267.14" y="675" type="line"/>
      <point x="484.14" y="675"/>
      <point x="561" y="527"/>
      <point x="561" y="293" type="curve" smooth="yes"/>
      <point x="561" y="181.996"/>
      <point x="560" y="0"/>
      <point x="389.244" y="0" type="curve" smooth="yes"/>
      <point x="333.324" y="0"/>
      <point x="295.302" y="33.1445"/>
      <point x="280.481" y="79.0303" type="curve"/>
      <point x="264.336" y="31.6025"/>
      <point x="224.924" y="0"/>
      <point x="172.244" y="0" type="curve" smooth="yes"/>
      <point x="56.4443" y="0"/>
      <point x="27.7617" y="105.454"/>
    </contour>
    <contour>
      <point x="80.3369" y="409.272" type="curve" smooth="yes"/>
      <point x="80.3369" y="481.535"/>
      <point x="129.308" y="531.563"/>
      <point x="203.609" y="531.563" type="curve" smooth="yes"/>
      <point x="280.596" y="531.563"/>
      <point x="351.994" y="474.899"/>
      <point x="351.994" y="365.563" type="curve" smooth="yes"/>
      <point x="351.994" y="351"/>
      <point x="348.801" y="325"/>
      <point x="344.745" y="306" type="curve"/>
      <point x="254.365" y="371.875" type="line"/>
      <point x="255.306" y="376.782"/>
      <point x="255.78" y="381.771"/>
      <point x="255.78" y="386.714" type="curve" smooth="yes"/>
      <point x="255.78" y="416.144"/>
      <point x="238.967" y="444"/>
      <point x="203.609" y="444" type="curve" smooth="yes"/>
      <point x="178.81" y="444"/>
      <point x="169.817" y="426.134"/>
      <point x="169.817" y="404.787" type="curve" smooth="yes"/>
      <point x="169.817" y="386.793"/>
      <point x="182.103" y="370.325"/>
      <point x="190.801" y="356" type="curve"/>
      <point x="110.801" y="318.563" type="line"/>
      <point x="90.8008" y="351"/>
      <point x="80.3369" y="380.62"/>
    </contour>
  </outline>
</glyph>
<glyph name="si_Dda.reph" format="1">
  <advance width="583"/>
  <outline>
    <contour>
      <point x="117.055" y="706.572" type="curve" smooth="yes"/>
      <point x="117.055" y="776.741"/>
      <point x="168.578" y="848.83"/>
      <point x="279.762" y="848.83" type="curve" smooth="yes"/>
      <point x="382.081" y="848.83"/>
      <point x="459.762" y="782.337"/>
      <point x="459.762" y="673" type="curve" smooth="yes"/>
      <point x="459.762" y="630.604"/>
      <point x="429.78" y="557.011"/>
      <point x="373.762" y="530" type="curve"/>
      <point x="323.762" y="594" type="line"/>
      <point x="358.762" y="615.392"/>
      <point x="366.762" y="652"/>
      <point x="366.762" y="676" type="curve" smooth="yes"/>
      <point x="366.762" y="733.027"/>
      <point x="332.498" y="772"/>
      <point x="273.762" y="772" type="curve" smooth="yes"/>
      <point x="227.473" y="772"/>
      <point x="190.762" y="747.116"/>
      <point x="190.762" y="706.83" type="curve" smooth="yes"/>
      <point x="190.762" y="687.128"/>
      <point x="198.624" y="667.244"/>
      <point x="213.762" y="656.83" type="curve"/>
      <point x="288.097" y="618.53" type="line"/>
      <point x="188" y="587" type="line"/>
      <point x="135" y="607"/>
      <point x="117.055" y="652.681"/>
    </contour>
    <contour>
      <point x="198.812" y="685.258" type="curve" smooth="yes"/>
      <point x="198.812" y="668.959"/>
      <point x="211.729" y="655.83"/>
      <point x="227.762" y="655.83" type="curve" smooth="yes"/>
      <point x="243.795" y="655.83"/>
      <point x="256.711" y="668.959"/>
      <point x="256.711" y="685.258" type="curve" smooth="yes"/>
      <point x="256.711" y="701.557"/>
      <point x="243.795" y="714.687"/>
      <point x="227.762" y="714.687" type="curve" smooth="yes"/>
      <point x="211.729" y="714.687"/>
      <point x="198.812" y="701.557"/>
    </contour>
    <contour>
      <point x="120.762" y="685" type="curve" smooth="yes"/>
      <point x="120.762" y="741"/>
      <point x="188.073" y="768.567"/>
      <point x="244.644" y="768.567" type="curve" smooth="yes"/>
      <point x="295.805" y="768.567"/>
      <point x="337.244" y="731.924"/>
      <point x="337.244" y="685" type="curve" smooth="yes"/>
      <point x="337.244" y="626.291"/>
      <point x="288.397" y="579"/>
      <point x="227.762" y="579" type="curve" smooth="yes"/>
      <point x="168.5" y="579"/>
      <point x="120.762" y="626.291"/>
    </contour>
    <contour>
      <point x="50.7617" y="662" type="line"/>
      <point x="77.7617" y="688"/>
      <point x="109.196" y="715.017"/>
      <point x="157.762" y="729.287" type="curve"/>
      <point x="221.762" y="630" type="line"/>
      <point x="150.341" y="628.73"/>
      <point x="141.762" y="614"/>
      <point x="109.762" y="588" type="curve"/>
    </contour>
    <contour>
      <point x="27.7617" y="193.437" type="curve" smooth="yes"/>
      <point x="27.7617" y="234.737"/>
      <point x="39.2441" y="280.437"/>
      <point x="53.2441" y="306" type="curve"/>
      <point x="22" y="306" type="line"/>
      <point x="22" y="391" type="line"/>
      <point x="311.243" y="389.5" type="line"/>
      <point x="344.745" y="306" type="line"/>
      <point x="195" y="306" type="line" smooth="yes"/>
      <point x="154.244" y="306"/>
      <point x="134.762" y="245.162"/>
      <point x="134.762" y="193.437" type="curve" smooth="yes"/>
      <point x="134.762" y="156.328"/>
      <point x="140.436" y="114.652"/>
      <point x="177.693" y="114.652" type="curve" smooth="yes"/>
      <point x="219.869" y="114.652"/>
      <point x="234.875" y="179.678"/>
      <point x="234.875" y="249.5" type="curve"/>
      <point x="330.786" y="249.5" type="line"/>
      <point x="330.786" y="176.75"/>
      <point x="346.254" y="115"/>
      <point x="389.244" y="115" type="curve" smooth="yes"/>
      <point x="446" y="115"/>
      <point x="446" y="239.958"/>
      <point x="446" y="293" type="curve" smooth="yes"/>
      <point x="446" y="445.199"/>
      <point x="427.138" y="547.957"/>
      <point x="374.304" y="600" type="curve"/>
      <point x="422.24" y="702" type="line"/>
      <point x="524.358" y="645.847"/>
      <point x="561" y="514.057"/>
      <point x="561" y="293" type="curve" smooth="yes"/>
      <point x="561" y="181.996"/>
      <point x="560" y="0"/>
      <point x="389.244" y="0" type="curve" smooth="yes"/>
      <point x="333.324" y="0"/>
      <point x="295.302" y="33.1445"/>
      <point x="280.481" y="79.0303" type="curve"/>
      <point x="264.336" y="31.6025"/>
      <point x="224.924" y="0"/>
      <point x="172.244" y="0" type="curve" smooth="yes"/>
      <point x="56.4443" y="0"/>
      <point x="27.7617" y="105.454"/>
    </contour>
    <contour>
      <point x="80.3369" y="409.272" type="curve" smooth="yes"/>
      <point x="80.3369" y="481.535"/>
      <point x="129.308" y="531.563"/>
      <point x="203.609" y="531.563" type="curve" smooth="yes"/>
      <point x="280.596" y="531.563"/>
      <point x="351.994" y="474.899"/>
      <point x="351.994" y="365.563" type="curve" smooth="yes"/>
      <point x="351.994" y="351"/>
      <point x="348.801" y="325"/>
      <point x="344.745" y="306" type="curve"/>
      <point x="254.365" y="371.875" type="line"/>
      <point x="255.307" y="376.782"/>
      <point x="255.78" y="381.771"/>
      <point x="255.78" y="386.714" type="curve" smooth="yes"/>
      <point x="255.78" y="416.144"/>
      <point x="238.967" y="444"/>
      <point x="203.609" y="444" type="curve" smooth="yes"/>
      <point x="178.81" y="444"/>
      <point x="169.817" y="426.134"/>
      <point x="169.817" y="404.787" type="curve" smooth="yes"/>
      <point x="169.817" y="386.793"/>
      <point x="182.103" y="370.325"/>
      <point x="190.801" y="356" type="curve"/>
      <point x="110.801" y="318.563" type="line"/>
      <point x="90.8008" y="351"/>
      <point x="80.3369" y="380.62"/>
    </contour>
  </outline>
</glyph>
<glyph name="si_DhI" format="1">
  <advance width="581"/>
  <outline>
    <contour>
      <point x="45.7422" y="710" type="curve" smooth="yes"/>
      <point x="45.7422" y="797.305"/>
      <point x="129.271" y="871"/>
      <point x="280.484" y="871" type="curve" smooth="yes"/>
      <point x="431.698" y="871"/>
      <point x="514.356" y="792.305"/>
      <point x="514.356" y="705" type="curve" smooth="yes"/>
      <point x="514.356" y="611"/>
      <point x="425.137" y="569"/>
      <point x="374.484" y="569" type="curve"/>
      <point x="341.484" y="611" type="line"/>
      <point x="358.104" y="657" type="line"/>
      <point x="386.468" y="662.811"/>
      <point x="399.356" y="679"/>
      <point x="399.356" y="701" type="curve" smooth="yes"/>
      <point x="399.356" y="728.955"/>
      <point x="368.484" y="756"/>
      <point x="280.484" y="756" type="curve" smooth="yes"/>
      <point x="192.484" y="756"/>
      <point x="160.742" y="737"/>
      <point x="160.742" y="707" type="curve" smooth="yes"/>
      <point x="160.742" y="685.732"/>
      <point x="178.614" y="672.87"/>
      <point x="200.614" y="672.87" type="curve" smooth="yes"/>
      <point x="208.342" y="672.87"/>
      <point x="257.002" y="675"/>
      <point x="265.484" y="675" type="curve"/>
      <point x="336.484" y="630.332" type="line"/>
      <point x="265.484" y="560" type="line"/>
      <point x="246.484" y="560"/>
      <point x="220.614" y="558"/>
      <point x="186.484" y="558" type="curve" smooth="yes"/>
      <point x="135.832" y="558"/>
      <point x="45.7422" y="598.971"/>
    </contour>
    <contour>
      <point x="22" y="231.204" type="curve" smooth="yes"/>
      <point x="22" y="277.471"/>
      <point x="28.261" y="319.595"/>
      <point x="36.1279" y="345" type="curve" smooth="yes"/>
      <point x="60.1973" y="422.729"/>
      <point x="115.579" y="472"/>
      <point x="187.678" y="472" type="curve" smooth="yes"/>
      <point x="215.444" y="472"/>
      <point x="244.476" y="465.063"/>
      <point x="272.85" y="445.258" type="curve"/>
      <point x="234.984" y="345" type="line"/>
      <point x="221.137" y="352.989"/>
      <point x="208.467" y="356.607"/>
      <point x="197.121" y="356.607" type="curve" smooth="yes"/>
      <point x="170.338" y="356.607"/>
      <point x="150.296" y="336.647"/>
      <point x="140.864" y="306" type="curve" smooth="yes"/>
      <point x="136.433" y="291.601"/>
      <point x="132.947" y="261.724"/>
      <point x="132.947" y="229.771" type="curve" smooth="yes"/>
      <point x="132.947" y="175.234"/>
      <point x="143.101" y="114.652"/>
      <point x="176.038" y="114.652" type="curve" smooth="yes"/>
      <point x="218.214" y="114.652"/>
      <point x="233.22" y="179.678"/>
      <point x="233.22" y="249.5" type="curve"/>
      <point x="329.131" y="249.5" type="line"/>
      <point x="329.131" y="176.75"/>
      <point x="344.599" y="115"/>
      <point x="387.589" y="115" type="curve" smooth="yes"/>
      <point x="444.345" y="115"/>
      <point x="444.345" y="241"/>
      <point x="444.345" y="293" type="curve" smooth="yes"/>
      <point x="444.345" y="467"/>
      <point x="403.484" y="560"/>
      <point x="265.484" y="560" type="curve"/>
      <point x="265.484" y="675" type="line"/>
      <point x="482.484" y="675"/>
      <point x="559.345" y="526.929"/>
      <point x="559.345" y="293" type="curve" smooth="yes"/>
      <point x="559.345" y="181.996"/>
      <point x="558.345" y="0"/>
      <point x="387.589" y="0" type="curve" smooth="yes"/>
      <point x="331.669" y="0"/>
      <point x="293.646" y="33.1445"/>
      <point x="278.826" y="79.0303" type="curve"/>
      <point x="262.681" y="31.6025"/>
      <point x="223.269" y="0"/>
      <point x="170.589" y="0" type="curve" smooth="yes"/>
      <point x="53.9805" y="0"/>
      <point x="22" y="126.225"/>
    </contour>
  </outline>
</glyph>
<glyph name="si_DhIi" format="1">
  <advance width="581"/>
  <outline>
    <contour>
      <point x="345.832" y="716.615" type="curve" smooth="yes"/>
      <point x="345.832" y="694.364"/>
      <point x="363.465" y="676.44"/>
      <point x="385.354" y="676.44" type="curve" smooth="yes"/>
      <point x="407.242" y="676.44"/>
      <point x="424.875" y="694.364"/>
      <point x="424.875" y="716.615" type="curve" smooth="yes"/>
      <point x="424.875" y="738.865"/>
      <point x="407.242" y="756.79"/>
      <point x="385.354" y="756.79" type="curve" smooth="yes"/>
      <point x="363.465" y="756.79"/>
      <point x="345.832" y="738.865"/>
    </contour>
    <contour>
      <point x="254.356" y="717" type="curve" smooth="yes"/>
      <point x="254.356" y="789"/>
      <point x="312.356" y="847"/>
      <point x="384.356" y="847" type="curve" smooth="yes"/>
      <point x="456.356" y="847"/>
      <point x="514.356" y="789"/>
      <point x="514.356" y="717" type="curve" smooth="yes"/>
      <point x="514.356" y="645"/>
      <point x="456.356" y="587"/>
      <point x="384.356" y="587" type="curve" smooth="yes"/>
      <point x="312.356" y="587"/>
      <point x="254.356" y="645"/>
    </contour>
    <contour>
      <point x="45.7422" y="710" type="curve" smooth="yes"/>
      <point x="45.7422" y="797.305"/>
      <point x="129.271" y="871"/>
      <point x="280.484" y="871" type="curve" smooth="yes"/>
      <point x="454.339" y="871"/>
      <point x="514.356" y="804.305"/>
      <point x="514.356" y="717" type="curve" smooth="yes"/>
      <point x="514.356" y="681.067"/>
      <point x="500.022" y="654.048"/>
      <point x="479.484" y="634.379" type="curve" smooth="yes"/>
      <point x="446.295" y="602.593"/>
      <point x="396.902" y="590"/>
      <point x="365.612" y="590" type="curve"/>
      <point x="332.612" y="632" type="line"/>
      <point x="373.484" y="673" type="line"/>
      <point x="396.201" y="673"/>
      <point x="424.875" y="679"/>
      <point x="424.875" y="716.615" type="curve" smooth="yes"/>
      <point x="424.875" y="761"/>
      <point x="399.104" y="763"/>
      <point x="280.484" y="763" type="curve" smooth="yes"/>
      <point x="192.484" y="763"/>
      <point x="160.742" y="736.934"/>
      <point x="160.742" y="707" type="curve" smooth="yes"/>
      <point x="160.742" y="685.732"/>
      <point x="178.614" y="672.87"/>
      <point x="200.614" y="672.87" type="curve" smooth="yes"/>
      <point x="208.342" y="672.87"/>
      <point x="257.002" y="675"/>
      <point x="265.484" y="675" type="curve"/>
      <point x="323.484" y="630.332" type="line"/>
      <point x="265.484" y="560" type="line"/>
      <point x="246.484" y="560"/>
      <point x="220.614" y="558"/>
      <point x="186.484" y="558" type="curve" smooth="yes"/>
      <point x="135.832" y="558"/>
      <point x="45.7422" y="598.971"/>
    </contour>
    <contour>
      <point x="22" y="231.204" type="curve" smooth="yes"/>
      <point x="22" y="277.471"/>
      <point x="28.261" y="319.595"/>
      <point x="36.1279" y="345" type="curve" smooth="yes"/>
      <point x="60.1973" y="422.729"/>
      <point x="115.579" y="472"/>
      <point x="187.678" y="472" type="curve" smooth="yes"/>
      <point x="215.444" y="472"/>
      <point x="244.476" y="465.063"/>
      <point x="272.85" y="445.258" type="curve"/>
      <point x="234.984" y="345" type="line"/>
      <point x="221.137" y="352.989"/>
      <point x="208.467" y="356.607"/>
      <point x="197.121" y="356.607" type="curve" smooth="yes"/>
      <point x="170.338" y="356.607"/>
      <point x="150.296" y="336.647"/>
      <point x="140.864" y="306" type="curve" smooth="yes"/>
      <point x="136.433" y="291.601"/>
      <point x="132.947" y="261.724"/>
      <point x="132.947" y="229.771" type="curve" smooth="yes"/>
      <point x="132.947" y="175.234"/>
      <point x="143.101" y="114.652"/>
      <point x="176.038" y="114.652" type="curve" smooth="yes"/>
      <point x="218.214" y="114.652"/>
      <point x="233.22" y="179.678"/>
      <point x="233.22" y="249.5" type="curve"/>
      <point x="329.131" y="249.5" type="line"/>
      <point x="329.131" y="176.75"/>
      <point x="344.599" y="115"/>
      <point x="387.589" y="115" type="curve" smooth="yes"/>
      <point x="444.345" y="115"/>
      <point x="444.345" y="241"/>
      <point x="444.345" y="293" type="curve" smooth="yes"/>
      <point x="444.345" y="467"/>
      <point x="403.484" y="560"/>
      <point x="265.484" y="560" type="curve"/>
      <point x="265.484" y="675" type="line"/>
      <point x="482.484" y="675"/>
      <point x="559.345" y="526.929"/>
      <point x="559.345" y="293" type="curve" smooth="yes"/>
      <point x="559.345" y="181.996"/>
      <point x="558.345" y="0"/>
      <point x="387.589" y="0" type="curve" smooth="yes"/>
      <point x="331.669" y="0"/>
      <point x="293.646" y="33.1445"/>
      <point x="278.826" y="79.0303" type="curve"/>
      <point x="262.681" y="31.6025"/>
      <point x="223.269" y="0"/>
      <point x="170.589" y="0" type="curve" smooth="yes"/>
      <point x="53.9805" y="0"/>
      <point x="22" y="126.225"/>
    </contour>
  </outline>
</glyph>
<glyph name="si_Fa.reph" format="1">
  <advance width="590"/>
  <outline>
    <contour>
      <point x="119.595" y="654.572" type="curve" smooth="yes"/>
      <point x="119.595" y="736.17"/>
      <point x="172.131" y="820"/>
      <point x="285.5" y="820" type="curve" smooth="yes"/>
      <point x="389.809" y="820"/>
      <point x="469" y="753.065"/>
      <point x="469" y="643" type="curve" smooth="yes"/>
      <point x="469" y="582"/>
      <point x="439.821" y="541.611"/>
      <point x="385.302" y="518" type="curve"/>
      <point x="344.302" y="574" type="line"/>
      <point x="363.592" y="592.784"/>
      <point x="368" y="624.927"/>
      <point x="368" y="646" type="curve" smooth="yes"/>
      <point x="368" y="698.869"/>
      <point x="335.395" y="735"/>
      <point x="279.5" y="735" type="curve" smooth="yes"/>
      <point x="231.427" y="735"/>
      <point x="193.302" y="704.389"/>
      <point x="193.302" y="654.83" type="curve" smooth="yes"/>
      <point x="193.302" y="629.679"/>
      <point x="193.644" y="604.295"/>
      <point x="194.302" y="591" type="curve"/>
      <point x="303.637" y="574.53" type="line"/>
      <point x="190.54" y="535" type="line"/>
      <point x="137.54" y="555"/>
      <point x="119.595" y="600.682"/>
    </contour>
    <contour>
      <point x="197.353" y="623.428" type="curve" smooth="yes"/>
      <point x="197.353" y="607.129"/>
      <point x="210.269" y="594"/>
      <point x="226.302" y="594" type="curve" smooth="yes"/>
      <point x="242.335" y="594"/>
      <point x="255.251" y="607.129"/>
      <point x="255.251" y="623.428" type="curve" smooth="yes"/>
      <point x="255.251" y="639.727"/>
      <point x="242.335" y="652.856"/>
      <point x="226.302" y="652.856" type="curve" smooth="yes"/>
      <point x="210.269" y="652.856"/>
      <point x="197.353" y="639.727"/>
    </contour>
    <contour>
      <point x="123.302" y="633" type="curve" smooth="yes"/>
      <point x="123.302" y="689"/>
      <point x="190.613" y="716.567"/>
      <point x="247.184" y="716.567" type="curve" smooth="yes"/>
      <point x="295.868" y="716.567"/>
      <point x="335.302" y="679.924"/>
      <point x="335.302" y="633" type="curve" smooth="yes"/>
      <point x="335.302" y="574.291"/>
      <point x="288.455" y="527"/>
      <point x="230.302" y="527" type="curve" smooth="yes"/>
      <point x="171.04" y="527"/>
      <point x="123.302" y="574.291"/>
    </contour>
    <contour>
      <point x="22" y="295" type="curve" smooth="yes"/>
      <point x="22" y="426"/>
      <point x="41" y="594"/>
      <point x="187" y="594" type="curve" smooth="yes"/>
      <point x="239.68" y="594"/>
      <point x="279.092" y="562.397"/>
      <point x="295.237" y="514.97" type="curve"/>
      <point x="311.383" y="562.397"/>
      <point x="350.795" y="594"/>
      <point x="403.475" y="594" type="curve" smooth="yes"/>
      <point x="549.475" y="594"/>
      <point x="568.475" y="426"/>
      <point x="568.475" y="295" type="curve" smooth="yes"/>
      <point x="568.475" y="90"/>
      <point x="491.475" y="0"/>
      <point x="338.475" y="0" type="curve"/>
      <point x="338.475" y="115" type="line"/>
      <point x="461.475" y="115"/>
      <point x="461.475" y="243.274"/>
      <point x="461.475" y="295" type="curve" smooth="yes"/>
      <point x="461.475" y="344.735"/>
      <point x="461.475" y="479"/>
      <point x="403.475" y="479" type="curve" smooth="yes"/>
      <point x="356.774" y="479"/>
      <point x="340.844" y="417.25"/>
      <point x="340.844" y="344.5" type="curve"/>
      <point x="249.631" y="344.5" type="line"/>
      <point x="249.631" y="417.25"/>
      <point x="233.7" y="479"/>
      <point x="187" y="479" type="curve" smooth="yes"/>
      <point x="129" y="479"/>
      <point x="129" y="344.735"/>
      <point x="129" y="295" type="curve" smooth="yes"/>
      <point x="129" y="243.274"/>
      <point x="129" y="115"/>
      <point x="252" y="115" type="curve"/>
      <point x="252" y="0" type="line"/>
      <point x="99" y="0"/>
      <point x="22" y="90"/>
    </contour>
  </outline>
</glyph>
<glyph name="si_GDha" format="1">
  <advance width="996"/>
  <outline>
    <contour>
      <point x="437" y="231.204" type="curve" smooth="yes"/>
      <point x="437" y="277.471"/>
      <point x="443.261" y="319.595"/>
      <point x="451.128" y="345" type="curve" smooth="yes"/>
      <point x="475.197" y="422.729"/>
      <point x="530.579" y="472"/>
      <point x="602.678" y="472" type="curve" smooth="yes"/>
      <point x="630.444" y="472"/>
      <point x="659.476" y="465.063"/>
      <point x="687.85" y="445.258" type="curve"/>
      <point x="649.984" y="345" type="line"/>
      <point x="636.137" y="352.989"/>
      <point x="623.467" y="356.607"/>
      <point x="612.121" y="356.607" type="curve" smooth="yes"/>
      <point x="585.338" y="356.607"/>
      <point x="565.297" y="336.647"/>
      <point x="555.864" y="306" type="curve" smooth="yes"/>
      <point x="551.433" y="291.601"/>
      <point x="547.947" y="261.724"/>
      <point x="547.947" y="229.771" type="curve" smooth="yes"/>
      <point x="547.947" y="175.234"/>
      <point x="558.101" y="114.652"/>
      <point x="591.038" y="114.652" type="curve" smooth="yes"/>
      <point x="633.214" y="114.652"/>
      <point x="648.22" y="179.678"/>
      <point x="648.22" y="249.5" type="curve"/>
      <point x="744.131" y="249.5" type="line"/>
      <point x="744.131" y="176.75"/>
      <point x="759.599" y="115"/>
      <point x="802.589" y="115" type="curve" smooth="yes"/>
      <point x="859.345" y="115"/>
      <point x="859.345" y="239.958"/>
      <point x="859.345" y="293" type="curve" smooth="yes"/>
      <point x="859.345" y="522.797"/>
      <point x="816.345" y="639.885"/>
      <point x="678.345" y="639.885" type="curve" smooth="yes"/>
      <point x="637.241" y="639.885"/>
      <point x="589.582" y="618.96"/>
      <point x="572.526" y="576.855" type="curve"/>
      <point x="463.494" y="613.029" type="line"/>
      <point x="499.479" y="707.868"/>
      <point x="591.624" y="755"/>
      <point x="678.345" y="755" type="curve" smooth="yes"/>
      <point x="895.345" y="755"/>
      <point x="974.345" y="599.056"/>
      <point x="974.345" y="293" type="curve" smooth="yes"/>
      <point x="974.345" y="181.996"/>
      <point x="973.345" y="0"/>
      <point x="802.589" y="0" type="curve" smooth="yes"/>
      <point x="746.669" y="0"/>
      <point x="708.646" y="33.1445"/>
      <point x="693.826" y="79.0303" type="curve"/>
      <point x="677.681" y="31.6025"/>
      <point x="638.269" y="0"/>
      <point x="585.589" y="0" type="curve" smooth="yes"/>
      <point x="468.98" y="0"/>
      <point x="437" y="126.225"/>
    </contour>
    <contour>
      <point x="216.628" y="300.156" type="line"/>
      <point x="263.854" y="330.127"/>
      <point x="266.022" y="362.443"/>
      <point x="266.022" y="392.096" type="curve" smooth="yes"/>
      <point x="266.022" y="398.567"/>
      <point x="266.191" y="404.871"/>
      <point x="266.596" y="411" type="curve" smooth="yes"/>
      <point x="274.396" y="529.113"/>
      <point x="355.556" y="584.156"/>
      <point x="442" y="584.156" type="curve" smooth="yes"/>
      <point x="513.931" y="584.156"/>
      <point x="589" y="544"/>
      <point x="613" y="430" type="curve" smooth="yes"/>
      <point x="535" y="303" type="line"/>
      <point x="535" y="450.547"/>
      <point x="491.585" y="477.156"/>
      <point x="442" y="477.156" type="curve" smooth="yes"/>
      <point x="388.745" y="477.156"/>
      <point x="371.477" y="447.284"/>
      <point x="368.594" y="389" type="curve" smooth="yes"/>
      <point x="368.178" y="380.59"/>
      <point x="368" y="371.588"/>
      <point x="368" y="362" type="curve" smooth="yes"/>
      <point x="368" y="286.156"/>
      <point x="323" y="254"/>
      <point x="263" y="220" type="curve"/>
    </contour>
    <contour>
      <point x="22" y="292" type="curve" smooth="yes"/>
      <point x="22" y="514.574"/>
      <point x="106.772" y="584"/>
      <point x="210.372" y="584" type="curve" smooth="yes"/>
      <point x="286.286" y="584"/>
      <point x="327.715" y="533.979"/>
      <point x="337" y="498" type="curve"/>
      <point x="272" y="426" type="line"/>
      <point x="266.823" y="442.586"/>
      <point x="252" y="478"/>
      <point x="210.372" y="478" type="curve" smooth="yes"/>
      <point x="167.27" y="478"/>
      <point x="131" y="433.659"/>
      <point x="131" y="292" type="curve" smooth="yes"/>
      <point x="131" y="144.453"/>
      <point x="177.415" y="107"/>
      <point x="227" y="107" type="curve" smooth="yes"/>
      <point x="288" y="107"/>
      <point x="306.628" y="146.156"/>
      <point x="306.628" y="184.156" type="curve" smooth="yes"/>
      <point x="306.628" y="219.156"/>
      <point x="290.891" y="231.251"/>
      <point x="278.628" y="236.156" type="curve"/>
      <point x="341.628" y="306.156" type="line"/>
      <point x="377.628" y="294.449"/>
      <point x="408.628" y="243.156"/>
      <point x="408.628" y="189.156" type="curve" smooth="yes"/>
      <point x="408.628" y="94.7305"/>
      <point x="357.561" y="0"/>
      <point x="227" y="0" type="curve" smooth="yes"/>
      <point x="120.001" y="0"/>
      <point x="22" y="57.625"/>
    </contour>
  </outline>
</glyph>
<glyph name="si_GR.halant" format="1">
  <advance width="665"/>
  <outline>
    <contour>
      <point x="76" y="-79" type="curve" smooth="yes"/>
      <point x="186" y="-79" type="line" smooth="yes"/>
      <point x="186" y="-139.032"/>
      <point x="244.165" y="-178"/>
      <point x="336" y="-178" type="curve" smooth="yes"/>
      <point x="427.835" y="-178"/>
      <point x="486" y="-140.269"/>
      <point x="486" y="-69" type="curve" smooth="yes"/>
      <point x="486" y="-37"/>
      <point x="482.717" y="-7"/>
      <point x="428" y="23" type="curve"/>
      <point x="406" y="72" type="line"/>
      <point x="509" y="79" type="line"/>
      <point x="572" y="55"/>
      <point x="596" y="-16"/>
      <point x="596" y="-79" type="curve" smooth="yes"/>
      <point x="596" y="-224"/>
      <point x="474" y="-284"/>
      <point x="336" y="-284" type="curve" smooth="yes"/>
      <point x="198" y="-284"/>
      <point x="76" y="-224"/>
    </contour>
    <component base="si_G.halant"/>
  </outline>
</glyph>
<glyph name="si_GUu" format="1">
  <advance width="681"/>
  <outline>
    <contour>
      <point x="449" y="-89" type="curve" smooth="yes"/>
      <point x="449" y="-51.3467"/>
      <point x="461.657" y="-25.6611"/>
      <point x="479.166" y="-8" type="curve"/>
      <point x="443" y="-8" type="line"/>
      <point x="443" y="69" type="line"/>
      <point x="511.645" y="123" type="line"/>
      <point x="469" y="123" type="line"/>
      <point x="469" y="200" type="line"/>
      <point x="638" y="200" type="line"/>
      <point x="638" y="123" type="line"/>
      <point x="557" y="69" type="line"/>
      <point x="638" y="69" type="line"/>
      <point x="638" y="-8" type="line"/>
      <point x="621" y="-8" type="line" smooth="yes"/>
      <point x="586.296" y="-8"/>
      <point x="544" y="-31"/>
      <point x="544" y="-74" type="curve" smooth="yes"/>
      <point x="544" y="-91.6"/>
      <point x="549.623" y="-110"/>
      <point x="572.582" y="-110" type="curve" smooth="yes"/>
      <point x="596.721" y="-110"/>
      <point x="600.824" y="-88.0625"/>
      <point x="600.824" y="-71" type="curve"/>
      <point x="691" y="-71" type="line"/>
      <point x="691" y="-149"/>
      <point x="664" y="-204"/>
      <point x="573" y="-204" type="curve" smooth="yes"/>
      <point x="470" y="-204"/>
      <point x="449" y="-131"/>
    </contour>
    <contour>
      <point x="216.628" y="300.156" type="line"/>
      <point x="263.854" y="330.127"/>
      <point x="266.022" y="362.443"/>
      <point x="266.022" y="392.096" type="curve" smooth="yes"/>
      <point x="266.022" y="398.567"/>
      <point x="266.216" y="404.869"/>
      <point x="266.596" y="411" type="curve" smooth="yes"/>
      <point x="273.906" y="529.113"/>
      <point x="349.977" y="584.156"/>
      <point x="431" y="584.156" type="curve" smooth="yes"/>
      <point x="530.285" y="584.156"/>
      <point x="635.323" y="521.089"/>
      <point x="635.323" y="319.014" type="curve" smooth="yes"/>
      <point x="635.323" y="215.319"/>
      <point x="578.001" y="123"/>
      <point x="469" y="123" type="curve"/>
      <point x="469" y="200" type="line"/>
      <point x="513.06" y="200"/>
      <point x="526.302" y="263.992"/>
      <point x="526.302" y="314.211" type="curve" smooth="yes"/>
      <point x="526.302" y="432.882"/>
      <point x="478.167" y="477.156"/>
      <point x="431" y="477.156" type="curve" smooth="yes"/>
      <point x="385.726" y="477.156"/>
      <point x="371.475" y="447.257"/>
      <point x="368.594" y="389" type="curve" smooth="yes"/>
      <point x="368.178" y="380.59"/>
      <point x="368" y="371.588"/>
      <point x="368" y="362" type="curve" smooth="yes"/>
      <point x="368" y="286.156"/>
      <point x="323" y="254"/>
      <point x="263" y="220" type="curve"/>
    </contour>
    <contour>
      <point x="22" y="292" type="curve" smooth="yes"/>
      <point x="22" y="514.574"/>
      <point x="106.772" y="584"/>
      <point x="210.372" y="584" type="curve" smooth="yes"/>
      <point x="286.286" y="584"/>
      <point x="327.715" y="533.979"/>
      <point x="337" y="498" type="curve"/>
      <point x="272" y="426" type="line"/>
      <point x="266.823" y="442.586"/>
      <point x="252" y="478"/>
      <point x="210.372" y="478" type="curve" smooth="yes"/>
      <point x="167.27" y="478"/>
      <point x="131" y="433.659"/>
      <point x="131" y="292" type="curve" smooth="yes"/>
      <point x="131" y="144.453"/>
      <point x="177.415" y="107"/>
      <point x="227" y="107" type="curve" smooth="yes"/>
      <point x="288" y="107"/>
      <point x="306.628" y="146.156"/>
      <point x="306.628" y="184.156" type="curve" smooth="yes"/>
      <point x="306.628" y="219.156"/>
      <point x="290.891" y="231.251"/>
      <point x="278.628" y="236.156" type="curve"/>
      <point x="341.628" y="306.156" type="line"/>
      <point x="377.628" y="294.449"/>
      <point x="408.628" y="243.156"/>
      <point x="408.628" y="189.156" type="curve" smooth="yes"/>
      <point x="408.628" y="94.7305"/>
      <point x="357.561" y="0"/>
      <point x="227" y="0" type="curve" smooth="yes"/>
      <point x="120.001" y="0"/>
      <point x="22" y="57.625"/>
    </contour>
  </outline>
</glyph>
<glyph name="si_GhRa" format="1">
  <advance width="588"/>
  <outline>
    <contour>
      <point x="37.334" y="207" type="curve" smooth="yes"/>
      <point x="37.334" y="248.301"/>
      <point x="48.8164" y="294"/>
      <point x="62.8164" y="319.563" type="curve"/>
      <point x="22" y="319.667" type="line"/>
      <point x="22" y="416" type="line"/>
      <point x="416.816" y="416.001" type="line" smooth="yes"/>
      <point x="450.554" y="416"/>
      <point x="481.775" y="400.31"/>
      <point x="505" y="380.4" type="curve" smooth="yes"/>
      <point x="547.435" y="344.021"/>
      <point x="566.773" y="287.785"/>
      <point x="566.773" y="207" type="curve" smooth="yes"/>
      <point x="566.773" y="95.0957"/>
      <point x="528.667" y="0"/>
      <point x="417.054" y="0" type="curve" smooth="yes"/>
      <point x="350.579" y="0"/>
      <point x="318.054" y="54"/>
      <point x="318.054" y="94" type="curve" smooth="yes"/>
      <point x="318.054" y="125"/>
      <point x="324.054" y="141.674"/>
      <point x="324.054" y="158" type="curve" smooth="yes"/>
      <point x="324.054" y="171.093"/>
      <point x="319.054" y="180"/>
      <point x="302.054" y="180" type="curve" smooth="yes"/>
      <point x="285.054" y="180"/>
      <point x="280.054" y="171.093"/>
      <point x="280.054" y="158" type="curve" smooth="yes"/>
      <point x="280.054" y="141.674"/>
      <point x="286.054" y="125"/>
      <point x="286.054" y="94" type="curve" smooth="yes"/>
      <point x="286.054" y="54"/>
      <point x="253.528" y="0"/>
      <point x="187.054" y="0" type="curve" smooth="yes"/>
      <point x="75.4404" y="0"/>
      <point x="37.334" y="95.0957"/>
    </contour>
    <contour>
      <point x="259.374" y="467.354" type="curve" smooth="yes"/>
      <point x="259.374" y="473.071"/>
      <point x="259.938" y="478.329"/>
      <point x="261.189" y="483" type="curve" smooth="yes"/>
      <point x="280.818" y="556.276"/>
      <point x="339.908" y="594"/>
      <point x="402.727" y="594" type="curve" smooth="yes"/>
      <point x="489.286" y="594"/>
      <point x="541.386" y="532.137"/>
      <point x="541.386" y="456.407" type="curve" smooth="yes"/>
      <point x="541.386" y="428.149"/>
      <point x="530.138" y="394.649"/>
      <point x="510" y="369.03" type="curve"/>
      <point x="433.291" y="410.437" type="line"/>
      <point x="441.274" y="419.561"/>
      <point x="447.91" y="439.108"/>
      <point x="447.91" y="451.164" type="curve" smooth="yes"/>
      <point x="447.91" y="475"/>
      <point x="433.697" y="496"/>
      <point x="398.554" y="496" type="curve" smooth="yes"/>
      <point x="375.815" y="496"/>
      <point x="346.989" y="481.03"/>
      <point x="346.989" y="434.342" type="curve" smooth="yes"/>
      <point x="346.989" y="428.679"/>
      <point x="347.492" y="422.272"/>
      <point x="348.554" y="416.03" type="curve" smooth="yes"/>
      <point x="302.054" y="318.437" type="line"/>
      <point x="289.442" y="359.423"/>
      <point x="259.374" y="425.625"/>
    </contour>
    <contour>
      <point x="144.334" y="207" type="curve" smooth="yes"/>
      <point x="144.334" y="157.265"/>
      <point x="151.76" y="115"/>
      <point x="187.054" y="115" type="curve" smooth="yes"/>
      <point x="200.12" y="115"/>
      <point x="203.604" y="123.059"/>
      <point x="203.604" y="135.414" type="curve" smooth="yes"/>
      <point x="203.604" y="149.535"/>
      <point x="199.054" y="169.269"/>
      <point x="199.054" y="189" type="curve" smooth="yes"/>
      <point x="199.054" y="236.994"/>
      <point x="231.054" y="258"/>
      <point x="302.054" y="258" type="curve" smooth="yes"/>
      <point x="373.054" y="258"/>
      <point x="405.054" y="236.994"/>
      <point x="405.054" y="189" type="curve" smooth="yes"/>
      <point x="405.054" y="169.269"/>
      <point x="400.503" y="149.535"/>
      <point x="400.503" y="135.414" type="curve" smooth="yes"/>
      <point x="400.503" y="123.059"/>
      <point x="403.987" y="115"/>
      <point x="417.054" y="115" type="curve" smooth="yes"/>
      <point x="452.348" y="115"/>
      <point x="459.773" y="157.265"/>
      <point x="459.773" y="207" type="curve" smooth="yes"/>
      <point x="459.773" y="258.726"/>
      <point x="439.816" y="318"/>
      <point x="399.535" y="318" type="curve" smooth="yes"/>
      <point x="204.572" y="318" type="line" smooth="yes"/>
      <point x="163.816" y="318"/>
      <point x="144.334" y="258.09"/>
    </contour>
    <contour>
      <point x="65.7656" y="461.536" type="curve" smooth="yes"/>
      <point x="65.7656" y="532.132"/>
      <point x="113.766" y="594"/>
      <point x="201.381" y="594" type="curve" smooth="yes"/>
      <point x="264.199" y="594"/>
      <point x="323.293" y="556.277"/>
      <point x="342.918" y="483" type="curve" smooth="yes"/>
      <point x="344.169" y="478.329"/>
      <point x="344.733" y="473.071"/>
      <point x="344.733" y="467.354" type="curve" smooth="yes"/>
      <point x="344.733" y="425.625"/>
      <point x="314.665" y="359.423"/>
      <point x="302.054" y="318.437" type="curve"/>
      <point x="255.554" y="416" type="line" smooth="yes"/>
      <point x="256.615" y="422.253"/>
      <point x="257.118" y="428.669"/>
      <point x="257.118" y="434.342" type="curve" smooth="yes"/>
      <point x="257.118" y="481.03"/>
      <point x="228.292" y="496"/>
      <point x="205.554" y="496" type="curve" smooth="yes"/>
      <point x="173.512" y="496"/>
      <point x="158.611" y="474.293"/>
      <point x="158.611" y="450.723" type="curve" smooth="yes"/>
      <point x="158.611" y="437.757"/>
      <point x="163.12" y="424.227"/>
      <point x="171.766" y="413.437" type="curve"/>
      <point x="96.0547" y="375.437" type="line"/>
      <point x="75.0283" y="403.236"/>
      <point x="65.7656" y="433.095"/>
    </contour>
    <contour>
      <point x="42.0537" y="-79" type="curve" smooth="yes"/>
      <point x="152.054" y="-79" type="line" smooth="yes"/>
      <point x="152.054" y="-139.032"/>
      <point x="210.219" y="-178"/>
      <point x="302.054" y="-178" type="curve" smooth="yes"/>
      <point x="393.889" y="-178"/>
      <point x="452.054" y="-140.27"/>
      <point x="452.054" y="-69" type="curve" smooth="yes"/>
      <point x="452.054" y="-37"/>
      <point x="448.771" y="-7"/>
      <point x="394.054" y="23" type="curve"/>
      <point x="372.054" y="72" type="line"/>
      <point x="475.054" y="79" type="line"/>
      <point x="538.054" y="55"/>
      <point x="562.054" y="-16"/>
      <point x="562.054" y="-79" type="curve" smooth="yes"/>
      <point x="562.054" y="-224"/>
      <point x="440.054" y="-284"/>
      <point x="302.054" y="-284" type="curve" smooth="yes"/>
      <point x="164.054" y="-284"/>
      <point x="42.0537" y="-224"/>
    </contour>
  </outline>
</glyph>
<glyph name="si_H.halant" format="1">
  <advance width="692"/>
  <outline>
    <contour>
      <point x="21.4912" y="206.949" type="curve" smooth="yes"/>
      <point x="21.4912" y="287.734"/>
      <point x="40.8301" y="343.97"/>
      <point x="83.2646" y="380.348" type="curve" smooth="yes"/>
      <point x="106.488" y="400.258"/>
      <point x="136.716" y="415.948"/>
      <point x="171.448" y="415.948" type="curve" smooth="yes"/>
      <point x="330.692" y="415.948" type="line"/>
      <point x="316.692" y="317.948" type="line"/>
      <point x="188.729" y="317.948" type="line" smooth="yes"/>
      <point x="143.327" y="317.948"/>
      <point x="120.344" y="263.999"/>
      <point x="120.344" y="215.999" type="curve" smooth="yes"/>
      <point x="120.344" y="166.359"/>
      <point x="142.938" y="106.999"/>
      <point x="218.344" y="106.999" type="curve" smooth="yes"/>
      <point x="285.001" y="106.999"/>
      <point x="301.716" y="140.955"/>
      <point x="301.716" y="169.999" type="curve" smooth="yes"/>
      <point x="301.716" y="180.208"/>
      <point x="299.865" y="195.968"/>
      <point x="287.447" y="195.968" type="curve" smooth="yes"/>
      <point x="281.716" y="195.968"/>
      <point x="277.716" y="193.999"/>
      <point x="274.716" y="191.999" type="curve"/>
      <point x="230.716" y="271.999" type="line"/>
      <point x="252.472" y="281.04"/>
      <point x="276.063" y="286.17"/>
      <point x="298.717" y="286.17" type="curve" smooth="yes"/>
      <point x="356.241" y="286.17"/>
      <point x="407.716" y="253.094"/>
      <point x="407.716" y="166.999" type="curve" smooth="yes"/>
      <point x="407.716" y="98.999"/>
      <point x="363.271" y="-0.000976562"/>
      <point x="218.344" y="-0.000976562" type="curve" smooth="yes"/>
      <point x="92.7422" y="-0.000976562"/>
      <point x="21.4912" y="101.995"/>
    </contour>
    <contour>
      <point x="546" y="634.649" type="curve"/>
      <point x="562" y="711.844" type="line"/>
      <point x="567.819" y="710.582"/>
      <point x="573.098" y="710.003"/>
      <point x="577.872" y="710.003" type="curve" smooth="yes"/>
      <point x="600.665" y="710.003"/>
      <point x="609" y="728.054"/>
      <point x="609" y="748.844" type="curve" smooth="yes"/>
      <point x="609" y="786.445"/>
      <point x="582.267" y="787.776"/>
      <point x="570.808" y="787.776" type="curve" smooth="yes"/>
      <point x="567.788" y="787.776"/>
      <point x="565.108" y="787.446"/>
      <point x="563" y="786.844" type="curve"/>
      <point x="542" y="823.844" type="line"/>
      <point x="572" y="865.844" type="line"/>
      <point x="608" y="865.844"/>
      <point x="692" y="861.844"/>
      <point x="692" y="748.844" type="curve" smooth="yes"/>
      <point x="692" y="673.57"/>
      <point x="642.227" y="628.844"/>
      <point x="584.676" y="628.844" type="curve" smooth="yes"/>
      <point x="572.011" y="628.844"/>
      <point x="558.97" y="630.759"/>
    </contour>
    <contour>
      <point x="479" y="865.844" type="line"/>
      <point x="572" y="865.844" type="line"/>
      <point x="572" y="811.844" type="line"/>
      <point x="565" y="795.844" type="line"/>
      <point x="565" y="766.844"/>
      <point x="565" y="734.844"/>
      <point x="565" y="703.844" type="curve"/>
      <point x="572" y="683.844" type="line"/>
      <point x="572" y="479.844" type="line"/>
      <point x="479" y="479.844" type="line"/>
    </contour>
    <contour>
      <point x="198.716" y="255.156" type="line"/>
      <point x="238.544" y="282.183"/>
      <point x="250.172" y="331.57"/>
      <point x="259.277" y="384" type="curve" smooth="yes"/>
      <point x="275.777" y="479.008"/>
      <point x="283.994" y="584"/>
      <point x="436.716" y="584" type="curve" smooth="yes"/>
      <point x="543.715" y="584"/>
      <point x="641.716" y="526.375"/>
      <point x="641.716" y="292" type="curve" smooth="yes"/>
      <point x="641.716" y="69.4258"/>
      <point x="556.943" y="0"/>
      <point x="453.344" y="0" type="curve" smooth="yes"/>
      <point x="377.43" y="0"/>
      <point x="336.001" y="50.0215"/>
      <point x="326.716" y="86" type="curve"/>
      <point x="391.716" y="158" type="line"/>
      <point x="396.893" y="141.414"/>
      <point x="411.716" y="104"/>
      <point x="453.344" y="104" type="curve" smooth="yes"/>
      <point x="496.446" y="104"/>
      <point x="535.716" y="150.341"/>
      <point x="535.716" y="292" type="curve" smooth="yes"/>
      <point x="535.716" y="439.547"/>
      <point x="486.301" y="478"/>
      <point x="436.716" y="478" type="curve" smooth="yes"/>
      <point x="375.278" y="478"/>
      <point x="361.932" y="429.943"/>
      <point x="351.407" y="371" type="curve" smooth="yes"/>
      <point x="339.319" y="303.303"/>
      <point x="330.951" y="221.249"/>
      <point x="257.716" y="181.156" type="curve"/>
    </contour>
    <contour>
      <point x="46.6162" y="456.356" type="curve" smooth="yes"/>
      <point x="46.6162" y="532.114"/>
      <point x="98.7158" y="594"/>
      <point x="185.275" y="594" type="curve" smooth="yes"/>
      <point x="248.094" y="594"/>
      <point x="307.176" y="556.257"/>
      <point x="326.812" y="482.949" type="curve" smooth="yes"/>
      <point x="327.973" y="478.618"/>
      <point x="333.772" y="455.665"/>
      <point x="333.772" y="433.215" type="curve" smooth="yes"/>
      <point x="333.772" y="389.238"/>
      <point x="329.594" y="359.879"/>
      <point x="316.692" y="317.949" type="curve"/>
      <point x="239.448" y="415.949" type="line"/>
      <point x="240.51" y="422.191"/>
      <point x="241.013" y="428.628"/>
      <point x="241.013" y="434.291" type="curve" smooth="yes"/>
      <point x="241.013" y="481.018"/>
      <point x="212.187" y="496"/>
      <point x="189.448" y="496" type="curve" smooth="yes"/>
      <point x="154.305" y="496"/>
      <point x="140.092" y="474.977"/>
      <point x="140.092" y="451.113" type="curve" smooth="yes"/>
      <point x="140.092" y="439.058"/>
      <point x="146.728" y="419.51"/>
      <point x="154.711" y="410.386" type="curve"/>
      <point x="78.002" y="368.979" type="line"/>
      <point x="57.8643" y="394.599"/>
      <point x="46.6162" y="428.099"/>
    </contour>
  </outline>
</glyph>
<glyph name="si_Jha.reph" format="1">
  <advance width="1050"/>
  <outline>
    <contour>
      <point x="58.1025" y="83" type="curve" smooth="yes"/>
      <point x="58.1025" y="91.8301"/>
      <point x="58.8291" y="99"/>
      <point x="58.8291" y="106" type="curve" smooth="yes"/>
      <point x="58.8291" y="120.562"/>
      <point x="48.7852" y="128.335"/>
      <point x="37.2754" y="128.335" type="curve" smooth="yes"/>
      <point x="34.1582" y="128.335"/>
      <point x="30.6543" y="127.574"/>
      <point x="26.7412" y="126" type="curve"/>
      <point x="41.1133" y="192" type="line"/>
      <point x="104.829" y="221" type="line"/>
      <point x="109.053" y="216.17"/>
      <point x="112.953" y="211.757"/>
      <point x="117.829" y="207" type="curve" smooth="yes"/>
      <point x="125.259" y="199.927"/>
      <point x="134.297" y="191.219"/>
      <point x="134.297" y="167" type="curve" smooth="yes"/>
      <point x="134.297" y="162"/>
      <point x="134.113" y="159.963"/>
      <point x="134.113" y="156" type="curve" smooth="yes"/>
      <point x="134.113" y="138.592"/>
      <point x="135.989" y="109"/>
      <point x="160.113" y="109" type="curve" smooth="yes"/>
      <point x="175.143" y="109"/>
      <point x="191.485" y="119"/>
      <point x="191.485" y="160" type="curve" smooth="yes"/>
      <point x="191.485" y="227" type="line"/>
      <point x="281.485" y="227" type="line"/>
      <point x="281.485" y="160" type="line" smooth="yes"/>
      <point x="281.485" y="122"/>
      <point x="294.113" y="109"/>
      <point x="313.113" y="109" type="curve" smooth="yes"/>
      <point x="348.113" y="109"/>
      <point x="353.201" y="165.987"/>
      <point x="353.201" y="210" type="curve" smooth="yes"/>
      <point x="353.201" y="307.753"/>
      <point x="318.113" y="343"/>
      <point x="279.113" y="343" type="curve" smooth="yes"/>
      <point x="252.06" y="343"/>
      <point x="239.113" y="330.903"/>
      <point x="229.113" y="322" type="curve"/>
      <point x="180.113" y="358" type="line"/>
      <point x="215.742" y="415.504"/>
      <point x="252.982" y="429.167"/>
      <point x="314.857" y="429.167" type="curve" smooth="yes"/>
      <point x="381.113" y="429.167"/>
      <point x="460.201" y="400"/>
      <point x="460.201" y="210" type="curve" smooth="yes"/>
      <point x="460.201" y="111.981"/>
      <point x="420.156" y="0"/>
      <point x="323.113" y="0" type="curve" smooth="yes"/>
      <point x="275.156" y="0"/>
      <point x="247.623" y="29"/>
      <point x="237.113" y="52" type="curve"/>
      <point x="228.076" y="31"/>
      <point x="201.127" y="0"/>
      <point x="157.113" y="0" type="curve" smooth="yes"/>
      <point x="80.0352" y="0"/>
      <point x="58.1025" y="46"/>
    </contour>
    <contour>
      <point x="584.055" y="706.572" type="curve" smooth="yes"/>
      <point x="584.055" y="776.741"/>
      <point x="635.578" y="848.83"/>
      <point x="746.762" y="848.83" type="curve" smooth="yes"/>
      <point x="849.081" y="848.83"/>
      <point x="926.762" y="782.337"/>
      <point x="926.762" y="673" type="curve" smooth="yes"/>
      <point x="926.762" y="630.604"/>
      <point x="896.78" y="557.011"/>
      <point x="840.762" y="530" type="curve"/>
      <point x="790.762" y="594" type="line"/>
      <point x="825.762" y="615.392"/>
      <point x="833.762" y="652"/>
      <point x="833.762" y="676" type="curve" smooth="yes"/>
      <point x="833.762" y="733.027"/>
      <point x="799.498" y="772"/>
      <point x="740.762" y="772" type="curve" smooth="yes"/>
      <point x="694.473" y="772"/>
      <point x="657.762" y="747.116"/>
      <point x="657.762" y="706.83" type="curve" smooth="yes"/>
      <point x="657.762" y="687.128"/>
      <point x="665.624" y="667.244"/>
      <point x="680.762" y="656.83" type="curve"/>
      <point x="755.097" y="618.53" type="line"/>
      <point x="655" y="587" type="line"/>
      <point x="602" y="607"/>
      <point x="584.055" y="652.682"/>
    </contour>
    <contour>
      <point x="665.812" y="685.258" type="curve" smooth="yes"/>
      <point x="665.812" y="668.959"/>
      <point x="678.729" y="655.83"/>
      <point x="694.762" y="655.83" type="curve" smooth="yes"/>
      <point x="710.795" y="655.83"/>
      <point x="723.711" y="668.959"/>
      <point x="723.711" y="685.258" type="curve" smooth="yes"/>
      <point x="723.711" y="701.557"/>
      <point x="710.795" y="714.687"/>
      <point x="694.762" y="714.687" type="curve" smooth="yes"/>
      <point x="678.729" y="714.687"/>
      <point x="665.812" y="701.557"/>
    </contour>
    <contour>
      <point x="587.762" y="685" type="curve" smooth="yes"/>
      <point x="587.762" y="741"/>
      <point x="655.073" y="768.567"/>
      <point x="711.644" y="768.567" type="curve" smooth="yes"/>
      <point x="762.805" y="768.567"/>
      <point x="804.244" y="731.924"/>
      <point x="804.244" y="685" type="curve" smooth="yes"/>
      <point x="804.244" y="626.291"/>
      <point x="755.397" y="579"/>
      <point x="694.762" y="579" type="curve" smooth="yes"/>
      <point x="635.5" y="579"/>
      <point x="587.762" y="626.291"/>
    </contour>
    <contour>
      <point x="517.762" y="662" type="line"/>
      <point x="544.762" y="688"/>
      <point x="576.196" y="715.017"/>
      <point x="624.762" y="729.287" type="curve"/>
      <point x="688.762" y="630" type="line"/>
      <point x="617.341" y="628.73"/>
      <point x="608.762" y="614"/>
      <point x="576.762" y="588" type="curve"/>
    </contour>
    <contour>
      <point x="490.655" y="231.204" type="curve" smooth="yes"/>
      <point x="490.655" y="277.471"/>
      <point x="496.866" y="319.61"/>
      <point x="504.783" y="345" type="curve" smooth="yes"/>
      <point x="528.853" y="422.729"/>
      <point x="584.234" y="472"/>
      <point x="656.333" y="472" type="curve" smooth="yes"/>
      <point x="684.1" y="472"/>
      <point x="713.131" y="465.063"/>
      <point x="741.505" y="445.258" type="curve"/>
      <point x="703.64" y="345" type="line"/>
      <point x="689.792" y="352.989"/>
      <point x="677.122" y="356.607"/>
      <point x="665.776" y="356.607" type="curve" smooth="yes"/>
      <point x="638.993" y="356.607"/>
      <point x="619.594" y="336.442"/>
      <point x="609.52" y="306" type="curve" smooth="yes"/>
      <point x="605.088" y="291.601"/>
      <point x="601.603" y="261.724"/>
      <point x="601.603" y="229.771" type="curve" smooth="yes"/>
      <point x="601.603" y="175.234"/>
      <point x="611.756" y="114.652"/>
      <point x="644.693" y="114.652" type="curve" smooth="yes"/>
      <point x="686.869" y="114.652"/>
      <point x="701.875" y="179.678"/>
      <point x="701.875" y="249.5" type="curve"/>
      <point x="797.786" y="249.5" type="line"/>
      <point x="797.786" y="176.75"/>
      <point x="813.254" y="115"/>
      <point x="856.244" y="115" type="curve" smooth="yes"/>
      <point x="913" y="115"/>
      <point x="913" y="239.958"/>
      <point x="913" y="293" type="curve" smooth="yes"/>
      <point x="913" y="445.199"/>
      <point x="894.138" y="547.957"/>
      <point x="841.304" y="600" type="curve"/>
      <point x="889.24" y="702" type="line"/>
      <point x="991.358" y="645.847"/>
      <point x="1028" y="514.057"/>
      <point x="1028" y="293" type="curve" smooth="yes"/>
      <point x="1028" y="181.996"/>
      <point x="1027" y="0"/>
      <point x="856.244" y="0" type="curve" smooth="yes"/>
      <point x="800.324" y="0"/>
      <point x="762.302" y="33.1445"/>
      <point x="747.481" y="79.0303" type="curve"/>
      <point x="731.336" y="31.6025"/>
      <point x="691.924" y="0"/>
      <point x="639.244" y="0" type="curve" smooth="yes"/>
      <point x="522.636" y="0"/>
      <point x="490.655" y="126.225"/>
    </contour>
    <contour>
      <point x="22.7412" y="232" type="line"/>
      <point x="242.201" y="489" type="line" smooth="yes"/>
      <point x="290.849" y="545.305"/>
      <point x="343.113" y="585"/>
      <point x="433.113" y="585" type="curve" smooth="yes"/>
      <point x="525.847" y="585"/>
      <point x="607.75" y="536.659"/>
      <point x="647.087" y="428" type="curve"/>
      <point x="544.639" y="383" type="line"/>
      <point x="524.644" y="441.521"/>
      <point x="486.596" y="473"/>
      <point x="433.113" y="473" type="curve" smooth="yes"/>
      <point x="380.113" y="473"/>
      <point x="353.113" y="458"/>
      <point x="314.113" y="416" type="curve" smooth="yes"/>
      <point x="314.113" y="416"/>
      <point x="202.641" y="290.156"/>
      <point x="118.113" y="205" type="curve"/>
      <point x="26.7412" y="126" type="line"/>
    </contour>
    <contour>
      <point x="19.1133" y="461.536" type="curve" smooth="yes"/>
      <point x="19.1133" y="532.132"/>
      <point x="67.1133" y="594"/>
      <point x="154.729" y="594" type="curve" smooth="yes"/>
      <point x="231.719" y="594"/>
      <point x="303.113" y="537.336"/>
      <point x="303.113" y="428" type="curve"/>
      <point x="205.484" y="375" type="line"/>
      <point x="205.484" y="386"/>
      <point x="205.484" y="428.648"/>
      <point x="205.484" y="434.312" type="curve" smooth="yes"/>
      <point x="205.484" y="471.944"/>
      <point x="181.64" y="496"/>
      <point x="153.113" y="496" type="curve" smooth="yes"/>
      <point x="125.279" y="496"/>
      <point x="111.688" y="475.013"/>
      <point x="111.688" y="451.903" type="curve" smooth="yes"/>
      <point x="111.688" y="411.899"/>
      <point x="138.912" y="394.899"/>
      <point x="168.912" y="387.899" type="curve"/>
      <point x="109.201" y="327.899" type="line"/>
      <point x="63.9121" y="344.899"/>
      <point x="19.1133" y="391.899"/>
    </contour>
  </outline>
</glyph>
<glyph name="si_JnyIi" format="1">
  <advance width="1073"/>
  <outline>
    <contour>
      <point x="891.476" y="625.615" type="curve" smooth="yes"/>
      <point x="891.476" y="603.364"/>
      <point x="909.108" y="585.44"/>
      <point x="930.997" y="585.44" type="curve" smooth="yes"/>
      <point x="952.886" y="585.44"/>
      <point x="970.519" y="603.364"/>
      <point x="970.519" y="625.615" type="curve" smooth="yes"/>
      <point x="970.519" y="647.865"/>
      <point x="952.886" y="665.79"/>
      <point x="930.997" y="665.79" type="curve" smooth="yes"/>
      <point x="909.108" y="665.79"/>
      <point x="891.476" y="647.865"/>
    </contour>
    <contour>
      <point x="800" y="626" type="curve" smooth="yes"/>
      <point x="800" y="702.333"/>
      <point x="857.562" y="737.698"/>
      <point x="909.2" y="737.698" type="curve" smooth="yes"/>
      <point x="929.271" y="737.698"/>
      <point x="948.446" y="732.355"/>
      <point x="963" y="722" type="curve"/>
      <point x="981.5" y="722"/>
      <point x="1060" y="710.206"/>
      <point x="1060" y="626" type="curve" smooth="yes"/>
      <point x="1060" y="554"/>
      <point x="1002" y="496"/>
      <point x="930" y="496" type="curve" smooth="yes"/>
      <point x="858" y="496"/>
      <point x="800" y="554"/>
    </contour>
    <contour>
      <point x="559" y="656" type="curve" smooth="yes"/>
      <point x="559" y="800.146"/>
      <point x="680.062" y="866"/>
      <point x="817" y="866" type="curve" smooth="yes"/>
      <point x="952.877" y="866"/>
      <point x="1073" y="806"/>
      <point x="1073" y="661" type="curve" smooth="yes"/>
      <point x="1073" y="598"/>
      <point x="1038" y="522"/>
      <point x="971" y="503" type="curve"/>
      <point x="883" y="510" type="line"/>
      <point x="890" y="559" type="line"/>
      <point x="939.087" y="561.166"/>
      <point x="975.668" y="591.991"/>
      <point x="975.668" y="624.394" type="curve" smooth="yes"/>
      <point x="975.668" y="636.878"/>
      <point x="970.237" y="649.597"/>
      <point x="958" y="661" type="curve"/>
      <point x="958" y="719"/>
      <point x="905.706" y="755"/>
      <point x="817" y="755" type="curve" smooth="yes"/>
      <point x="727.002" y="755"/>
      <point x="670" y="710.128"/>
      <point x="670" y="641" type="curve" smooth="yes"/>
      <point x="670" y="606.412"/>
      <point x="678.823" y="575.117"/>
      <point x="710" y="557" type="curve"/>
      <point x="717" y="508" type="line"/>
      <point x="668" y="507" type="line"/>
      <point x="600.677" y="529.633"/>
      <point x="559" y="587.569"/>
    </contour>
    <contour>
      <point x="742.334" y="-57.9707" type="curve" smooth="yes"/>
      <point x="742.334" y="-31.606"/>
      <point x="749.78" y="-4.27525"/>
      <point x="766" y="21.5381" type="curve"/>
      <point x="856" y="44.4365" type="line"/>
      <point x="866" y="4" type="line"/>
      <point x="854.925" y="-8.77364"/>
      <point x="849.221" y="-26.3193"/>
      <point x="849.221" y="-43.2051" type="curve" smooth="yes"/>
      <point x="849.221" y="-70.9962"/>
      <point x="864.672" y="-97"/>
      <point x="897.055" y="-97" type="curve" smooth="yes"/>
      <point x="921.686" y="-97"/>
      <point x="948.509" y="-85.0557"/>
      <point x="971" y="-54.5635" type="curve"/>
      <point x="1048" y="-106.563" type="line"/>
      <point x="1002.09" y="-175.431"/>
      <point x="947.333" y="-202.407"/>
      <point x="897.055" y="-202.407" type="curve" smooth="yes"/>
      <point x="804.628" y="-202.407"/>
      <point x="742.334" y="-134.23"/>
    </contour>
    <contour>
      <point x="610" y="217" type="curve" smooth="yes"/>
      <point x="610" y="330.947"/>
      <point x="706.68" y="421.352"/>
      <point x="827" y="421.352" type="curve" smooth="yes"/>
      <point x="845.83" y="421.352"/>
      <point x="858" y="420"/>
      <point x="875.807" y="418.437" type="curve"/>
      <point x="876.868" y="424.679"/>
      <point x="877.371" y="430.648"/>
      <point x="877.371" y="436.312" type="curve" smooth="yes"/>
      <point x="877.371" y="473.944"/>
      <point x="855.142" y="498"/>
      <point x="826.615" y="498" type="curve" smooth="yes"/>
      <point x="797.26" y="498"/>
      <point x="781.432" y="477"/>
      <point x="781.432" y="453.164" type="curve" smooth="yes"/>
      <point x="781.432" y="440.756"/>
      <point x="784.948" y="427.391"/>
      <point x="792.78" y="418" type="curve"/>
      <point x="715" y="379" type="line"/>
      <point x="695.69" y="404.207"/>
      <point x="687.956" y="430.604"/>
      <point x="687.956" y="458.407" type="curve" smooth="yes"/>
      <point x="687.956" y="534.137"/>
      <point x="740.056" y="596"/>
      <point x="826.615" y="596" type="curve" smooth="yes"/>
      <point x="903.605" y="596"/>
      <point x="975" y="539.336"/>
      <point x="975" y="430" type="curve" smooth="yes"/>
      <point x="975" y="398.735"/>
      <point x="968" y="357"/>
      <point x="956" y="318" type="curve"/>
      <point x="956" y="318"/>
      <point x="875.531" y="318"/>
      <point x="827" y="318" type="curve" smooth="yes"/>
      <point x="771" y="318"/>
      <point x="722" y="274"/>
      <point x="722" y="217" type="curve" smooth="yes"/>
      <point x="722" y="160"/>
      <point x="768.782" y="116"/>
      <point x="827" y="116" type="curve" smooth="yes"/>
      <point x="862.293" y="116"/>
      <point x="893.569" y="131.386"/>
      <point x="913.662" y="155.437" type="curve"/>
      <point x="1000" y="93.042" type="line"/>
      <point x="959.89" y="36.2998"/>
      <point x="897.454" y="0"/>
      <point x="827" y="0" type="curve" smooth="yes"/>
      <point x="706.664" y="0"/>
      <point x="610" y="96.6641"/>
    </contour>
    <contour>
      <point x="389.628" y="300.156" type="line"/>
      <point x="436.854" y="330.127"/>
      <point x="439.022" y="362.443"/>
      <point x="439.022" y="392.096" type="curve" smooth="yes"/>
      <point x="439.022" y="398.567"/>
      <point x="439.191" y="404.871"/>
      <point x="439.596" y="411" type="curve" smooth="yes"/>
      <point x="447.395" y="529.113"/>
      <point x="528.555" y="584.156"/>
      <point x="615" y="584.156" type="curve" smooth="yes"/>
      <point x="702.165" y="584.156"/>
      <point x="763.236" y="533.447"/>
      <point x="782" y="444" type="curve" smooth="yes"/>
      <point x="694" y="419" type="line" smooth="yes"/>
      <point x="686.978" y="450"/>
      <point x="655.804" y="477.156"/>
      <point x="615" y="477.156" type="curve" smooth="yes"/>
      <point x="561.745" y="477.156"/>
      <point x="544.477" y="447.28"/>
      <point x="541.594" y="389" type="curve" smooth="yes"/>
      <point x="541.178" y="380.59"/>
      <point x="541" y="371.588"/>
      <point x="541" y="362" type="curve" smooth="yes"/>
      <point x="541" y="286.156"/>
      <point x="496" y="254"/>
      <point x="436" y="220" type="curve"/>
    </contour>
    <contour>
      <point x="195" y="292" type="curve" smooth="yes"/>
      <point x="195" y="514.574"/>
      <point x="279.772" y="584"/>
      <point x="383.372" y="584" type="curve" smooth="yes"/>
      <point x="459.286" y="584"/>
      <point x="500.715" y="533.979"/>
      <point x="510" y="498" type="curve"/>
      <point x="445" y="426" type="line"/>
      <point x="439.823" y="442.586"/>
      <point x="425" y="478"/>
      <point x="383.372" y="478" type="curve" smooth="yes"/>
      <point x="340.27" y="478"/>
      <point x="304" y="433.659"/>
      <point x="304" y="292" type="curve" smooth="yes"/>
      <point x="304" y="144.453"/>
      <point x="350.415" y="107"/>
      <point x="400" y="107" type="curve" smooth="yes"/>
      <point x="461" y="107"/>
      <point x="479.628" y="146.156"/>
      <point x="479.628" y="184.156" type="curve" smooth="yes"/>
      <point x="479.628" y="219.156"/>
      <point x="463.891" y="231.251"/>
      <point x="451.628" y="236.156" type="curve"/>
      <point x="514.628" y="306.156" type="line"/>
      <point x="550.628" y="294.449"/>
      <point x="581.628" y="243.156"/>
      <point x="581.628" y="189.156" type="curve" smooth="yes"/>
      <point x="581.628" y="94.7305"/>
      <point x="530.561" y="0"/>
      <point x="400" y="0" type="curve" smooth="yes"/>
      <point x="293.001" y="0"/>
      <point x="195" y="57.625"/>
    </contour>
    <contour>
      <point x="22" y="284" type="curve" smooth="yes"/>
      <point x="22" y="506.574"/>
      <point x="96.8718" y="584"/>
      <point x="188.372" y="584" type="curve" smooth="yes"/>
      <point x="257.691" y="584"/>
      <point x="295.521" y="527.58"/>
      <point x="304" y="487" type="curve"/>
      <point x="250" y="426" type="line"/>
      <point x="245.212" y="442.586"/>
      <point x="231.502" y="480"/>
      <point x="193" y="480" type="curve" smooth="yes"/>
      <point x="158.988" y="480"/>
      <point x="128" y="425.659"/>
      <point x="128" y="284" type="curve" smooth="yes"/>
      <point x="128" y="131.656"/>
      <point x="151.779" y="102"/>
      <point x="185" y="102" type="curve" smooth="yes"/>
      <point x="185" y="0" type="line" smooth="yes"/>
      <point x="90" y="0"/>
      <point x="22" y="46.2764"/>
    </contour>
  </outline>
</glyph>
<glyph name="si_JnyRa" format="1">
  <advance width="1039"/>
  <outline>
    <contour>
      <point x="610" y="-71" type="curve" smooth="yes"/>
      <point x="725" y="-71" type="line" smooth="yes"/>
      <point x="725" y="-128"/>
      <point x="759.512" y="-165"/>
      <point x="814" y="-165" type="curve" smooth="yes"/>
      <point x="887.349" y="-165"/>
      <point x="914" y="-116.83"/>
      <point x="914" y="-11" type="curve" smooth="yes"/>
      <point x="914" y="46.0781"/>
      <point x="914" y="101.984"/>
      <point x="914" y="155.437" type="curve"/>
      <point x="1017" y="155.437" type="line"/>
      <point x="1017" y="122.725"/>
      <point x="1017" y="58"/>
      <point x="1017" y="-43" type="curve" smooth="yes"/>
      <point x="1017" y="-205"/>
      <point x="942.566" y="-276"/>
      <point x="814" y="-276" type="curve" smooth="yes"/>
      <point x="705.723" y="-276"/>
      <point x="610" y="-216"/>
    </contour>
    <contour>
      <point x="610.338" y="217" type="curve" smooth="yes"/>
      <point x="610.338" y="330.947"/>
      <point x="707.018" y="421.352"/>
      <point x="827.338" y="421.352" type="curve" smooth="yes"/>
      <point x="846.168" y="421.352"/>
      <point x="858.338" y="420"/>
      <point x="876.145" y="418.437" type="curve"/>
      <point x="877.206" y="424.679"/>
      <point x="877.709" y="430.648"/>
      <point x="877.709" y="436.312" type="curve" smooth="yes"/>
      <point x="877.709" y="473.944"/>
      <point x="855.479" y="498"/>
      <point x="826.953" y="498" type="curve" smooth="yes"/>
      <point x="797.598" y="498"/>
      <point x="781.77" y="477"/>
      <point x="781.77" y="453.164" type="curve" smooth="yes"/>
      <point x="781.77" y="440.756"/>
      <point x="785.286" y="427.391"/>
      <point x="793.118" y="418" type="curve"/>
      <point x="715.338" y="379" type="line"/>
      <point x="696.028" y="404.207"/>
      <point x="688.294" y="430.604"/>
      <point x="688.294" y="458.407" type="curve" smooth="yes"/>
      <point x="688.294" y="534.137"/>
      <point x="740.394" y="596"/>
      <point x="826.953" y="596" type="curve" smooth="yes"/>
      <point x="903.943" y="596"/>
      <point x="975.338" y="539.336"/>
      <point x="975.338" y="430" type="curve" smooth="yes"/>
      <point x="975.338" y="398.735"/>
      <point x="968.338" y="357"/>
      <point x="956.338" y="318" type="curve"/>
      <point x="956.338" y="318"/>
      <point x="875.869" y="318"/>
      <point x="827.338" y="318" type="curve" smooth="yes"/>
      <point x="771.338" y="318"/>
      <point x="722.338" y="274"/>
      <point x="722.338" y="217" type="curve" smooth="yes"/>
      <point x="722.338" y="160"/>
      <point x="769.12" y="116"/>
      <point x="827.338" y="116" type="curve" smooth="yes"/>
      <point x="862.631" y="116"/>
      <point x="893.907" y="131.386"/>
      <point x="914" y="155.437" type="curve"/>
      <point x="1000.34" y="93.042" type="line"/>
      <point x="960.228" y="36.2998"/>
      <point x="897.792" y="0"/>
      <point x="827.338" y="0" type="curve" smooth="yes"/>
      <point x="707.002" y="0"/>
      <point x="610.338" y="96.6641"/>
    </contour>
    <contour>
      <point x="389.966" y="300.156" type="line"/>
      <point x="437.192" y="330.127"/>
      <point x="439.36" y="362.443"/>
      <point x="439.36" y="392.096" type="curve" smooth="yes"/>
      <point x="439.36" y="398.567"/>
      <point x="439.529" y="404.871"/>
      <point x="439.934" y="411" type="curve" smooth="yes"/>
      <point x="447.733" y="529.113"/>
      <point x="528.894" y="584.156"/>
      <point x="615.338" y="584.156" type="curve" smooth="yes"/>
      <point x="702.503" y="584.156"/>
      <point x="763.574" y="533.447"/>
      <point x="782.338" y="444" type="curve" smooth="yes"/>
      <point x="694.338" y="419" type="line" smooth="yes"/>
      <point x="687.315" y="450"/>
      <point x="656.143" y="477.156"/>
      <point x="615.338" y="477.156" type="curve" smooth="yes"/>
      <point x="562.083" y="477.156"/>
      <point x="544.814" y="447.28"/>
      <point x="541.932" y="389" type="curve" smooth="yes"/>
      <point x="541.516" y="380.59"/>
      <point x="541.338" y="371.588"/>
      <point x="541.338" y="362" type="curve" smooth="yes"/>
      <point x="541.338" y="286.156"/>
      <point x="496.338" y="254"/>
      <point x="436.338" y="220" type="curve"/>
    </contour>
    <contour>
      <point x="195.338" y="292" type="curve" smooth="yes"/>
      <point x="195.338" y="514.574"/>
      <point x="280.11" y="584"/>
      <point x="383.71" y="584" type="curve" smooth="yes"/>
      <point x="459.624" y="584"/>
      <point x="501.053" y="533.979"/>
      <point x="510.338" y="498" type="curve"/>
      <point x="445.338" y="426" type="line"/>
      <point x="440.161" y="442.586"/>
      <point x="425.338" y="478"/>
      <point x="383.71" y="478" type="curve" smooth="yes"/>
      <point x="340.607" y="478"/>
      <point x="304.338" y="433.659"/>
      <point x="304.338" y="292" type="curve" smooth="yes"/>
      <point x="304.338" y="144.453"/>
      <point x="350.753" y="107"/>
      <point x="400.338" y="107" type="curve" smooth="yes"/>
      <point x="461.338" y="107"/>
      <point x="479.966" y="146.156"/>
      <point x="479.966" y="184.156" type="curve" smooth="yes"/>
      <point x="479.966" y="219.156"/>
      <point x="464.229" y="231.251"/>
      <point x="451.966" y="236.156" type="curve"/>
      <point x="514.966" y="306.156" type="line"/>
      <point x="550.966" y="294.449"/>
      <point x="581.966" y="243.156"/>
      <point x="581.966" y="189.156" type="curve" smooth="yes"/>
      <point x="581.966" y="94.7305"/>
      <point x="530.898" y="0"/>
      <point x="400.338" y="0" type="curve" smooth="yes"/>
      <point x="293.339" y="0"/>
      <point x="195.338" y="57.625"/>
    </contour>
    <contour>
      <point x="22.3379" y="284" type="curve" smooth="yes"/>
      <point x="22.3379" y="506.574"/>
      <point x="97.21" y="584"/>
      <point x="188.71" y="584" type="curve" smooth="yes"/>
      <point x="258.029" y="584"/>
      <point x="295.859" y="527.58"/>
      <point x="304.338" y="487" type="curve"/>
      <point x="250.338" y="426" type="line"/>
      <point x="245.55" y="442.586"/>
      <point x="231.84" y="480"/>
      <point x="193.338" y="480" type="curve" smooth="yes"/>
      <point x="159.325" y="480"/>
      <point x="128.338" y="425.659"/>
      <point x="128.338" y="284" type="curve" smooth="yes"/>
      <point x="128.338" y="131.656"/>
      <point x="152.117" y="102"/>
      <point x="185.338" y="102" type="curve" smooth="yes"/>
      <point x="185.338" y="0" type="line" smooth="yes"/>
      <point x="90.3379" y="0"/>
      <point x="22.3379" y="46.2764"/>
    </contour>
  </outline>
</glyph>
<glyph name="si_KI" format="1">
  <advance width="696"/>
  <outline>
    <contour>
      <point x="118" y="661" type="curve" smooth="yes"/>
      <point x="118" y="789"/>
      <point x="240" y="866"/>
      <point x="378" y="866" type="curve" smooth="yes"/>
      <point x="516" y="866"/>
      <point x="638" y="806"/>
      <point x="638" y="661" type="curve" smooth="yes"/>
      <point x="638" y="598"/>
      <point x="599" y="527"/>
      <point x="536" y="503" type="curve"/>
      <point x="448" y="510" type="line"/>
      <point x="455" y="559" type="line"/>
      <point x="511.118" y="581"/>
      <point x="527" y="619"/>
      <point x="527" y="661" type="curve" smooth="yes"/>
      <point x="527" y="717.766"/>
      <point x="469.222" y="753"/>
      <point x="378" y="753" type="curve" smooth="yes"/>
      <point x="276.986" y="753"/>
      <point x="227" y="703.971"/>
      <point x="227" y="652" type="curve" smooth="yes"/>
      <point x="227" y="613.075"/>
      <point x="248.542" y="569.312"/>
      <point x="268" y="544" type="curve"/>
      <point x="280" y="474" type="line"/>
      <point x="220" y="503" type="line"/>
      <point x="157" y="527"/>
      <point x="118" y="598"/>
    </contour>
    <contour>
      <point x="25.6279" y="232" type="line"/>
      <point x="245.088" y="489" type="line" smooth="yes"/>
      <point x="293.441" y="545.624"/>
      <point x="357.088" y="585"/>
      <point x="447.088" y="585" type="curve" smooth="yes"/>
      <point x="564.716" y="585"/>
      <point x="674.716" y="486"/>
      <point x="674.716" y="263" type="curve" smooth="yes"/>
      <point x="674.716" y="58"/>
      <point x="601.6" y="0"/>
      <point x="498" y="0" type="curve" smooth="yes"/>
      <point x="422.086" y="0"/>
      <point x="393.285" y="58.0215"/>
      <point x="384" y="94" type="curve"/>
      <point x="452" y="158" type="line"/>
      <point x="453" y="134"/>
      <point x="456.372" y="103"/>
      <point x="498" y="103" type="curve" smooth="yes"/>
      <point x="541.103" y="103"/>
      <point x="563.716" y="137"/>
      <point x="563.716" y="263" type="curve" smooth="yes"/>
      <point x="563.716" y="399.94"/>
      <point x="511.94" y="473.229"/>
      <point x="437.359" y="473.229" type="curve" smooth="yes"/>
      <point x="384.359" y="473.229"/>
      <point x="355.775" y="457.743"/>
      <point x="317" y="416" type="curve" smooth="yes"/>
      <point x="317" y="416"/>
      <point x="205.527" y="290.156"/>
      <point x="121" y="205" type="curve"/>
      <point x="29.6279" y="126" type="line"/>
    </contour>
    <contour>
      <point x="60.9893" y="83" type="curve" smooth="yes"/>
      <point x="60.9893" y="91.8301"/>
      <point x="60.3982" y="99.5509"/>
      <point x="59.1406" y="106" type="curve" smooth="yes"/>
      <point x="56.3535" y="120.293"/>
      <point x="50.2969" y="128.335"/>
      <point x="40.1621" y="128.335" type="curve" smooth="yes"/>
      <point x="37.0449" y="128.335"/>
      <point x="33.541" y="127.574"/>
      <point x="29.6279" y="126" type="curve"/>
      <point x="44" y="192" type="line"/>
      <point x="120.54" y="206" type="line"/>
      <point x="121.664" y="204.621"/>
      <point x="122.831" y="203.329"/>
      <point x="124" y="202.003" type="curve" smooth="yes"/>
      <point x="129.768" y="195.46"/>
      <point x="135.603" y="188.061"/>
      <point x="136.783" y="165" type="curve" smooth="yes"/>
      <point x="136.925" y="162.233"/>
      <point x="137" y="159.242"/>
      <point x="137" y="156" type="curve" smooth="yes"/>
      <point x="137" y="138.592"/>
      <point x="138.876" y="109"/>
      <point x="163" y="109" type="curve" smooth="yes"/>
      <point x="178.029" y="109"/>
      <point x="194.372" y="119"/>
      <point x="194.372" y="160" type="curve" smooth="yes"/>
      <point x="194.372" y="227" type="line"/>
      <point x="284.372" y="227" type="line"/>
      <point x="284.372" y="160" type="line" smooth="yes"/>
      <point x="284.372" y="122"/>
      <point x="297" y="109"/>
      <point x="316" y="109" type="curve" smooth="yes"/>
      <point x="351" y="109"/>
      <point x="356.088" y="165.987"/>
      <point x="356.088" y="210" type="curve" smooth="yes"/>
      <point x="356.088" y="307.753"/>
      <point x="321" y="343"/>
      <point x="282" y="343" type="curve" smooth="yes"/>
      <point x="254.946" y="343"/>
      <point x="242" y="330.903"/>
      <point x="232" y="322" type="curve"/>
      <point x="183" y="358" type="line"/>
      <point x="218.629" y="415.504"/>
      <point x="255.869" y="429.167"/>
      <point x="317.744" y="429.167" type="curve" smooth="yes"/>
      <point x="384" y="429.167"/>
      <point x="463.088" y="400"/>
      <point x="463.088" y="210" type="curve" smooth="yes"/>
      <point x="463.088" y="111.981"/>
      <point x="423.043" y="0"/>
      <point x="326" y="0" type="curve" smooth="yes"/>
      <point x="278.043" y="0"/>
      <point x="250.51" y="29"/>
      <point x="240" y="52" type="curve"/>
      <point x="230.963" y="31"/>
      <point x="204.014" y="0"/>
      <point x="160" y="0" type="curve" smooth="yes"/>
      <point x="82.9219" y="0"/>
      <point x="60.9893" y="46"/>
    </contour>
    <contour>
      <point x="22" y="461.536" type="curve" smooth="yes"/>
      <point x="22" y="532.132"/>
      <point x="70" y="594"/>
      <point x="157.615" y="594" type="curve" smooth="yes"/>
      <point x="234.605" y="594"/>
      <point x="306" y="537.336"/>
      <point x="306" y="428" type="curve"/>
      <point x="208.371" y="375" type="line"/>
      <point x="208.371" y="386"/>
      <point x="208.371" y="428.648"/>
      <point x="208.371" y="434.312" type="curve" smooth="yes"/>
      <point x="208.371" y="471.944"/>
      <point x="184.526" y="496"/>
      <point x="156" y="496" type="curve" smooth="yes"/>
      <point x="128.166" y="496"/>
      <point x="114.575" y="475.013"/>
      <point x="114.575" y="451.903" type="curve" smooth="yes"/>
      <point x="114.575" y="411.899"/>
      <point x="141.799" y="394.899"/>
      <point x="171.799" y="387.899" type="curve"/>
      <point x="112.088" y="327.899" type="line"/>
      <point x="66.7988" y="344.899"/>
      <point x="22" y="391.899"/>
    </contour>
  </outline>
</glyph>
<glyph name="si_KVIi" format="1">
  <advance width="997"/>
  <outline>
    <contour>
      <point x="60.9893" y="83" type="curve" smooth="yes"/>
      <point x="60.9893" y="91.8301"/>
      <point x="61.7158" y="99"/>
      <point x="61.7158" y="106" type="curve" smooth="yes"/>
      <point x="61.7158" y="120.562"/>
      <point x="51.6719" y="128.335"/>
      <point x="40.1621" y="128.335" type="curve" smooth="yes"/>
      <point x="37.0449" y="128.335"/>
      <point x="33.541" y="127.574"/>
      <point x="29.6279" y="126" type="curve"/>
      <point x="44" y="192" type="line"/>
      <point x="107.716" y="221" type="line"/>
      <point x="111.939" y="216.17"/>
      <point x="115.84" y="211.757"/>
      <point x="120.716" y="207" type="curve" smooth="yes"/>
      <point x="128.146" y="199.927"/>
      <point x="137.184" y="191.219"/>
      <point x="137.184" y="167" type="curve" smooth="yes"/>
      <point x="137.184" y="162"/>
      <point x="137" y="159.963"/>
      <point x="137" y="156" type="curve" smooth="yes"/>
      <point x="137" y="138.592"/>
      <point x="138.876" y="109"/>
      <point x="163" y="109" type="curve" smooth="yes"/>
      <point x="178.029" y="109"/>
      <point x="194.372" y="119"/>
      <point x="194.372" y="160" type="curve" smooth="yes"/>
      <point x="194.372" y="227" type="line"/>
      <point x="284.372" y="227" type="line"/>
      <point x="284.372" y="160" type="line" smooth="yes"/>
      <point x="284.372" y="122"/>
      <point x="297" y="109"/>
      <point x="316" y="109" type="curve" smooth="yes"/>
      <point x="351" y="109"/>
      <point x="356.088" y="165.987"/>
      <point x="356.088" y="210" type="curve" smooth="yes"/>
      <point x="356.088" y="307.753"/>
      <point x="321" y="343"/>
      <point x="282" y="343" type="curve" smooth="yes"/>
      <point x="254.946" y="343"/>
      <point x="242" y="330.903"/>
      <point x="232" y="322" type="curve"/>
      <point x="183" y="358" type="line"/>
      <point x="218.629" y="415.504"/>
      <point x="255.869" y="429.167"/>
      <point x="317.744" y="429.167" type="curve" smooth="yes"/>
      <point x="384" y="429.167"/>
      <point x="463.088" y="400"/>
      <point x="463.088" y="210" type="curve" smooth="yes"/>
      <point x="463.088" y="111.981"/>
      <point x="423.043" y="0"/>
      <point x="326" y="0" type="curve" smooth="yes"/>
      <point x="278.043" y="0"/>
      <point x="250.51" y="29"/>
      <point x="240" y="52" type="curve"/>
      <point x="230.963" y="31"/>
      <point x="204.014" y="0"/>
      <point x="160" y="0" type="curve" smooth="yes"/>
      <point x="82.9219" y="0"/>
      <point x="60.9893" y="46"/>
    </contour>
    <contour>
      <point x="790.976" y="716.615" type="curve" smooth="yes"/>
      <point x="790.976" y="694.364"/>
      <point x="808.608" y="676.44"/>
      <point x="830.497" y="676.44" type="curve" smooth="yes"/>
      <point x="852.386" y="676.44"/>
      <point x="870.019" y="694.364"/>
      <point x="870.019" y="716.615" type="curve" smooth="yes"/>
      <point x="870.019" y="738.865"/>
      <point x="852.386" y="756.79"/>
      <point x="830.497" y="756.79" type="curve" smooth="yes"/>
      <point x="808.608" y="756.79"/>
      <point x="790.976" y="738.865"/>
    </contour>
    <contour>
      <point x="699.5" y="717" type="curve" smooth="yes"/>
      <point x="699.5" y="789"/>
      <point x="757.5" y="847"/>
      <point x="829.5" y="847" type="curve" smooth="yes"/>
      <point x="901.5" y="847"/>
      <point x="959.5" y="789"/>
      <point x="959.5" y="717" type="curve" smooth="yes"/>
      <point x="959.5" y="645"/>
      <point x="901.5" y="587"/>
      <point x="829.5" y="587" type="curve" smooth="yes"/>
      <point x="757.5" y="587"/>
      <point x="699.5" y="645"/>
    </contour>
    <contour>
      <point x="490.886" y="710" type="curve" smooth="yes"/>
      <point x="490.886" y="797.305"/>
      <point x="574.414" y="871"/>
      <point x="725.628" y="871" type="curve" smooth="yes"/>
      <point x="899.482" y="871"/>
      <point x="959.5" y="804.305"/>
      <point x="959.5" y="717" type="curve" smooth="yes"/>
      <point x="959.5" y="681.067"/>
      <point x="945.166" y="654.048"/>
      <point x="924.628" y="634.379" type="curve" smooth="yes"/>
      <point x="891.438" y="602.593"/>
      <point x="842.046" y="590"/>
      <point x="810.756" y="590" type="curve"/>
      <point x="777.756" y="632" type="line"/>
      <point x="818.628" y="673" type="line"/>
      <point x="841.345" y="673"/>
      <point x="870.019" y="679"/>
      <point x="870.019" y="716.615" type="curve" smooth="yes"/>
      <point x="870.019" y="761"/>
      <point x="844.248" y="763"/>
      <point x="725.628" y="763" type="curve" smooth="yes"/>
      <point x="637.628" y="763"/>
      <point x="605.886" y="736.934"/>
      <point x="605.886" y="707" type="curve" smooth="yes"/>
      <point x="605.886" y="685.732"/>
      <point x="623.758" y="672.87"/>
      <point x="645.758" y="672.87" type="curve" smooth="yes"/>
      <point x="653.485" y="672.87"/>
      <point x="702.146" y="675"/>
      <point x="710.628" y="675" type="curve"/>
      <point x="768.628" y="630.332" type="line"/>
      <point x="710.628" y="560" type="line"/>
      <point x="691.628" y="560"/>
      <point x="665.758" y="558"/>
      <point x="631.628" y="558" type="curve" smooth="yes"/>
      <point x="580.976" y="558"/>
      <point x="490.886" y="598.971"/>
    </contour>
    <contour>
      <point x="484.439" y="218.826" type="curve" smooth="yes"/>
      <point x="484.439" y="279.354"/>
      <point x="504.338" y="335.661"/>
      <point x="534.817" y="362" type="curve" smooth="yes"/>
      <point x="555.837" y="380.164"/>
      <point x="583.914" y="391"/>
      <point x="620.516" y="391" type="curve" smooth="yes"/>
      <point x="627.516" y="391"/>
      <point x="701.158" y="391"/>
      <point x="714.628" y="391" type="curve"/>
      <point x="788.572" y="306" type="line"/>
      <point x="764.564" y="306"/>
      <point x="663.516" y="306"/>
      <point x="663.516" y="306" type="curve" smooth="yes"/>
      <point x="607.516" y="306"/>
      <point x="595.115" y="270.602"/>
      <point x="595.115" y="226.602" type="curve" smooth="yes"/>
      <point x="595.115" y="174"/>
      <point x="621.708" y="115"/>
      <point x="714.628" y="115" type="curve" smooth="yes"/>
      <point x="819.08" y="115"/>
      <point x="860.628" y="195.018"/>
      <point x="860.628" y="354" type="curve" smooth="yes"/>
      <point x="860.628" y="480"/>
      <point x="820.628" y="560"/>
      <point x="710.628" y="560" type="curve"/>
      <point x="710.628" y="675" type="line"/>
      <point x="904.961" y="675"/>
      <point x="975.628" y="551.029"/>
      <point x="975.628" y="354" type="curve" smooth="yes"/>
      <point x="975.628" y="118"/>
      <point x="894.628" y="0"/>
      <point x="714.628" y="0" type="curve" smooth="yes"/>
      <point x="536.628" y="0"/>
      <point x="484.439" y="137"/>
    </contour>
    <contour>
      <point x="523.976" y="409.272" type="curve" smooth="yes"/>
      <point x="523.976" y="481.535"/>
      <point x="572.946" y="531.563"/>
      <point x="647.248" y="531.563" type="curve" smooth="yes"/>
      <point x="724.234" y="531.563"/>
      <point x="795.633" y="474.899"/>
      <point x="795.633" y="365.563" type="curve" smooth="yes"/>
      <point x="795.633" y="351"/>
      <point x="792.439" y="325"/>
      <point x="788.384" y="306" type="curve"/>
      <point x="698.004" y="371.875" type="line"/>
      <point x="698.944" y="376.782"/>
      <point x="699.419" y="381.771"/>
      <point x="699.419" y="386.714" type="curve" smooth="yes"/>
      <point x="699.419" y="416.144"/>
      <point x="682.605" y="444"/>
      <point x="647.248" y="444" type="curve" smooth="yes"/>
      <point x="622.448" y="444"/>
      <point x="613.456" y="426.134"/>
      <point x="613.456" y="404.787" type="curve" smooth="yes"/>
      <point x="613.456" y="386.793"/>
      <point x="625.741" y="370.325"/>
      <point x="634.439" y="356" type="curve"/>
      <point x="554.439" y="318.563" type="line"/>
      <point x="534.439" y="351"/>
      <point x="523.976" y="380.62"/>
    </contour>
    <contour>
      <point x="25.6279" y="232" type="line"/>
      <point x="245.088" y="489" type="line" smooth="yes"/>
      <point x="292.403" y="544.408"/>
      <point x="353.316" y="585"/>
      <point x="424" y="585" type="curve" smooth="yes"/>
      <point x="506.343" y="585"/>
      <point x="581.562" y="547.809"/>
      <point x="614" y="419" type="curve"/>
      <point x="527" y="387" type="line"/>
      <point x="515.931" y="451.705"/>
      <point x="473.395" y="473"/>
      <point x="424" y="473" type="curve" smooth="yes"/>
      <point x="388.551" y="473"/>
      <point x="354.018" y="455.851"/>
      <point x="317" y="416" type="curve" smooth="yes"/>
      <point x="317" y="416"/>
      <point x="205.527" y="290.156"/>
      <point x="121" y="205" type="curve"/>
      <point x="29.6279" y="126" type="line"/>
    </contour>
    <contour>
      <point x="22" y="461.536" type="curve" smooth="yes"/>
      <point x="22" y="532.132"/>
      <point x="70" y="594"/>
      <point x="157.615" y="594" type="curve" smooth="yes"/>
      <point x="234.605" y="594"/>
      <point x="306" y="537.336"/>
      <point x="306" y="428" type="curve"/>
      <point x="208.371" y="375" type="line"/>
      <point x="208.371" y="386"/>
      <point x="208.371" y="428.648"/>
      <point x="208.371" y="434.312" type="curve" smooth="yes"/>
      <point x="208.371" y="471.944"/>
      <point x="184.526" y="496"/>
      <point x="156" y="496" type="curve" smooth="yes"/>
      <point x="128.166" y="496"/>
      <point x="114.575" y="475.013"/>
      <point x="114.575" y="451.903" type="curve" smooth="yes"/>
      <point x="114.575" y="411.899"/>
      <point x="141.799" y="394.899"/>
      <point x="171.799" y="387.899" type="curve"/>
      <point x="112.088" y="327.899" type="line"/>
      <point x="66.7988" y="344.899"/>
      <point x="22" y="391.899"/>
    </contour>
  </outline>
</glyph>
<glyph name="si_KhRI" format="1">
  <advance width="578"/>
  <outline>
    <contour>
      <point x="22" y="-79" type="curve" smooth="yes"/>
      <point x="132" y="-79" type="line" smooth="yes"/>
      <point x="132" y="-139.032"/>
      <point x="190.165" y="-178"/>
      <point x="282" y="-178" type="curve" smooth="yes"/>
      <point x="373.835" y="-178"/>
      <point x="432" y="-140.27"/>
      <point x="432" y="-69" type="curve" smooth="yes"/>
      <point x="432" y="-37"/>
      <point x="428.717" y="-7"/>
      <point x="374" y="23" type="curve"/>
      <point x="352" y="72" type="line"/>
      <point x="455" y="79" type="line"/>
      <point x="518" y="55"/>
      <point x="542" y="-16"/>
      <point x="542" y="-79" type="curve" smooth="yes"/>
      <point x="542" y="-224"/>
      <point x="420" y="-284"/>
      <point x="282" y="-284" type="curve" smooth="yes"/>
      <point x="144" y="-284"/>
      <point x="22" y="-224"/>
    </contour>
    <component base="si_KhI" xOffset="2"/>
  </outline>
</glyph>
<glyph name="si_KhRa" format="1">
  <advance width="578"/>
  <outline>
    <contour>
      <point x="22" y="-79" type="curve" smooth="yes"/>
      <point x="132" y="-79" type="line" smooth="yes"/>
      <point x="132" y="-139.032"/>
      <point x="190.165" y="-178"/>
      <point x="282" y="-178" type="curve" smooth="yes"/>
      <point x="373.835" y="-178"/>
      <point x="432" y="-140.27"/>
      <point x="432" y="-69" type="curve" smooth="yes"/>
      <point x="432" y="-37"/>
      <point x="428.717" y="-7"/>
      <point x="374" y="23" type="curve"/>
      <point x="352" y="72" type="line"/>
      <point x="455" y="79" type="line"/>
      <point x="518" y="55"/>
      <point x="542" y="-16"/>
      <point x="542" y="-79" type="curve" smooth="yes"/>
      <point x="542" y="-224"/>
      <point x="420" y="-284"/>
      <point x="282" y="-284" type="curve" smooth="yes"/>
      <point x="144" y="-284"/>
      <point x="22" y="-224"/>
    </contour>
    <contour>
      <point x="274" y="152" type="curve"/>
      <point x="334" y="226" type="line"/>
      <point x="334" y="199.778"/>
      <point x="337.271" y="179.732"/>
      <point x="342.844" y="165" type="curve" smooth="yes"/>
      <point x="351.723" y="141.527"/>
      <point x="366.443" y="131.539"/>
      <point x="383.081" y="131.539" type="curve" smooth="yes"/>
      <point x="410.355" y="131.539"/>
      <point x="441.24" y="171.641"/>
      <point x="441.24" y="293" type="curve" smooth="yes"/>
      <point x="441.24" y="522.797"/>
      <point x="398.24" y="639.885"/>
      <point x="260.24" y="639.885" type="curve" smooth="yes"/>
      <point x="219.137" y="639.885"/>
      <point x="171.478" y="618.96"/>
      <point x="154.422" y="576.855" type="curve"/>
      <point x="45.3896" y="613.029" type="line"/>
      <point x="81.374" y="707.868"/>
      <point x="173.52" y="755"/>
      <point x="260.24" y="755" type="curve" smooth="yes"/>
      <point x="477.24" y="755"/>
      <point x="556.24" y="599"/>
      <point x="556.24" y="293" type="curve" smooth="yes"/>
      <point x="556.24" y="181.995"/>
      <point x="539.125" y="0"/>
      <point x="398.125" y="0" type="curve" smooth="yes"/>
      <point x="336" y="0"/>
      <point x="313" y="30"/>
      <point x="296" y="74" type="curve" smooth="yes"/>
      <point x="284.741" y="103.142"/>
      <point x="274" y="152"/>
    </contour>
    <contour>
      <point x="24" y="220" type="curve" smooth="yes"/>
      <point x="24" y="425.89"/>
      <point x="100" y="488.874"/>
      <point x="204.186" y="488.874" type="curve" smooth="yes"/>
      <point x="311.691" y="488.874"/>
      <point x="373.125" y="430"/>
      <point x="373.125" y="324" type="curve" smooth="yes"/>
      <point x="373.125" y="271.699"/>
      <point x="356.646" y="232.285"/>
      <point x="333" y="191" type="curve" smooth="yes"/>
      <point x="307.902" y="147.18"/>
      <point x="301.272" y="102.914"/>
      <point x="301.272" y="34.4395" type="curve" smooth="yes"/>
      <point x="301.272" y="-4.38965"/>
      <point x="303.479" y="-43.3105"/>
      <point x="307" y="-75" type="curve"/>
      <point x="200" y="-75" type="line"/>
      <point x="196.287" y="-50.4004"/>
      <point x="193.583" y="-14.6318"/>
      <point x="193.583" y="25.6523" type="curve" smooth="yes"/>
      <point x="193.583" y="72.1602"/>
      <point x="197.187" y="124.688"/>
      <point x="207" y="173" type="curve" smooth="yes"/>
      <point x="220" y="237"/>
      <point x="261.125" y="264"/>
      <point x="261.125" y="324" type="curve" smooth="yes"/>
      <point x="261.125" y="354"/>
      <point x="245.691" y="376.433"/>
      <point x="203" y="376.433" type="curve" smooth="yes"/>
      <point x="163.173" y="376.433"/>
      <point x="131" y="339.788"/>
      <point x="131" y="220" type="curve" smooth="yes"/>
      <point x="131" y="128"/>
      <point x="152" y="106"/>
      <point x="173" y="106" type="curve" smooth="yes"/>
      <point x="193" y="106"/>
      <point x="210" y="120"/>
      <point x="226" y="156" type="curve"/>
      <point x="282" y="73" type="line"/>
      <point x="239.89" y="36.5586"/>
      <point x="196.468" y="3.06152"/>
      <point x="150.725" y="3.06152" type="curve" smooth="yes"/>
      <point x="55.5713" y="3.06152"/>
      <point x="24" y="101.451"/>
    </contour>
  </outline>
</glyph>
